SplineFontDB: 3.0
FontName: Bitter-Regular
FullName: Bitter Regular
FamilyName: Bitter
Weight: Regular
Copyright: Copyright (c) 2011, Sol Matas (www.huertatipografica.com.ar), with Reserved Font Name "Bitter"
Version: 001.001
ItalicAngle: 0
UnderlinePosition: -50
UnderlineWidth: 50
Ascent: 800
Descent: 200
sfntRevision: 0x00010042
LayerCount: 2
Layer: 0 1 "Back"  1
Layer: 1 1 "Fore"  0
NeedsXUIDChange: 1
XUID: [1021 288 713564382 8785770]
FSType: 0
OS2Version: 2
OS2_WeightWidthSlopeOnly: 0
OS2_UseTypoMetrics: 1
CreationTime: 1320656831
ModificationTime: 1320682189
PfmFamily: 17
TTFWeight: 400
TTFWidth: 5
LineGap: 0
VLineGap: 0
Panose: 2 0 0 0 0 0 0 0 0 0
OS2TypoAscent: 935
OS2TypoAOffset: 0
OS2TypoDescent: -265
OS2TypoDOffset: 0
OS2TypoLinegap: 0
OS2WinAscent: 935
OS2WinAOffset: 0
OS2WinDescent: 265
OS2WinDOffset: 0
HheadAscent: 935
HheadAOffset: 0
HheadDescent: -265
HheadDOffset: 0
OS2SubXSize: 700
OS2SubYSize: 650
OS2SubXOff: 0
OS2SubYOff: 140
OS2SupXSize: 700
OS2SupYSize: 650
OS2SupXOff: 0
OS2SupYOff: 477
OS2StrikeYSize: 50
OS2StrikeYPos: 250
OS2FamilyClass: 1280
OS2Vendor: 'PYRS'
OS2CodePages: 20000001.00000000
OS2UnicodeRanges: 800000af.4000204a.00000000.00000000
Lookup: 258 0 0 "'kern' Horizontal Kerning in Latin lookup 0"  {"'kern' Horizontal Kerning in Latin lookup 0 subtable"  } ['kern' ('latn' <'dflt' > ) ]
MarkAttachClasses: 1
DEI: 91125
TtTable: prep
PUSHW_1
 511
SCANCTRL
PUSHB_1
 4
SCANTYPE
EndTTInstrs
LangName: 1033 "" "" "" "SolMatas: Bitter Regular: 2010" "Bitter-Regular" "Version 1.001" "" "Bitter is a trademark of Sol Matas (www.huertatipografica.com.ar)." "Sol Matas" "Sol Matas" "" "www.huertatipografica.com.ar" "www.huertatipografica.com.ar" "This Font Software is licensed under the SIL Open Font License, Version 1.1. This license is available with a FAQ at: http://scripts.sil.org/OFL" "http://scripts.sil.org/OFL" 
GaspTable: 1 65535 15
Encoding: UnicodeBmp
UnicodeInterp: none
NameList: Adobe Glyph List
DisplaySize: -48
AntiAlias: 1
FitToEm: 1

StartChar: s
Encoding: 115 115 1
Width: 471
Flags: HMW
HStem: -12 83 465 75<230 230>
VStem: 48 100 323 85
LayerCount: 2
Fore
SplineSet
46 160 m 1,0,-1
 116 160 l 1,1,-1
 127 74 l 1,2,3
 139 71 l 2,4,5
 171.32 62.92 171.32 62.92 215 65 c 0,6,7
 328 69 328 69 325 144 c 0,8,9
 324 174 324 174 295 193 c 128,-1,10
 266 212 266 212 225.5 224 c 128,-1,11
 185 236 185 236 144.5 251.5 c 128,-1,12
 104 267 104 267 75.5 299.5 c 128,-1,13
 47 332 47 332 46 382 c 0,14,15
 45 458 45 458 95.5 498 c 128,-1,16
 146 538 146 538 229 540 c 1,17,18
 300 540 300 540 375 517.5 c 2,19,-1
 400 510 l 1,20,-1
 397 375 l 1,21,-1
 332 375 l 1,22,-1
 316 453 l 1,23,24
 304.818181818 457.472727273 304.818181818 457.472727273 277.409090909 461.736363636 c 128,-1,25
 250 466 250 466 220.5 464.5 c 128,-1,26
 191 463 191 463 168 448 c 128,-1,27
 145 433 145 433 146 400.5 c 128,-1,28
 147 368 147 368 176 348.5 c 128,-1,29
 205 329 205 329 245.5 316.5 c 128,-1,30
 286 304 286 304 326.5 288.5 c 128,-1,31
 367 273 367 273 395.5 241.5 c 128,-1,32
 424 210 424 210 425 163 c 0,33,34
 426 81 426 81 366.5 37 c 0,35,36
 281.356902357 -25.962962963 281.356902357 -25.962962963 134.5 -6.5 c 0,37,38
 93 -1 93 -1 70 5.5 c 2,39,-1
 47 12 l 1,40,-1
 46 160 l 1,0,-1
EndSplineSet
EndChar

StartChar: b
Encoding: 98 98 2
Width: 585
Flags: HMW
HStem: -10 80<243 338 243 355> 460 80<297.5 355> 750 20G<180 180>
VStem: 80 100<80 80 80 395 482 690 690 690> 434 105
LayerCount: 2
Fore
SplineSet
180 770 m 1,0,-1
 180 482 l 1,1,2
 254 540 254 540 330 540 c 0,3,4
 435 540 435 540 487.5 470.5 c 128,-1,5
 540 401 540 401 540 275 c 128,-1,6
 540 149 540 149 468.5 69.5 c 128,-1,7
 397 -10 397 -10 265 -10 c 0,8,9
 164.615384615 -10 164.615384615 -10 102 8.5 c 2,10,-1
 80 15 l 1,11,-1
 80 690 l 1,12,-1
 0 710 l 1,13,-1
 0 765 l 1,14,-1
 180 770 l 1,0,-1
180 80 m 1,15,16
 206 70 206 70 284 70 c 128,-1,17
 362 70 362 70 398.5 125 c 128,-1,18
 435 180 435 180 435 269 c 128,-1,19
 435 358 435 358 404.5 409 c 128,-1,20
 374 460 374 460 310 460 c 0,21,22
 258.157894737 460 258.157894737 460 225 437.5 c 0,23,24
 195.621761658 417.564766839 195.621761658 417.564766839 180 395 c 1,25,-1
 180 80 l 1,15,16
EndSplineSet
EndChar

StartChar: f
Encoding: 102 102 3
Width: 440
Flags: HMW
HStem: 0 55<75 357 75 75> 450 75<70 160 260 389> 705 75<315 367.5>
VStem: 160 100<80 450 80 450 525 585 585 605>
LayerCount: 2
Fore
SplineSet
70 515 m 1,0,-1
 160 525 l 1,1,-1
 160 585 l 2,2,3
 160 676 160 676 208 728 c 128,-1,4
 256 780 256 780 345 780 c 0,5,6
 387 780 387 780 424.5 771.5 c 128,-1,7
 462 763 462 763 478.5 754 c 2,8,-1
 495 745 l 1,9,-1
 495 620 l 1,10,-1
 425 620 l 1,11,-1
 410 700 l 1,12,13
 385 705 385 705 342.5 705 c 0,14,15
 260 705 260 705 260 605 c 2,16,-1
 260 525 l 1,17,-1
 392 525 l 1,18,-1
 389 450 l 1,19,-1
 260 450 l 1,20,-1
 260 80 l 1,21,-1
 357 55 l 1,22,-1
 357 0 l 1,23,-1
 75 0 l 1,24,-1
 75 55 l 1,25,-1
 160 80 l 1,26,-1
 160 450 l 1,27,-1
 70 450 l 1,28,-1
 70 515 l 1,0,-1
EndSplineSet
EndChar

StartChar: e
Encoding: 101 101 4
Width: 530
Flags: HMW
HStem: -10 80<247 340 247 340> 250 75<145 389> 460 80
VStem: 40 105<195 250 195 340> 389 106<325 362.5>
LayerCount: 2
Fore
SplineSet
490 252 m 1,0,-1
 145 250 l 1,1,2
 145 168 145 168 185 119 c 128,-1,3
 225 70 225 70 290 70 c 0,4,5
 334 70 334 70 376 84 c 128,-1,6
 418 98 418 98 438 111.5 c 2,7,-1
 458 125 l 1,8,-1
 493 73 l 1,9,10
 483 64 483 64 464 50 c 128,-1,11
 445 36 445 36 389 13 c 128,-1,12
 333 -10 333 -10 280 -10 c 0,13,14
 162 -10 162 -10 101 61.5 c 128,-1,15
 40 133 40 133 40 257 c 0,16,17
 40 381 40 381 108.5 460.5 c 128,-1,18
 177 540 177 540 285 540 c 0,19,20
 495 540 495 540 495 305 c 1,21,-1
 490 252 l 1,0,-1
149 325 m 1,22,-1
 389 325 l 1,23,24
 389 386 389 386 363 424 c 128,-1,25
 337 462 337 462 279.5 462 c 0,26,27
 222 462 222 462 188 423 c 128,-1,28
 154 384 154 384 149 325 c 1,22,-1
EndSplineSet
EndChar

StartChar: i
Encoding: 105 105 5
Width: 335
Flags: HMW
HStem: 0 55<40 300 40 40> 450 80 635 130
VStem: 125 100<80 450 450 450>
LayerCount: 2
Fore
SplineSet
105 695 m 128,-1,1
 105 728 105 728 123.5 746.5 c 128,-1,2
 142 765 142 765 170 765 c 0,3,4
 235 765 235 765 235 695 c 0,5,6
 235 663 235 663 215 644 c 128,-1,7
 195 625 195 625 167.5 625 c 0,8,9
 140 625 140 625 122.5 643.5 c 128,-1,0
 105 662 105 662 105 695 c 128,-1,1
225 530 m 1,10,-1
 225 80 l 1,11,-1
 300 55 l 1,12,-1
 300 0 l 1,13,-1
 40 0 l 1,14,-1
 40 55 l 1,15,-1
 125 80 l 1,16,-1
 125 450 l 1,17,-1
 40 470 l 1,18,-1
 40 525 l 1,19,-1
 225 530 l 1,10,-1
EndSplineSet
EndChar

StartChar: n
Encoding: 110 110 6
Width: 665
Flags: HMW
HStem: 0 55<40 290 40 40> 455 85<358.5 402.5>
VStem: 125 100<80 375 80 450 80 450> 460 100<80 350 350 360 80 385>
LayerCount: 2
Fore
SplineSet
205 530 m 1,0,-1
 214 459 l 1,1,2
 232 474 232 474 255 490 c 128,-1,3
 278 506 278 506 320 523 c 128,-1,4
 362 540 362 540 400 540 c 0,5,6
 480 540 480 540 520 492.5 c 128,-1,7
 560 445 560 445 560 360 c 2,8,-1
 560 80 l 1,9,-1
 635 55 l 1,10,-1
 635 0 l 1,11,-1
 395 0 l 1,12,-1
 395 55 l 1,13,-1
 460 80 l 1,14,-1
 460 350 l 2,15,16
 460 404 460 404 439 429.5 c 128,-1,17
 418 455 418 455 375 455 c 0,18,19
 332 455 332 455 296 435 c 128,-1,20
 260 415 260 415 242.5 395 c 2,21,-1
 225 375 l 1,22,-1
 225 80 l 1,23,-1
 290 55 l 1,24,-1
 290 0 l 1,25,-1
 40 0 l 1,26,-1
 40 55 l 1,27,-1
 125 80 l 1,28,-1
 125 450 l 1,29,-1
 40 470 l 1,30,-1
 40 525 l 1,31,-1
 205 530 l 1,0,-1
EndSplineSet
EndChar

StartChar: o
Encoding: 111 111 7
Width: 570
Flags: HMW
HStem: -10 80<235 335 235 355> 460 80<240 340>
VStem: 40 105<205 330 205 345> 425 105<205 325>
LayerCount: 2
Fore
SplineSet
111 463.5 m 128,-1,1
 182 540 182 540 294 540 c 128,-1,2
 406 540 406 540 468 468.5 c 128,-1,3
 530 397 530 397 530 272 c 128,-1,4
 530 147 530 147 461 68.5 c 128,-1,5
 392 -10 392 -10 279 -10 c 128,-1,6
 166 -10 166 -10 103 58.5 c 128,-1,7
 40 127 40 127 40 257 c 128,-1,0
 40 387 40 387 111 463.5 c 128,-1,1
290 460 m 0,8,9
 145 460 145 460 145 265 c 128,-1,10
 145 70 145 70 285 70 c 0,11,12
 358 70 358 70 391.5 120 c 128,-1,13
 425 170 425 170 425 270 c 0,14,15
 425 460 425 460 290 460 c 0,8,9
EndSplineSet
EndChar

StartChar: v
Encoding: 118 118 8
Width: 559
Flags: HMW
HStem: 0 21G<219 329 219 219> 510 20G<230 230 554 554>
LayerCount: 2
Fore
SplineSet
230 530 m 1,0,-1
 230 470 l 1,1,-1
 160 460 l 1,2,-1
 279 90 l 1,3,-1
 399 455 l 1,4,-1
 330 470 l 1,5,-1
 330 525 l 1,6,-1
 554 530 l 1,7,-1
 554 470 l 1,8,-1
 499 460 l 1,9,-1
 329 0 l 1,10,-1
 219 0 l 1,11,-1
 55 455 l 1,12,-1
 5 470 l 1,13,-1
 5 525 l 1,14,-1
 230 530 l 1,0,-1
EndSplineSet
EndChar

StartChar: h
Encoding: 104 104 9
Width: 650
Flags: HMW
HStem: 0 55<25 275 25 25> 455 85<348 390.5> 750 20G<210 210>
VStem: 110 100<80 375 468 690 690 690> 445 100<80 350 350 360 80 385>
LayerCount: 2
Fore
SplineSet
210 770 m 1,0,-1
 210 468 l 1,1,2
 296 540 296 540 380.5 540 c 0,3,4
 465 540 465 540 505 492.5 c 128,-1,5
 545 445 545 445 545 360 c 2,6,-1
 545 80 l 1,7,-1
 620 55 l 1,8,-1
 620 0 l 1,9,-1
 380 0 l 1,10,-1
 380 55 l 1,11,-1
 445 79 l 1,12,-1
 445 350 l 2,13,14
 445 404 445 404 425 429.5 c 128,-1,15
 405 455 405 455 362.5 455 c 0,16,17
 320 455 320 455 283 435 c 128,-1,18
 246 415 246 415 228 395 c 2,19,-1
 210 375 l 1,20,-1
 210 80 l 1,21,-1
 275 55 l 1,22,-1
 275 0 l 1,23,-1
 25 0 l 1,24,-1
 25 55 l 1,25,-1
 110 80 l 1,26,-1
 110 690 l 1,27,-1
 25 710 l 1,28,-1
 25 765 l 1,29,-1
 210 770 l 1,0,-1
EndSplineSet
EndChar

StartChar: a
Encoding: 97 97 10
Width: 565
Flags: HMW
HStem: -10 80<197.5 230> 230 65<275 285 285 355> 465 75<230 290>
VStem: 45 100 355 100<150 230 230 230 295 375 375 385 80 405>
LayerCount: 2
Fore
SplineSet
75 500 m 1,0,1
 185 540 185 540 273 540 c 128,-1,2
 361 540 361 540 408 504 c 128,-1,3
 455 468 455 468 455 385 c 2,4,-1
 455 80 l 1,5,-1
 535 60 l 1,6,-1
 535 5 l 1,7,-1
 380 0 l 1,8,-1
 359 70 l 1,9,10
 279 -10 279 -10 201.5 -10 c 128,-1,11
 124 -10 124 -10 84.5 29.5 c 128,-1,12
 45 69 45 69 45 140 c 0,13,14
 45 295 45 295 275 295 c 2,15,-1
 355 295 l 1,16,-1
 355 375 l 2,17,18
 355 465 355 465 260 465 c 0,19,20
 204 465 204 465 171 454 c 2,21,-1
 159 450 l 1,22,-1
 145 375 l 1,23,-1
 80 375 l 1,24,-1
 75 500 l 1,0,1
355 230 m 1,25,-1
 285 230 l 2,26,27
 210 230 210 230 178.5 210 c 128,-1,28
 147 190 147 190 147 150.5 c 128,-1,29
 147 111 147 111 166.5 90.5 c 128,-1,30
 186 70 186 70 219.5 70 c 128,-1,31
 253 70 253 70 287 90 c 128,-1,32
 321 110 321 110 338 130 c 2,33,-1
 355 150 l 1,34,-1
 355 230 l 1,25,-1
EndSplineSet
EndChar

StartChar: c
Encoding: 99 99 11
Width: 510
Flags: HMW
HStem: -10 80<252.5 345> 460 80<247.5 320>
VStem: 40 105<207.5 337.5 207.5 345>
LayerCount: 2
Fore
SplineSet
465 365 m 1,0,-1
 400 365 l 1,1,-1
 385 450 l 1,2,3
 345 460 345 460 295 460 c 0,4,5
 223 460 223 460 184 413.5 c 128,-1,6
 145 367 145 367 145 271 c 128,-1,7
 145 175 145 175 186 122.5 c 128,-1,8
 227 70 227 70 300 70 c 0,9,10
 342 70 342 70 381 85 c 128,-1,11
 420 100 420 100 437.5 115 c 2,12,-1
 455 130 l 1,13,-1
 490 70 l 1,14,15
 486 67 486 67 479.5 61.5 c 128,-1,16
 473 56 473 56 451.5 42 c 128,-1,17
 430 28 430 28 408 17.5 c 0,18,19
 350.380952381 -10 350.380952381 -10 290 -10 c 0,20,21
 168 -10 168 -10 104 62.5 c 128,-1,22
 40 135 40 135 40 261 c 128,-1,23
 40 387 40 387 111 463.5 c 128,-1,24
 182 540 182 540 300 540 c 0,25,26
 340 540 340 540 382.5 530 c 128,-1,27
 425 520 425 520 447.5 510 c 2,28,-1
 470 500 l 1,29,-1
 465 365 l 1,0,-1
EndSplineSet
EndChar

StartChar: g
Encoding: 103 103 12
Width: 585
Flags: HMW
HStem: -250 80 0 75<210 320 210 210> 160 70<247.5 315 237.5 335> 470 70<240 317.5>
VStem: 65 100<315 390 315 410> 400 95
LayerCount: 2
Fore
SplineSet
270 160 m 0,0,1
 225.6 160 225.6 160 195 169 c 1,2,-1
 190 75 l 1,3,-1
 345 75 l 2,4,5
 443 75 443 75 494 38 c 128,-1,6
 545 1 545 1 545 -77 c 128,-1,7
 545 -155 545 -155 479 -202.5 c 128,-1,8
 413 -250 413 -250 285 -250 c 0,9,10
 45 -250 45 -250 45 -105 c 0,11,12
 45 -41.5483870968 45 -41.5483870968 112.5 2 c 0,13,14
 128 12 128 12 139 16 c 2,15,-1
 150 20 l 1,16,17
 143 21 143 21 133 23 c 128,-1,18
 123 25 123 25 106.5 39.5 c 128,-1,19
 90 54 90 54 90 73 c 0,20,21
 90 106 90 106 129 169 c 2,22,-1
 142 190 l 1,23,24
 133.306122449 192.897959184 133.306122449 192.897959184 117.653061224 207.948979592 c 128,-1,25
 102 223 102 223 92 238.5 c 0,26,27
 65 280.35 65 280.35 65 345 c 0,28,29
 65 440 65 440 124.5 490 c 128,-1,30
 184 540 184 540 285 540 c 0,31,32
 340.666666667 540 340.666666667 540 374.5 525.5 c 2,33,-1
 385 521 l 1,34,-1
 560 525 l 1,35,-1
 560 470 l 1,36,-1
 463 456 l 1,37,38
 490 420 490 420 490 355 c 0,39,40
 490 257 490 257 431 208.5 c 128,-1,41
 372 160 372 160 270 160 c 0,0,1
320 0 m 2,42,-1
 210 0 l 1,43,44
 204.75 -1.75 204.75 -1.75 190.375 -12.375 c 128,-1,45
 176 -23 176 -23 167.5 -32.5 c 0,46,47
 145 -57.6470588235 145 -57.6470588235 145 -90 c 0,48,49
 145 -139 145 -139 183.5 -157 c 128,-1,50
 222 -175 222 -175 300 -175 c 0,51,52
 450 -175 450 -175 450 -80 c 0,53,54
 450 -34 450 -34 417.5 -17 c 128,-1,55
 385 0 385 0 320 0 c 2,42,-1
280 470 m 0,56,57
 165 470 165 470 165 350 c 0,58,59
 165 295 165 295 193 262.5 c 128,-1,60
 221 230 221 230 278 230 c 128,-1,61
 335 230 335 230 362.5 258.5 c 128,-1,62
 390 287 390 287 390 350 c 0,63,64
 390 470 390 470 280 470 c 0,56,57
EndSplineSet
EndChar

StartChar: j
Encoding: 106 106 13
Width: 289
Flags: HMW
HStem: -240 75<11.5 19 19 54 -31 84> 450 80 635 130
VStem: 109 100<-65 -45 -45 450 450 450>
LayerCount: 2
Fore
SplineSet
209 530 m 1,0,-1
 209 -45 l 2,1,2
 209 -136 209 -136 161 -188 c 128,-1,3
 113 -240 113 -240 24 -240 c 1,4,-1
 -40 -235 l 1,5,-1
 -31 -165 l 1,6,-1
 19 -165 l 2,7,8
 69 -165 69 -165 89 -139.5 c 128,-1,9
 109 -114 109 -114 109 -65 c 2,10,-1
 109 450 l 1,11,-1
 24 470 l 1,12,-1
 24 525 l 1,13,-1
 209 530 l 1,0,-1
84 695 m 128,-1,15
 84 728 84 728 103 746.5 c 128,-1,16
 122 765 122 765 149 765 c 0,17,18
 214 765 214 765 214 695 c 0,19,20
 214 663 214 663 194 644 c 128,-1,21
 174 625 174 625 146.5 625 c 0,22,23
 119 625 119 625 101.5 643.5 c 128,-1,14
 84 662 84 662 84 695 c 128,-1,15
EndSplineSet
EndChar

StartChar: k
Encoding: 107 107 14
Width: 585
Flags: HMW
HStem: 0 55<25 275 25 25> 255 75<210 295 210 297 210 295> 470 60<545 545> 750 20G<210 210>
VStem: 110 100<80 255 330 690 690 690>
LayerCount: 2
Fore
SplineSet
210 770 m 1,0,-1
 210 330 l 1,1,-1
 295 330 l 1,2,-1
 370 456 l 1,3,-1
 325 470 l 1,4,-1
 325 525 l 1,5,-1
 545 530 l 1,6,-1
 545 470 l 1,7,-1
 474 458 l 1,8,-1
 473 458 l 1,9,-1
 370 305 l 1,10,-1
 499 80 l 1,11,-1
 500 80 l 1,12,-1
 575 55 l 1,13,-1
 575 0 l 1,14,-1
 440 0 l 1,15,-1
 297 255 l 1,16,-1
 210 255 l 1,17,-1
 210 80 l 1,18,-1
 275 55 l 1,19,-1
 275 0 l 1,20,-1
 25 0 l 1,21,-1
 25 55 l 1,22,-1
 110 80 l 1,23,-1
 110 690 l 1,24,-1
 25 710 l 1,25,-1
 25 765 l 1,26,-1
 210 770 l 1,0,-1
EndSplineSet
EndChar

StartChar: l
Encoding: 108 108 15
Width: 317
Flags: HMW
HStem: 0 55<25 312 25 25> 750 20G<212 212>
VStem: 110 102<80 690 690 690>
LayerCount: 2
Fore
SplineSet
212 770 m 1,0,-1
 212 80 l 1,1,-1
 312 55 l 1,2,-1
 312 0 l 1,3,-1
 25 0 l 1,4,-1
 25 55 l 1,5,-1
 110 80 l 1,6,-1
 110 690 l 1,7,-1
 25 710 l 1,8,-1
 25 765 l 1,9,-1
 212 770 l 1,0,-1
EndSplineSet
EndChar

StartChar: m
Encoding: 109 109 16
Width: 980
Flags: HMW
HStem: 0 55<40 290 40 40> 455 85<354 397.5 674 722.5>
VStem: 125 100<80 375 80 450 80 450> 450 100<80 350 350 375 80 385> 775 100<80 350 350 360 80 385>
CounterMasks: 1 38
LayerCount: 2
Fore
SplineSet
205 530 m 1,0,-1
 214 459 l 1,1,2
 242 486 242 486 292 513 c 128,-1,3
 342 540 342 540 395 540 c 0,4,5
 496 540 496 540 534 454 c 1,6,7
 570.632653061 490.632653061 570.632653061 490.632653061 624.816326531 515.316326531 c 128,-1,8
 679 540 679 540 720 540 c 0,9,10
 875 540 875 540 875 360 c 2,11,-1
 875 80 l 1,12,-1
 950 55 l 1,13,-1
 950 0 l 1,14,-1
 710 0 l 1,15,-1
 710 55 l 1,16,-1
 775 80 l 1,17,-1
 775 350 l 2,18,19
 775 405 775 405 756 430 c 128,-1,20
 737 455 737 455 694.5 455 c 128,-1,21
 652 455 652 455 617 435 c 128,-1,22
 582 415 582 415 566 395 c 2,23,-1
 550 375 l 1,24,-1
 550 80 l 1,25,-1
 615 55 l 1,26,-1
 615 0 l 1,27,-1
 385 0 l 1,28,-1
 385 55 l 1,29,-1
 450 80 l 1,30,-1
 450 350 l 2,31,32
 450 405 450 405 431 430 c 128,-1,33
 412 455 412 455 369.5 455 c 128,-1,34
 327 455 327 455 292 435 c 128,-1,35
 257 415 257 415 241 395 c 2,36,-1
 225 375 l 1,37,-1
 225 80 l 1,38,-1
 290 55 l 1,39,-1
 290 0 l 1,40,-1
 40 0 l 1,41,-1
 40 55 l 1,42,-1
 125 80 l 1,43,-1
 125 450 l 1,44,-1
 40 470 l 1,45,-1
 40 525 l 1,46,-1
 205 530 l 1,0,-1
EndSplineSet
EndChar

StartChar: r
Encoding: 114 114 17
Width: 465
Flags: HMW
HStem: 0 55<40 325 40 40> 459 81
VStem: 125 100<80 377 80 450 80 450>
LayerCount: 2
Fore
SplineSet
205 530 m 1,0,-1
 214 457 l 1,1,2
 288 540 288 540 365 540 c 0,3,4
 405.714285714 540 405.714285714 540 443.5 528.5 c 2,5,-1
 455 525 l 1,6,-1
 450 380 l 1,7,-1
 385 380 l 1,8,-1
 370 455 l 1,9,10
 284 455 284 455 225 377 c 1,11,-1
 225 80 l 1,12,-1
 325 55 l 1,13,-1
 325 0 l 1,14,-1
 40 0 l 1,15,-1
 40 55 l 1,16,-1
 125 80 l 1,17,-1
 125 450 l 1,18,-1
 40 470 l 1,19,-1
 40 525 l 1,20,-1
 205 530 l 1,0,-1
EndSplineSet
EndChar

StartChar: t
Encoding: 116 116 18
Width: 395
Flags: HMW
HStem: -10 80 450 75<20 120 220 365> 645 15
VStem: 120 100<135 450 525 651 651 651>
LayerCount: 2
Fore
SplineSet
220 671 m 1,0,-1
 220 525 l 1,1,-1
 365 525 l 1,2,-1
 365 450 l 1,3,-1
 220 450 l 1,4,-1
 220 129 l 2,5,6
 220 68 220 68 270 68 c 0,7,8
 302 68 302 68 348 93 c 1,9,-1
 375 40 l 1,10,11
 307 -10 307 -10 235 -10 c 0,12,13
 184 -10 184 -10 152 23.5 c 128,-1,14
 120 57 120 57 120 135 c 2,15,-1
 120 450 l 1,16,-1
 20 450 l 1,17,-1
 20 515 l 1,18,-1
 120 525 l 1,19,-1
 120 651 l 1,20,-1
 220 671 l 1,0,-1
EndSplineSet
EndChar

StartChar: u
Encoding: 117 117 19
Width: 650
Flags: HMW
HStem: -10 85<262.5 306> 470 60
VStem: 105 100<169 179 179 450 450 450> 440 100<154 450 450 450>
LayerCount: 2
Fore
SplineSet
540 530 m 1,0,-1
 540 80 l 1,1,-1
 625 60 l 1,2,-1
 625 5 l 1,3,-1
 460 0 l 1,4,-1
 450 70 l 1,5,6
 407.923753666 32.8739002933 407.923753666 32.8739002933 354.961876833 11.4369501466 c 128,-1,7
 302 -10 302 -10 265 -10 c 0,8,9
 185 -10 185 -10 145 37 c 128,-1,10
 105 84 105 84 105 169 c 2,11,-1
 105 450 l 1,12,-1
 20 470 l 1,13,-1
 20 525 l 1,14,-1
 205 530 l 1,15,-1
 205 179 l 2,16,17
 205 126 205 126 226 100.5 c 128,-1,18
 247 75 247 75 290 75 c 128,-1,19
 333 75 333 75 369 95 c 128,-1,20
 405 115 405 115 422.5 134.5 c 2,21,-1
 440 154 l 1,22,-1
 440 450 l 1,23,-1
 355 470 l 1,24,-1
 355 525 l 1,25,-1
 540 530 l 1,0,-1
EndSplineSet
EndChar

StartChar: w
Encoding: 119 119 20
Width: 830
Flags: HMW
HStem: 0 20G 520 20G<466 466>
LayerCount: 2
Fore
SplineSet
230 530 m 1,0,-1
 230 470 l 1,1,-1
 155 460 l 1,2,-1
 240 90 l 1,3,-1
 371 525 l 1,4,-1
 466 540 l 1,5,-1
 590 90 l 1,6,-1
 670 455 l 1,7,-1
 600 470 l 1,8,-1
 600 525 l 1,9,-1
 825 530 l 1,10,-1
 825 470 l 1,11,-1
 767 460 l 1,12,-1
 645 0 l 1,13,-1
 530 0 l 1,14,-1
 435 310 l 1,15,-1
 411 406 l 1,16,-1
 390 310 l 1,17,-1
 295 0 l 1,18,-1
 180 0 l 1,19,-1
 55 455 l 1,20,-1
 5 470 l 1,21,-1
 5 525 l 1,22,-1
 230 530 l 1,0,-1
EndSplineSet
EndChar

StartChar: x
Encoding: 120 120 21
Width: 565
Flags: HMW
HStem: 0 55<5 150 5 5> 470 60<243 243>
VStem: 5 145<0 55 0 55> 405 145<525 525>
LayerCount: 2
Fore
SplineSet
243 530 m 1,0,-1
 243 470 l 1,1,-1
 208 464 l 1,2,-1
 285 335 l 1,3,-1
 405 525 l 1,4,-1
 550 530 l 1,5,-1
 550 470 l 1,6,-1
 465 455 l 1,7,-1
 340 270 l 1,8,-1
 468 78 l 1,9,-1
 560 55 l 1,10,-1
 560 0 l 1,11,-1
 316 0 l 1,12,-1
 316 55 l 1,13,-1
 356 67 l 1,14,-1
 274 199 l 1,15,-1
 150 0 l 1,16,-1
 5 0 l 1,17,-1
 5 55 l 1,18,-1
 93 78 l 1,19,-1
 220 265 l 1,20,-1
 92 456 l 1,21,-1
 15 470 l 1,22,-1
 15 525 l 1,23,-1
 243 530 l 1,0,-1
EndSplineSet
EndChar

StartChar: y
Encoding: 121 121 22
Width: 577
Flags: HMW
HStem: -240 75<82.5 90 90 125 40 177.5> 510 20G<245 245 572 572>
VStem: 10 235<470 525 525 525> 335 235
LayerCount: 2
Fore
SplineSet
245 530 m 1,0,-1
 245 470 l 1,1,-1
 175 460 l 1,2,-1
 295 110 l 1,3,-1
 405 455 l 1,4,-1
 335 470 l 1,5,-1
 335 525 l 1,6,-1
 572 530 l 1,7,-1
 572 470 l 1,8,-1
 507 460 l 1,9,-1
 365 64 l 1,10,11
 315.047907232 -67.0064319777 315.047907232 -67.0064319777 290.787432642 -109.894352959 c 0,12,13
 216.132301915 -239.277851337 216.132301915 -239.277851337 95 -240 c 1,14,-1
 31 -235 l 1,15,-1
 40 -165 l 1,16,-1
 90 -165 l 2,17,18
 139 -165 139 -165 175.5 -124 c 128,-1,19
 212 -83 212 -83 249 -2 c 1,20,-1
 70 455 l 1,21,-1
 10 470 l 1,22,-1
 10 525 l 1,23,-1
 245 530 l 1,0,-1
EndSplineSet
EndChar

StartChar: z
Encoding: 122 122 23
Width: 505
Flags: HMW
HStem: 0 75<177 381 65 65> 455 75<169 357 169 169 85 470>
VStem: 65 400<0 75 75 75>
LayerCount: 2
Fore
SplineSet
470 530 m 1,0,-1
 470 455 l 1,1,-1
 177 75 l 1,2,-1
 381 75 l 1,3,-1
 395 155 l 1,4,-1
 465 155 l 1,5,-1
 465 0 l 1,6,-1
 65 0 l 1,7,-1
 65 75 l 1,8,-1
 357 455 l 1,9,-1
 169 455 l 1,10,-1
 155 380 l 1,11,-1
 85 380 l 1,12,-1
 85 530 l 1,13,-1
 470 530 l 1,0,-1
EndSplineSet
EndChar

StartChar: p
Encoding: 112 112 25
Width: 615
Flags: HMW
HStem: -230 21G<30 315 30 30> -10 80<283.5 373 277.5 392.5> 460 80<320.5 380>
VStem: 110 100<-155 4 -155 90 90 390> 465 105<215 325>
LayerCount: 2
Fore
SplineSet
195 530 m 1,0,-1
 203 474 l 1,1,2
 274 540 274 540 355 540 c 0,3,4
 461 540 461 540 515.5 470 c 128,-1,5
 570 400 570 400 570 273.5 c 128,-1,6
 570 147 570 147 502 68.5 c 128,-1,7
 434 -10 434 -10 300 -10 c 0,8,9
 257 -10 257 -10 210 4 c 1,10,-1
 210 -155 l 1,11,-1
 315 -175 l 1,12,-1
 315 -230 l 1,13,-1
 30 -230 l 1,14,-1
 30 -175 l 1,15,-1
 110 -155 l 1,16,-1
 110 450 l 1,17,-1
 25 470 l 1,18,-1
 25 525 l 1,19,-1
 195 530 l 1,0,-1
210 390 m 1,20,-1
 210 90 l 1,21,22
 240 70 240 70 315 70 c 0,23,24
 465 70 465 70 465 270 c 0,25,26
 465 357 465 357 432.5 408.5 c 128,-1,27
 400 460 400 460 335 460 c 0,28,29
 271.333333333 460 271.333333333 460 228 414.5 c 0,30,31
 218 404 218 404 210 390 c 1,20,-1
EndSplineSet
EndChar

StartChar: O
Encoding: 79 79 26
Width: 755
Flags: HMW
HStem: -10 85<305 435 305 462.5> 625 85<315 445>
VStem: 60 115<260 445 260 455> 580 115<260 445>
LayerCount: 2
Fore
SplineSet
148 610.5 m 128,-1,1
 236 710 236 710 383 710 c 128,-1,2
 530 710 530 710 612.5 616 c 128,-1,3
 695 522 695 522 695 358.5 c 128,-1,4
 695 195 695 195 603 92.5 c 128,-1,5
 511 -10 511 -10 364.5 -10 c 128,-1,6
 218 -10 218 -10 139 81.5 c 128,-1,7
 60 173 60 173 60 342 c 128,-1,0
 60 511 60 511 148 610.5 c 128,-1,1
380 625 m 0,8,9
 175 625 175 625 175 350 c 128,-1,10
 175 75 175 75 370 75 c 0,11,12
 470 75 470 75 525 145.5 c 128,-1,13
 580 216 580 216 580 355 c 0,14,15
 580 625 580 625 380 625 c 0,8,9
EndSplineSet
EndChar

StartChar: H
Encoding: 72 72 27
Width: 795
Flags: HMW
HStem: 0 80<125 125> 320 80<230 565 230 565> 620 80
VStem: 125 105<80 320 400 620> 565 105<80 320 320 320 400 620 80 620>
LayerCount: 2
Fore
SplineSet
325 60 m 1,0,-1
 325 0 l 1,1,-1
 40 0 l 1,2,-1
 40 60 l 1,3,-1
 125 80 l 1,4,-1
 125 620 l 1,5,-1
 40 640 l 1,6,-1
 40 695 l 1,7,-1
 325 700 l 1,8,-1
 325 640 l 1,9,-1
 230 620 l 1,10,-1
 230 400 l 1,11,-1
 565 400 l 1,12,-1
 565 620 l 1,13,-1
 470 640 l 1,14,-1
 470 695 l 1,15,-1
 755 700 l 1,16,-1
 755 640 l 1,17,-1
 670 620 l 1,18,-1
 670 80 l 1,19,-1
 755 60 l 1,20,-1
 755 0 l 1,21,-1
 470 0 l 1,22,-1
 470 60 l 1,23,-1
 565 80 l 1,24,-1
 565 320 l 1,25,-1
 230 320 l 1,26,-1
 230 80 l 1,27,-1
 325 60 l 1,0,-1
EndSplineSet
EndChar

StartChar: I
Encoding: 73 73 28
Width: 355
Flags: HMW
HStem: 0 80<125 125> 620 80
VStem: 125 105<80 620 80 620>
LayerCount: 2
Fore
SplineSet
315 60 m 1,0,-1
 315 0 l 1,1,-1
 40 0 l 1,2,-1
 40 60 l 1,3,-1
 125 80 l 1,4,-1
 125 620 l 1,5,-1
 40 640 l 1,6,-1
 40 695 l 1,7,-1
 315 700 l 1,8,-1
 315 640 l 1,9,-1
 230 620 l 1,10,-1
 230 80 l 1,11,-1
 315 60 l 1,0,-1
EndSplineSet
EndChar

StartChar: B
Encoding: 66 66 29
Width: 630
Flags: HMW
HStem: 0 80<125 125 225 325> 350 75 620 80<225 335 225 340>
VStem: 125 100<80 325 80 400 400 620> 460 105
LayerCount: 2
Fore
SplineSet
40 0 m 1,0,-1
 40 60 l 1,1,-1
 125 80 l 1,2,-1
 125 620 l 1,3,-1
 40 640 l 1,4,-1
 40 695 l 1,5,-1
 225 700 l 1,6,-1
 340 700 l 2,7,8
 438 700 438 700 496.5 656 c 128,-1,9
 555 612 555 612 555 525 c 0,10,11
 555 396 555 396 425 363 c 1,12,13
 502 345 502 345 541 303 c 128,-1,14
 580 261 580 261 580 200 c 0,15,16
 580 0 580 0 325 0 c 2,17,-1
 40 0 l 1,0,-1
225 325 m 1,18,-1
 225 80 l 1,19,-1
 330 80 l 2,20,21
 475 80 475 80 475 195 c 0,22,23
 475 267 475 267 431.5 296 c 128,-1,24
 388 325 388 325 300 325 c 2,25,-1
 225 325 l 1,18,-1
225 620 m 1,26,-1
 225 400 l 1,27,-1
 300 400 l 2,28,29
 370 400 370 400 410 428.5 c 128,-1,30
 450 457 450 457 450 511.5 c 0,31,32
 450 566 450 566 418 593 c 128,-1,33
 386 620 386 620 335 620 c 2,34,-1
 225 620 l 1,26,-1
EndSplineSet
EndChar

StartChar: C
Encoding: 67 67 30
Width: 645
Flags: HMW
HStem: -10 90<307.5 422.5 307.5 435> 625 85<297.5 402.5>
VStem: 40 115<250 432.5 250 450>
LayerCount: 2
Fore
SplineSet
520 491 m 1,0,-1
 493 605 l 1,1,2
 440 625 440 625 365 625 c 0,3,4
 264 625 264 625 209.5 551.5 c 128,-1,5
 155 478 155 478 155 344 c 128,-1,6
 155 210 155 210 213.5 145 c 128,-1,7
 272 80 272 80 370 80 c 0,8,9
 417 80 417 80 467 100 c 128,-1,10
 517 120 517 120 543.5 140 c 2,11,-1
 570 160 l 1,12,-1
 610 95 l 1,13,14
 544.483333333 29.4833333333 544.483333333 29.4833333333 443.5 1.5 c 0,15,16
 402 -10 402 -10 360 -10 c 0,17,18
 208 -10 208 -10 124 79 c 128,-1,19
 40 168 40 168 40 337.5 c 128,-1,20
 40 507 40 507 130.5 608.5 c 128,-1,21
 221 710 221 710 375 710 c 0,22,23
 424 710 424 710 480 697.5 c 128,-1,24
 536 685 536 685 568 672.5 c 2,25,-1
 600 660 l 1,26,-1
 595 491 l 1,27,-1
 520 491 l 1,0,-1
EndSplineSet
EndChar

StartChar: D
Encoding: 68 68 31
Width: 730
Flags: HMW
HStem: 0 80<145 145 250 360> 625 75
VStem: 145 105<80 620> 575 115<260 447.5>
LayerCount: 2
Fore
SplineSet
250 80 m 1,0,-1
 365 80 l 2,1,2
 463 80 463 80 519 148.5 c 128,-1,3
 575 217 575 217 575 353.5 c 0,4,5
 575 490 575 490 521 555 c 128,-1,6
 467 620 467 620 370 620 c 2,7,-1
 250 620 l 1,8,-1
 250 80 l 1,0,-1
60 0 m 1,9,-1
 60 60 l 1,10,-1
 145 80 l 1,11,-1
 145 620 l 1,12,-1
 60 640 l 1,13,-1
 60 695 l 1,14,-1
 250 700 l 1,15,-1
 375 700 l 2,16,17
 523 700 523 700 606.5 611.5 c 128,-1,18
 690 523 690 523 690 359 c 0,19,20
 690 195 690 195 600 97.5 c 128,-1,21
 510 0 510 0 360 0 c 2,22,-1
 60 0 l 1,9,-1
EndSplineSet
EndChar

StartChar: E
Encoding: 69 69 32
Width: 625
Flags: HMW
HStem: 0 80<145 145 250 480> 325 80<250 480 250 480> 621 79
VStem: 145 105<80 325 405 620> 470 85
LayerCount: 2
Fore
SplineSet
465 620 m 1,0,-1
 250 620 l 1,1,-1
 250 405 l 1,2,-1
 480 405 l 1,3,-1
 480 325 l 1,4,-1
 250 325 l 1,5,-1
 250 80 l 1,6,-1
 480 80 l 1,7,-1
 500 180 l 1,8,-1
 565 180 l 1,9,-1
 565 0 l 1,10,-1
 60 0 l 1,11,-1
 60 60 l 1,12,-1
 145 80 l 1,13,-1
 145 620 l 1,14,-1
 60 640 l 1,15,-1
 60 695 l 1,16,-1
 250 700 l 1,17,-1
 555 700 l 1,18,-1
 555 530 l 1,19,-1
 490 530 l 1,20,-1
 465 620 l 1,0,-1
EndSplineSet
EndChar

StartChar: F
Encoding: 70 70 33
Width: 570
Flags: HMW
HStem: 0 80<125 125> 315 80<230 460 230 460> 620 80<230 445 230 535>
VStem: 125 105<80 315 395 620>
LayerCount: 2
Fore
SplineSet
445 620 m 1,0,-1
 230 620 l 1,1,-1
 230 395 l 1,2,-1
 460 395 l 1,3,-1
 460 315 l 1,4,-1
 230 315 l 1,5,-1
 230 80 l 1,6,-1
 330 60 l 1,7,-1
 330 0 l 1,8,-1
 40 0 l 1,9,-1
 40 60 l 1,10,-1
 125 80 l 1,11,-1
 125 620 l 1,12,-1
 40 640 l 1,13,-1
 40 695 l 1,14,-1
 230 700 l 1,15,-1
 535 700 l 1,16,-1
 535 535 l 1,17,-1
 470 535 l 1,18,-1
 445 620 l 1,0,-1
EndSplineSet
EndChar

StartChar: G
Encoding: 71 71 34
Width: 751
Flags: HMW
HStem: -10 85<330 430 330 454.5> 285 60 625 85<317.5 422.5>
VStem: 60 115<250 432.5 250 450> 450 80 535 100<100 264 50 264>
LayerCount: 2
Fore
SplineSet
635 264 m 1,0,-1
 635 50 l 1,1,2
 623 43 623 43 601.5 33 c 128,-1,3
 580 23 580 23 513 6.5 c 128,-1,4
 446 -10 446 -10 380 -10 c 0,5,6
 228 -10 228 -10 144 79 c 128,-1,7
 60 168 60 168 60 337.5 c 128,-1,8
 60 507 60 507 150.5 608.5 c 128,-1,9
 241 710 241 710 395 710 c 0,10,11
 444 710 444 710 500 697.5 c 128,-1,12
 556 685 556 685 588 672.5 c 2,13,-1
 620 660 l 1,14,-1
 615 495 l 1,15,-1
 550 495 l 1,16,-1
 520 605 l 1,17,18
 460 625 460 625 385 625 c 0,19,20
 284 625 284 625 229.5 551.5 c 128,-1,21
 175 478 175 478 175 343.5 c 128,-1,22
 175 209 175 209 234.5 142 c 128,-1,23
 294 75 294 75 395 75 c 0,24,25
 453.75 75 453.75 75 515.5 94 c 2,26,-1
 535 100 l 1,27,-1
 535 264 l 1,28,-1
 450 284 l 1,29,-1
 450 339 l 1,30,-1
 710 344 l 1,31,-1
 710 284 l 1,32,-1
 635 264 l 1,0,-1
EndSplineSet
EndChar

StartChar: L
Encoding: 76 76 35
Width: 530
Flags: HMW
HStem: 0 80<120 120 225 430> 620 80
VStem: 120 105<80 620 80 620> 415 85
LayerCount: 2
Fore
SplineSet
225 620 m 1,0,-1
 225 80 l 1,1,-1
 430 80 l 1,2,-1
 450 195 l 1,3,-1
 520 195 l 1,4,-1
 520 0 l 1,5,-1
 35 0 l 1,6,-1
 35 60 l 1,7,-1
 120 80 l 1,8,-1
 120 620 l 1,9,-1
 35 640 l 1,10,-1
 35 695 l 1,11,-1
 310 700 l 1,12,-1
 310 640 l 1,13,-1
 225 620 l 1,0,-1
EndSplineSet
EndChar

StartChar: N
Encoding: 78 78 36
Width: 790
Flags: HMW
HStem: 0 80<125 125> 620 80
VStem: 125 90<80 551 80 620 80 620> 580 90<141 620 0 620>
LayerCount: 2
Fore
SplineSet
545 0 m 1,0,-1
 215 551 l 1,1,-1
 215 80 l 1,2,-1
 310 60 l 1,3,-1
 310 0 l 1,4,-1
 40 0 l 1,5,-1
 40 60 l 1,6,-1
 125 80 l 1,7,-1
 125 620 l 1,8,-1
 40 640 l 1,9,-1
 40 695 l 1,10,-1
 250 700 l 1,11,-1
 580 141 l 1,12,-1
 580 620 l 1,13,-1
 495 640 l 1,14,-1
 495 695 l 1,15,-1
 755 700 l 1,16,-1
 755 640 l 1,17,-1
 670 620 l 1,18,-1
 670 0 l 1,19,-1
 545 0 l 1,0,-1
EndSplineSet
EndChar

StartChar: J
Encoding: 74 74 37
Width: 359
Flags: HMW
HStem: -150 80<31.5 39 39 71.5 -11 104> 620 80
VStem: 130 105
LayerCount: 2
Fore
SplineSet
44 695 m 1,0,-1
 319 700 l 1,1,-1
 319 640 l 1,2,-1
 234 620 l 1,3,-1
 234 45 l 2,4,5
 234 -46 234 -46 183.5 -98 c 128,-1,6
 133 -150 133 -150 44 -150 c 1,7,-1
 -20 -145 l 1,8,-1
 -11 -70 l 1,9,-1
 39 -70 l 2,10,11
 129 -70 129 -70 129 25 c 2,12,-1
 129 620 l 1,13,-1
 44 640 l 1,14,-1
 44 695 l 1,0,-1
EndSplineSet
EndChar

StartChar: K
Encoding: 75 75 38
Width: 710
Flags: HMW
HStem: 0 80<125 125> 320 80<230 322 230 328 230 322> 620 80
VStem: 125 105<80 320 400 620>
LayerCount: 2
Fore
SplineSet
325 60 m 1,0,-1
 325 0 l 1,1,-1
 40 0 l 1,2,-1
 40 60 l 1,3,-1
 125 80 l 1,4,-1
 125 620 l 1,5,-1
 40 640 l 1,6,-1
 40 695 l 1,7,-1
 325 700 l 1,8,-1
 325 640 l 1,9,-1
 230 620 l 1,10,-1
 230 400 l 1,11,-1
 322 400 l 1,12,-1
 495 695 l 1,13,-1
 660 700 l 1,14,-1
 660 640 l 1,15,-1
 561 620 l 1,16,-1
 409 367 l 1,17,-1
 615 80 l 1,18,-1
 700 60 l 1,19,-1
 700 0 l 1,20,-1
 415 0 l 1,21,-1
 415 60 l 1,22,-1
 500 80 l 1,23,-1
 328 320 l 1,24,-1
 230 320 l 1,25,-1
 230 80 l 1,26,-1
 325 60 l 1,0,-1
EndSplineSet
EndChar

StartChar: M
Encoding: 77 77 39
Width: 875
Flags: HMW
HStem: 0 80<125 125> 620 80
VStem: 125 90<80 580 80 620 80 620> 660 90
LayerCount: 2
Fore
SplineSet
565 0 m 1,0,-1
 565 60 l 1,1,-1
 660 80 l 1,2,-1
 660 580 l 1,3,-1
 630 505 l 1,4,-1
 475 190 l 1,5,-1
 395 185 l 1,6,-1
 240 510 l 1,7,-1
 215 580 l 1,8,-1
 215 80 l 1,9,-1
 310 60 l 1,10,-1
 310 0 l 1,11,-1
 40 0 l 1,12,-1
 40 60 l 1,13,-1
 125 80 l 1,14,-1
 125 620 l 1,15,-1
 40 640 l 1,16,-1
 40 695 l 1,17,-1
 265 700 l 1,18,-1
 446 300 l 1,19,-1
 635 695 l 1,20,-1
 845 700 l 1,21,-1
 845 640 l 1,22,-1
 760 620 l 1,23,-1
 760 80 l 1,24,-1
 845 60 l 1,25,-1
 845 0 l 1,26,-1
 565 0 l 1,0,-1
EndSplineSet
EndChar

StartChar: P
Encoding: 80 80 40
Width: 590
Flags: HMW
HStem: 0 80<125 125> 270 80 620 80<230 330 230 335>
VStem: 125 105<80 260 80 340 340 620> 450 105
LayerCount: 2
Fore
SplineSet
40 0 m 1,0,-1
 40 60 l 1,1,-1
 125 80 l 1,2,-1
 125 620 l 1,3,-1
 40 640 l 1,4,-1
 40 695 l 1,5,-1
 230 700 l 1,6,-1
 335 700 l 2,7,8
 446 700 446 700 505.5 645 c 128,-1,9
 565 590 565 590 565 495 c 0,10,11
 565 380 565 380 494.5 320 c 128,-1,12
 424 260 424 260 295 260 c 2,13,-1
 230 260 l 1,14,-1
 230 80 l 1,15,-1
 315 60 l 1,16,-1
 315 0 l 1,17,-1
 40 0 l 1,0,-1
230 620 m 1,18,-1
 230 340 l 1,19,-1
 295 340 l 2,20,21
 460 340 460 340 460 480 c 0,22,23
 460 542 460 542 426 581 c 128,-1,24
 392 620 392 620 330 620 c 2,25,-1
 230 620 l 1,18,-1
EndSplineSet
EndChar

StartChar: Q
Encoding: 81 81 41
Width: 740
Flags: HMW
HStem: -185 85<672.5 697.5> -10 85 625 85<320 460>
VStem: 60 110<262.5 442.5 262.5 455> 595 110<270 442.5>
LayerCount: 2
Fore
SplineSet
785 -65 m 1,0,-1
 825 -125 l 1,1,2
 725 -185 725 -185 670 -185 c 0,3,4
 632 -185 632 -185 540 -130 c 1,5,-1
 341 -8 l 1,6,7
 206 2 206 2 133 92.5 c 128,-1,8
 60 183 60 183 60 346.5 c 128,-1,9
 60 510 60 510 152.5 610 c 128,-1,10
 245 710 245 710 394 710 c 128,-1,11
 543 710 543 710 624 616.5 c 128,-1,12
 705 523 705 523 705 360 c 0,13,14
 705 225 705 225 644 131 c 128,-1,15
 583 37 583 37 477 5 c 1,16,-1
 585 -60 l 1,17,18
 654 -100 654 -100 690 -100 c 0,19,20
 719.117647059 -100 719.117647059 -100 769 -73.5 c 2,21,-1
 785 -65 l 1,0,-1
390 625 m 0,22,23
 283 625 283 625 226.5 556 c 128,-1,24
 170 487 170 487 170 352 c 128,-1,25
 170 217 170 217 223 146 c 128,-1,26
 276 75 276 75 380.5 75 c 128,-1,27
 485 75 485 75 540 146 c 128,-1,28
 595 217 595 217 595 355 c 0,29,30
 595 625 595 625 390 625 c 0,22,23
EndSplineSet
EndChar

StartChar: S
Encoding: 83 83 42
Width: 598
Flags: HMW
HStem: -10 85 625 85<310 310>
VStem: 75 105 430 87
LayerCount: 2
Fore
SplineSet
150 205 m 1,0,-1
 170 100 l 1,1,2
 187.227722772 89.6633663366 187.227722772 89.6633663366 219.113861386 81.8316831683 c 128,-1,3
 251 74 251 74 280 75 c 0,4,5
 341 76 341 76 387.5 104 c 128,-1,6
 434 132 434 132 433 182 c 0,7,8
 432 218 432 218 405.5 243.5 c 128,-1,9
 379 269 379 269 339 282 c 128,-1,10
 299 295 299 295 253 313.5 c 128,-1,11
 207 332 207 332 167 352.5 c 128,-1,12
 127 373 127 373 100 413.5 c 128,-1,13
 73 454 73 454 72 511 c 0,14,15
 71 610 71 610 138.5 659 c 0,16,17
 239.193001222 732.095660147 239.193001222 732.095660147 404 701 c 0,18,19
 457 691 457 691 488.5 680.5 c 2,20,-1
 520 670 l 1,21,-1
 515 500 l 1,22,-1
 450 500 l 1,23,-1
 416 607 l 1,24,25
 362 625 362 625 304 624.5 c 128,-1,26
 246 624 246 624 211 596 c 128,-1,27
 176 568 176 568 177 532.5 c 128,-1,28
 178 497 178 497 198 474.5 c 128,-1,29
 218 452 218 452 249.5 437.5 c 128,-1,30
 281 423 281 423 319 410 c 128,-1,31
 357 397 357 397 395 381 c 128,-1,32
 433 365 433 365 464.5 344.5 c 128,-1,33
 496 324 496 324 516 289.5 c 128,-1,34
 536 255 536 255 537 209 c 0,35,36
 539 103 539 103 464.5 47 c 128,-1,37
 390 -9 390 -9 276 -11 c 0,38,39
 229 -11 229 -11 177.5 -1 c 128,-1,40
 126 9 126 9 98 19.5 c 2,41,-1
 70 30 l 1,42,-1
 70 205 l 1,43,-1
 150 205 l 1,0,-1
EndSplineSet
EndChar

StartChar: T
Encoding: 84 84 43
Width: 565
Flags: HMW
HStem: 0 80<230 230> 620 80<100 230 100 100 335 335 335 465>
VStem: 230 105<80 620 80 620>
LayerCount: 2
Fore
SplineSet
435 60 m 1,0,-1
 435 0 l 1,1,-1
 130 0 l 1,2,-1
 130 60 l 1,3,-1
 230 80 l 1,4,-1
 230 620 l 1,5,-1
 100 620 l 1,6,-1
 75 520 l 1,7,-1
 10 520 l 1,8,-1
 10 700 l 1,9,-1
 555 700 l 1,10,-1
 555 520 l 1,11,-1
 490 520 l 1,12,-1
 465 620 l 1,13,-1
 335 620 l 1,14,-1
 335 80 l 1,15,-1
 435 60 l 1,0,-1
EndSplineSet
EndChar

StartChar: U
Encoding: 85 85 44
Width: 790
Flags: HMW
HStem: -10 85<337.5 457.5 337.5 495> 620 77
VStem: 125 105<270 620> 560 105<285 620>
LayerCount: 2
Fore
SplineSet
665 620 m 1,0,-1
 665 285 l 2,1,2
 665 138 665 138 603 64 c 128,-1,3
 541 -10 541 -10 394 -10 c 0,4,5
 247 -10 247 -10 186 58.5 c 128,-1,6
 125 127 125 127 125 270 c 2,7,-1
 125 620 l 1,8,-1
 40 640 l 1,9,-1
 40 695 l 1,10,-1
 325 700 l 1,11,-1
 325 640 l 1,12,-1
 230 620 l 1,13,-1
 230 270 l 2,14,15
 230 160 230 160 268 117.5 c 128,-1,16
 306 75 306 75 397 75 c 0,17,18
 488 75 488 75 524 121.5 c 128,-1,19
 560 168 560 168 560 285 c 2,20,-1
 560 620 l 1,21,-1
 465 640 l 1,22,-1
 465 695 l 1,23,-1
 750 700 l 1,24,-1
 750 640 l 1,25,-1
 665 620 l 1,0,-1
EndSplineSet
EndChar

StartChar: A
Encoding: 65 65 45
Width: 725
Flags: HMW
HStem: 0 80 190 80<252 458 252 485 225 458> 680 20G<415 415>
LayerCount: 2
Fore
SplineSet
5 0 m 1,0,-1
 5 60 l 1,1,-1
 87 79 l 1,2,-1
 315 695 l 1,3,-1
 415 700 l 1,4,-1
 637 79 l 1,5,-1
 720 60 l 1,6,-1
 720 0 l 1,7,-1
 430 0 l 1,8,-1
 430 60 l 1,9,-1
 523 79 l 1,10,-1
 485 190 l 1,11,-1
 225 190 l 1,12,-1
 186 79 l 1,13,-1
 280 60 l 1,14,-1
 280 0 l 1,15,-1
 5 0 l 1,0,-1
357 571 m 1,16,-1
 252 270 l 1,17,-1
 458 270 l 1,18,-1
 357 571 l 1,16,-1
EndSplineSet
EndChar

StartChar: V
Encoding: 86 86 46
Width: 700
Flags: HMW
HStem: 0 21G<295 295 295 395> 620 80
LayerCount: 2
Fore
SplineSet
295 0 m 1,0,-1
 82 620 l 1,1,-1
 5 640 l 1,2,-1
 5 695 l 1,3,-1
 285 700 l 1,4,-1
 285 640 l 1,5,-1
 194 621 l 1,6,-1
 351 135 l 1,7,-1
 518 620 l 1,8,-1
 425 640 l 1,9,-1
 425 695 l 1,10,-1
 695 700 l 1,11,-1
 695 640 l 1,12,-1
 617 620 l 1,13,-1
 395 0 l 1,14,-1
 295 0 l 1,0,-1
EndSplineSet
EndChar

StartChar: Y
Encoding: 89 89 47
Width: 645
Flags: HMW
HStem: 0 80<270 270> 620 80<192 260>
VStem: 270 105<80 259 259 259>
LayerCount: 2
Fore
SplineSet
185 0 m 1,0,-1
 185 60 l 1,1,-1
 270 80 l 1,2,-1
 270 259 l 1,3,-1
 77 621 l 1,4,-1
 10 640 l 1,5,-1
 10 695 l 1,6,-1
 260 700 l 1,7,-1
 260 640 l 1,8,-1
 192 620 l 1,9,-1
 325 340 l 1,10,-1
 472 620 l 1,11,-1
 395 640 l 1,12,-1
 395 695 l 1,13,-1
 635 700 l 1,14,-1
 635 640 l 1,15,-1
 573 622 l 1,16,-1
 375 261 l 1,17,-1
 375 80 l 1,18,-1
 460 60 l 1,19,-1
 460 0 l 1,20,-1
 185 0 l 1,0,-1
EndSplineSet
EndChar

StartChar: W
Encoding: 87 87 48
Width: 1035
Flags: HMW
HStem: 0 20G 620 80
LayerCount: 2
Fore
SplineSet
250 0 m 1,0,-1
 83 620 l 1,1,-1
 5 640 l 1,2,-1
 5 695 l 1,3,-1
 285 700 l 1,4,-1
 285 640 l 1,5,-1
 198 620 l 1,6,-1
 305 167 l 1,7,-1
 470 695 l 1,8,-1
 565 700 l 1,9,-1
 727 156 l 1,10,-1
 851 620 l 1,11,-1
 760 640 l 1,12,-1
 760 695 l 1,13,-1
 1030 700 l 1,14,-1
 1030 640 l 1,15,-1
 951 620 l 1,16,-1
 775 0 l 1,17,-1
 665 0 l 1,18,-1
 516 568 l 1,19,-1
 485 455 l 1,20,-1
 350 0 l 1,21,-1
 250 0 l 1,0,-1
EndSplineSet
EndChar

StartChar: X
Encoding: 88 88 49
Width: 700
Flags: HMW
HStem: 0 80<190 190 190 275> 620 80<225 290>
VStem: 10 265<0 60 0 60> 415 265<640 695 695 695>
LayerCount: 2
Fore
SplineSet
10 0 m 1,0,-1
 10 60 l 1,1,-1
 75 75 l 1,2,-1
 285 355 l 1,3,-1
 100 620 l 1,4,-1
 25 640 l 1,5,-1
 25 695 l 1,6,-1
 290 700 l 1,7,-1
 290 640 l 1,8,-1
 225 620 l 1,9,-1
 355 430 l 1,10,-1
 485 620 l 1,11,-1
 415 640 l 1,12,-1
 415 695 l 1,13,-1
 680 700 l 1,14,-1
 680 640 l 1,15,-1
 590 620 l 1,16,-1
 410 360 l 1,17,-1
 605 80 l 1,18,-1
 690 60 l 1,19,-1
 690 0 l 1,20,-1
 420 0 l 1,21,-1
 420 60 l 1,22,-1
 480 75 l 1,23,-1
 340 280 l 1,24,-1
 190 80 l 1,25,-1
 275 60 l 1,26,-1
 275 0 l 1,27,-1
 10 0 l 1,0,-1
EndSplineSet
EndChar

StartChar: Z
Encoding: 90 90 50
Width: 615
Flags: HMW
HStem: 0 80<175 485 175 570> 620 80<160 440 160 160>
VStem: 70 65<520 700> 485 85<80 80>
LayerCount: 2
Fore
SplineSet
70 700 m 1,0,-1
 575 700 l 1,1,-1
 575 630 l 1,2,-1
 175 80 l 1,3,-1
 485 80 l 1,4,-1
 505 180 l 1,5,-1
 570 180 l 1,6,-1
 570 0 l 1,7,-1
 40 0 l 1,8,-1
 40 70 l 1,9,-1
 440 620 l 1,10,-1
 160 620 l 1,11,-1
 135 520 l 1,12,-1
 70 520 l 1,13,-1
 70 700 l 1,0,-1
EndSplineSet
EndChar

StartChar: zero
Encoding: 48 48 51
Width: 645
Flags: HMW
HStem: -10 85<277.5 382.5 277.5 415> 625 85<275 385>
VStem: 65 110 470 111
LayerCount: 2
Fore
SplineSet
335 710 m 0,0,1
 472 710 472 710 528.5 623.5 c 128,-1,2
 585 537 585 537 585 360 c 0,3,4
 585 -10 585 -10 325 -10 c 0,5,6
 70 -10 70 -10 70 350 c 128,-1,7
 70 710 70 710 335 710 c 0,0,1
442.5 560 m 128,-1,9
 410 625 410 625 329.5 625 c 128,-1,10
 249 625 249 625 214.5 558.5 c 128,-1,11
 180 492 180 492 180 350 c 0,12,13
 180 75 180 75 330 75 c 0,14,15
 407 75 407 75 441 144 c 128,-1,16
 475 213 475 213 475 354 c 128,-1,8
 475 495 475 495 442.5 560 c 128,-1,9
EndSplineSet
EndChar

StartChar: one
Encoding: 49 49 52
Width: 512
Flags: HMW
HStem: 0 83 680 20G<253 337 337 337>
VStem: 230 105
LayerCount: 2
Fore
SplineSet
487 85 m 1,0,-1
 487 0 l 1,1,-1
 78 0 l 1,2,-1
 78 85 l 1,3,-1
 232 85 l 1,4,-1
 232 585 l 1,5,-1
 62 475 l 1,6,-1
 20 547 l 1,7,-1
 253 700 l 1,8,-1
 337 700 l 1,9,-1
 337 85 l 1,10,-1
 487 85 l 1,0,-1
EndSplineSet
EndChar

StartChar: two
Encoding: 50 50 53
Width: 570
Flags: HMW
HStem: 0 85<45 45 185 520> 625 85<227.5 297.5>
VStem: 60 80<510 510> 380 120
LayerCount: 2
Fore
SplineSet
45 0 m 1,0,-1
 45 85 l 1,1,2
 243 262 243 262 316.5 347.5 c 128,-1,3
 390 433 390 433 390 510 c 0,4,5
 390 563 390 563 354 594 c 128,-1,6
 318 625 318 625 255 625 c 0,7,8
 206 625 206 625 164 610 c 2,9,-1
 150 605 l 1,10,-1
 140 510 l 1,11,-1
 60 510 l 1,12,-1
 55 670 l 1,13,14
 165 710 165 710 271.5 710 c 128,-1,15
 378 710 378 710 439 665.5 c 128,-1,16
 500 621 500 621 500 524 c 128,-1,17
 500 427 500 427 428 331.5 c 128,-1,18
 356 236 356 236 185 85 c 1,19,-1
 520 85 l 1,20,-1
 520 0 l 1,21,-1
 45 0 l 1,0,-1
EndSplineSet
EndChar

StartChar: three
Encoding: 51 51 54
Width: 550
Flags: HMW
HStem: -10 85<182.5 275 182.5 285> 325 80<140 215 140 220> 624 86
VStem: 45 95 360 105
LayerCount: 2
Fore
SplineSet
140 405 m 1,0,-1
 220 405 l 2,1,2
 289 405 289 405 329.5 435.5 c 128,-1,3
 370 466 370 466 370 518 c 128,-1,4
 370 570 370 570 335 597.5 c 128,-1,5
 300 625 300 625 240 625 c 0,6,7
 186 625 186 625 144 610 c 2,8,-1
 130 605 l 1,9,-1
 120 515 l 1,10,-1
 40 515 l 1,11,-1
 35 670 l 1,12,13
 145 710 145 710 248.5 710 c 128,-1,14
 352 710 352 710 413.5 667.5 c 128,-1,15
 475 625 475 625 475 535 c 0,16,17
 475 401 475 401 345 368 c 1,18,19
 412 354 412 354 451 309.5 c 128,-1,20
 490 265 490 265 490 208 c 128,-1,21
 490 151 490 151 466 106.5 c 128,-1,22
 442 62 442 62 402 37.5 c 0,23,24
 324.448979592 -10 324.448979592 -10 225 -10 c 0,25,26
 167 -10 167 -10 116 2.5 c 128,-1,27
 65 15 65 15 42.5 27.5 c 2,28,-1
 20 40 l 1,29,-1
 50 120 l 1,30,31
 135 75 135 75 230 75 c 0,32,33
 299 75 299 75 339.5 108.5 c 128,-1,34
 380 142 380 142 380 201.5 c 128,-1,35
 380 261 380 261 335.5 293 c 128,-1,36
 291 325 291 325 215 325 c 2,37,-1
 140 325 l 1,38,-1
 140 405 l 1,0,-1
EndSplineSet
EndChar

StartChar: four
Encoding: 52 52 55
Width: 610
Flags: HMW
HStem: 165 85<130 352 130 352 455 570> 695 20G<340 340>
VStem: 352 103<0 165 0 165 250 580 580 580>
LayerCount: 2
Fore
SplineSet
20 240 m 1,0,-1
 340 715 l 1,1,-1
 455 700 l 1,2,-1
 455 250 l 1,3,-1
 570 250 l 1,4,-1
 570 165 l 1,5,-1
 455 165 l 1,6,-1
 455 0 l 1,7,-1
 352 0 l 1,8,-1
 352 165 l 1,9,-1
 30 165 l 1,10,-1
 20 240 l 1,0,-1
352 580 m 1,11,-1
 130 250 l 1,12,-1
 352 250 l 1,13,-1
 352 580 l 1,11,-1
EndSplineSet
EndChar

StartChar: five
Encoding: 53 53 56
Width: 530
Flags: HMW
HStem: -10 85<177.5 262.5 177.5 290> 345 80<158 165> 615 85<167 449 167 167>
VStem: 75 100 365 110
LayerCount: 2
Fore
SplineSet
452 700 m 1,0,-1
 449 615 l 1,1,-1
 167 615 l 1,2,-1
 158 425 l 1,3,-1
 190 425 l 2,4,5
 325 425 325 425 402.5 367.5 c 128,-1,6
 480 310 480 310 480 215 c 0,7,8
 480 144 480 144 442 91 c 0,9,10
 369.58490566 -10 369.58490566 -10 230 -10 c 0,11,12
 172 -10 172 -10 119.5 2.5 c 128,-1,13
 67 15 67 15 43.5 27.5 c 2,14,-1
 20 40 l 1,15,-1
 50 120 l 1,16,17
 130 75 130 75 225 75 c 0,18,19
 285 75 285 75 327.5 110.5 c 128,-1,20
 370 146 370 146 370 211 c 128,-1,21
 370 276 370 276 315.5 310.5 c 128,-1,22
 261 345 261 345 165 345 c 2,23,-1
 60 345 l 1,24,-1
 73 700 l 1,25,-1
 452 700 l 1,0,-1
EndSplineSet
EndChar

StartChar: six
Encoding: 54 54 57
Width: 600
Flags: HMW
HStem: -10 85<275 355 275 380> 340 85 625 85<302.5 442.5>
VStem: 60 105<207.5 270 270 300 200 415> 450 105<167.5 255>
LayerCount: 2
Fore
SplineSet
425 710 m 0,0,1
 470 710 470 710 500 700 c 1,2,-1
 495 620 l 1,3,4
 465 625 465 625 418.5 625 c 128,-1,5
 372 625 372 625 332.5 611.5 c 128,-1,6
 293 598 293 598 267.5 576.5 c 128,-1,7
 242 555 242 555 223 528.5 c 128,-1,8
 204 502 204 502 194.5 476 c 0,9,10
 174.621848739 421.596638655 174.621848739 421.596638655 171.5 393.5 c 2,11,-1
 170 380 l 1,12,13
 193.793548387 397.84516129 193.793548387 397.84516129 244.896774194 413.922580645 c 128,-1,14
 296 430 296 430 340 430 c 0,15,16
 431 430 431 430 493 373.5 c 128,-1,17
 555 317 555 317 555 217.5 c 128,-1,18
 555 118 555 118 485 54 c 128,-1,19
 415 -10 415 -10 315 -10 c 0,20,21
 189 -10 189 -10 124.5 73.5 c 128,-1,22
 60 157 60 157 60 295 c 0,23,24
 60 482 60 482 153.5 596 c 128,-1,25
 247 710 247 710 425 710 c 0,0,1
165 300 m 1,26,-1
 165 270 l 2,27,28
 165 171 165 171 207.5 123 c 128,-1,29
 250 75 250 75 313 75 c 128,-1,30
 376 75 376 75 413 111 c 128,-1,31
 450 147 450 147 450 210 c 0,32,33
 450 345 450 345 310 345 c 0,34,35
 274 345 274 345 238 333.5 c 128,-1,36
 202 322 202 322 183.5 311 c 2,37,-1
 165 300 l 1,26,-1
EndSplineSet
EndChar

StartChar: seven
Encoding: 55 55 58
Width: 502
Flags: HMW
HStem: 0 21G<103 218 103 103> 610 90<100 368 100 100>
VStem: 5 75<515 700> 362 115
LayerCount: 2
Fore
SplineSet
5 700 m 1,0,-1
 485 700 l 1,1,-1
 485 625 l 1,2,-1
 218 0 l 1,3,-1
 103 0 l 1,4,-1
 368 610 l 1,5,-1
 100 610 l 1,6,-1
 80 515 l 1,7,-1
 5 515 l 1,8,-1
 5 700 l 1,0,-1
EndSplineSet
EndChar

StartChar: eight
Encoding: 56 56 59
Width: 590
Flags: HMW
HStem: -10 85 625 85<260 340>
VStem: 60 110 430 110<157.5 232.5>
LayerCount: 2
Fore
SplineSet
530 530 m 0,0,1
 530 495 530 495 516 465.5 c 128,-1,2
 502 436 502 436 479.5 417.5 c 0,3,4
 440.762886598 385.649484536 440.762886598 385.649484536 401 371 c 1,5,6
 466 344 466 344 503 304.5 c 128,-1,7
 540 265 540 265 540 200 c 0,8,9
 540 108 540 108 471 49 c 128,-1,10
 402 -10 402 -10 287 -10 c 128,-1,11
 172 -10 172 -10 111 45.5 c 128,-1,12
 50 101 50 101 50 190 c 0,13,14
 50 229 50 229 66.5 262 c 128,-1,15
 83 295 83 295 110 316.5 c 0,16,17
 157.804532578 354.566572238 157.804532578 354.566572238 188 367 c 1,18,19
 132 395 132 395 101 431 c 128,-1,20
 70 467 70 467 70 525 c 0,21,22
 70 616 70 616 134 663 c 128,-1,23
 198 710 198 710 307 710 c 128,-1,24
 416 710 416 710 473 660.5 c 128,-1,25
 530 611 530 611 530 530 c 0,0,1
430 195 m 0,26,27
 430 268.03125 430 268.03125 323 311.5 c 2,28,-1
 275 331 l 1,29,30
 160 278 160 278 160 195 c 0,31,32
 160 139 160 139 195.5 107.5 c 128,-1,33
 231 76 231 76 295 76 c 128,-1,34
 359 76 359 76 394.5 107.5 c 128,-1,35
 430 139 430 139 430 195 c 0,26,27
318 400 m 1,36,37
 425 442.8 425 442.8 425 525 c 0,38,39
 425 571 425 571 392 598 c 128,-1,40
 359 625 359 625 300 625 c 128,-1,41
 241 625 241 625 208 598 c 128,-1,42
 175 571 175 571 175 525 c 0,43,44
 175 474.042553191 175 474.042553191 220.5 445 c 0,45,46
 259.666666667 420 259.666666667 420 318 400 c 1,36,37
EndSplineSet
EndChar

StartChar: nine
Encoding: 57 57 60
Width: 600
Flags: HMW
HStem: -10 85<162.5 302.5> 275 85<245 310> 625 85<245 325>
VStem: 45 105<445 532.5 445 552.5> 435 105<405 435 435 492.5 285 502.5>
LayerCount: 2
Fore
SplineSet
180 -10 m 0,0,1
 136 -10 136 -10 100 0 c 1,2,-1
 105 80 l 1,3,4
 140 75 140 75 187 75 c 128,-1,5
 234 75 234 75 274 89 c 128,-1,6
 314 103 314 103 338.5 125 c 128,-1,7
 363 147 363 147 382 173.5 c 128,-1,8
 401 200 401 200 409.5 226.5 c 0,9,10
 426.821621622 280.502702703 426.821621622 280.502702703 429 311 c 2,11,-1
 430 325 l 1,12,13
 406.206451613 307.15483871 406.206451613 307.15483871 355.103225806 291.077419355 c 128,-1,14
 304 275 304 275 260 275 c 0,15,16
 169 275 169 275 107 329 c 128,-1,17
 45 383 45 383 45 484 c 128,-1,18
 45 585 45 585 114.5 647.5 c 128,-1,19
 184 710 184 710 285 710 c 0,20,21
 411 710 411 710 475.5 626.5 c 128,-1,22
 540 543 540 543 540 405 c 0,23,24
 540 217 540 217 448.5 103.5 c 128,-1,25
 357 -10 357 -10 180 -10 c 0,0,1
435 405 m 1,26,-1
 435 435 l 2,27,28
 435 531 435 531 392.5 578 c 128,-1,29
 350 625 350 625 287 625 c 128,-1,30
 224 625 224 625 187 589 c 128,-1,31
 150 553 150 553 150 490 c 0,32,33
 150 360 150 360 290 360 c 0,34,35
 326 360 326 360 362 371 c 128,-1,36
 398 382 398 382 416.5 393.5 c 2,37,-1
 435 405 l 1,26,-1
EndSplineSet
EndChar

StartChar: period
Encoding: 46 46 61
Width: 260
Flags: HMW
HStem: -10 140<112.5 147.5>
VStem: 65 130<37.5 82.5>
LayerCount: 2
Fore
SplineSet
82.5 8.5 m 128,-1,1
 65 27 65 27 65 59.5 c 128,-1,2
 65 92 65 92 83.5 111 c 128,-1,3
 102 130 102 130 131 130 c 128,-1,4
 160 130 160 130 177.5 111.5 c 128,-1,5
 195 93 195 93 195 60.5 c 128,-1,6
 195 28 195 28 176.5 9 c 128,-1,7
 158 -10 158 -10 129 -10 c 128,-1,0
 100 -10 100 -10 82.5 8.5 c 128,-1,1
EndSplineSet
EndChar

StartChar: tilde
Encoding: 732 732 62
Width: 565
Flags: HMW
HStem: 635 129<130 240 170 405>
LayerCount: 2
Fore
SplineSet
130 635 m 1,0,-1
 95 670 l 1,1,2
 100 680 l 2,3,4
 126.074074074 732.148148148 126.074074074 732.148148148 166.5 754 c 0,5,6
 185 764 185 764 213 764 c 128,-1,7
 241 764 241 764 293.5 741 c 128,-1,8
 346 718 346 718 369.5 718 c 128,-1,9
 393 718 393 718 409 728.5 c 128,-1,10
 425 739 425 739 432.5 749.5 c 2,11,-1
 440 760 l 1,12,-1
 475 725 l 1,13,14
 472.897959184 716.591836735 472.897959184 716.591836735 460.448979592 697.295918367 c 128,-1,15
 448 678 448 678 437 666 c 0,16,17
 408.583333333 635 408.583333333 635 371.291666667 635 c 128,-1,18
 334 635 334 635 281.5 657 c 128,-1,19
 229 679 229 679 205.5 679 c 128,-1,20
 182 679 182 679 164.5 668 c 128,-1,21
 147 657 147 657 138.5 646 c 2,22,-1
 130 635 l 1,0,-1
EndSplineSet
EndChar

StartChar: ntilde
Encoding: 241 241 63
Width: 665
Flags: HMW
HStem: 0 55<40 290 40 40> 455 85<358.5 402.5> 650 75
VStem: 125 100<80 375 80 450 80 450> 460 100<80 350 350 360 80 385>
LayerCount: 2
Fore
SplineSet
205 530 m 1,0,-1
 214 459 l 1,1,2
 232 474 232 474 255 490 c 128,-1,3
 278 506 278 506 320 523 c 128,-1,4
 362 540 362 540 400 540 c 0,5,6
 480 540 480 540 520 492.5 c 128,-1,7
 560 445 560 445 560 360 c 2,8,-1
 560 80 l 1,9,-1
 635 55 l 1,10,-1
 635 0 l 1,11,-1
 395 0 l 1,12,-1
 395 55 l 1,13,-1
 460 80 l 1,14,-1
 460 350 l 2,15,16
 460 404 460 404 439 429.5 c 128,-1,17
 418 455 418 455 375 455 c 128,-1,18
 332 455 332 455 296 435 c 128,-1,19
 260 415 260 415 242.5 395 c 2,20,-1
 225 375 l 1,21,-1
 225 80 l 1,22,-1
 290 55 l 1,23,-1
 290 0 l 1,24,-1
 40 0 l 1,25,-1
 40 55 l 1,26,-1
 125 80 l 1,27,-1
 125 450 l 1,28,-1
 40 470 l 1,29,-1
 40 525 l 1,30,-1
 205 530 l 1,0,-1
178 636 m 1,31,-1
 143 671 l 1,32,33
 145 675 145 675 147.5 681 c 128,-1,34
 150 687 150 687 160.5 703 c 128,-1,35
 171 719 171 719 182.5 731.5 c 128,-1,36
 194 744 194 744 213.5 754 c 128,-1,37
 233 764 233 764 261 764 c 128,-1,38
 289 764 289 764 340 741.5 c 128,-1,39
 391 719 391 719 413.5 719 c 0,40,41
 452 719 452 719 479 750.5 c 2,42,-1
 488 761 l 1,43,-1
 523 726 l 1,44,45
 520.897959184 717.591836735 520.897959184 717.591836735 508.448979592 698.295918367 c 128,-1,46
 496 679 496 679 484.5 667 c 128,-1,47
 473 655 473 655 454 645 c 128,-1,48
 435 635 435 635 407 635 c 128,-1,49
 379 635 379 635 328 657.5 c 128,-1,50
 277 680 277 680 253 680 c 128,-1,51
 229 680 229 680 211.5 669 c 128,-1,52
 194 658 194 658 186 647 c 2,53,-1
 178 636 l 1,31,-1
EndSplineSet
EndChar

StartChar: Ntilde
Encoding: 209 209 64
Width: 800
Flags: HMW
HStem: 0 80<130 130> 625 75
VStem: 130 90<80 551 80 620 80 620> 585 90<141 620 0 620>
LayerCount: 2
Fore
SplineSet
760 700 m 1,0,-1
 760 640 l 1,1,-1
 675 620 l 1,2,-1
 675 0 l 1,3,-1
 550 0 l 1,4,-1
 220 551 l 1,5,-1
 220 80 l 1,6,-1
 315 60 l 1,7,-1
 315 0 l 1,8,-1
 45 0 l 1,9,-1
 45 60 l 1,10,-1
 130 80 l 1,11,-1
 130 620 l 1,12,-1
 45 640 l 1,13,-1
 45 695 l 1,14,-1
 255 700 l 1,15,-1
 585 141 l 1,16,-1
 585 620 l 1,17,-1
 500 640 l 1,18,-1
 500 695 l 1,19,-1
 760 700 l 1,0,-1
235 766 m 1,20,-1
 200 796 l 1,21,22
 205 806 l 2,23,24
 231.074074074 858.148148148 231.074074074 858.148148148 271.5 880 c 0,25,26
 290 890 290 890 318 890 c 128,-1,27
 346 890 346 890 401 867 c 128,-1,28
 456 844 456 844 479.5 844 c 128,-1,29
 503 844 503 844 519 854.5 c 128,-1,30
 535 865 535 865 542.5 875.5 c 2,31,-1
 550 886 l 1,32,-1
 585 856 l 1,33,34
 582.897959184 847.591836735 582.897959184 847.591836735 570.448979592 828.295918367 c 128,-1,35
 558 809 558 809 547 797 c 0,36,37
 518.583333333 766 518.583333333 766 481.291666667 766 c 128,-1,38
 444 766 444 766 389 788 c 128,-1,39
 334 810 334 810 310.5 810 c 128,-1,40
 287 810 287 810 269.5 799 c 128,-1,41
 252 788 252 788 243.5 777 c 2,42,-1
 235 766 l 1,20,-1
EndSplineSet
EndChar

StartChar: comma
Encoding: 44 44 65
Width: 265
Flags: HMW
HStem: -160 290
VStem: 103 98
LayerCount: 2
Fore
SplineSet
81.5 21 m 128,-1,1
 70 44 70 44 70 68 c 128,-1,2
 70 92 70 92 88 111 c 128,-1,3
 106 130 106 130 135 130 c 0,4,5
 200 130 200 130 200 56 c 0,6,7
 200 -31 200 -31 85 -154 c 1,8,-1
 40 -116 l 1,9,10
 93 -46 93 -46 93 -10 c 0,11,0
 93 -2 93 -2 81.5 21 c 128,-1,1
EndSplineSet
EndChar

StartChar: semicolon
Encoding: 59 59 66
Width: 280
Flags: HMW
HStem: -160 290 315 140<121.5 156.5>
VStem: 74 130<362.5 407.5>
LayerCount: 2
Fore
SplineSet
90 -154 m 1,0,1
 205 -31 205 -31 205 56 c 0,2,3
 205 130 205 130 140 130 c 0,4,5
 111 130 111 130 93 111 c 128,-1,6
 75 92 75 92 75 68 c 0,7,8
 75 44 75 44 86.5 21 c 128,-1,9
 98 -2 98 -2 98 -14 c 0,10,11
 98 -26 98 -26 85 -52.5 c 128,-1,12
 72 -79 72 -79 58.5 -97.5 c 2,13,-1
 45 -116 l 1,14,-1
 90 -154 l 1,0,1
74 385 m 128,-1,16
 74 418 74 418 93 436.5 c 128,-1,17
 112 455 112 455 140.5 455 c 0,18,19
 169 455 169 455 186.5 436.5 c 128,-1,20
 204 418 204 418 204 385 c 128,-1,21
 204 352 204 352 185 333.5 c 128,-1,22
 166 315 166 315 137.5 315 c 0,23,24
 109 315 109 315 91.5 333.5 c 128,-1,15
 74 352 74 352 74 385 c 128,-1,16
EndSplineSet
EndChar

StartChar: exclam
Encoding: 33 33 67
Width: 320
Flags: HMW
HStem: -10 140<142.5 177.5>
VStem: 110 105
LayerCount: 2
Fore
SplineSet
220 750 m 1,0,-1
 205 250 l 1,1,-1
 120 245 l 1,2,-1
 105 750 l 1,3,-1
 220 750 l 1,0,-1
112.5 8.5 m 128,-1,5
 95 27 95 27 95 59.5 c 128,-1,6
 95 92 95 92 113.5 111 c 128,-1,7
 132 130 132 130 161 130 c 128,-1,8
 190 130 190 130 207.5 111.5 c 128,-1,9
 225 93 225 93 225 60.5 c 128,-1,10
 225 28 225 28 206.5 9 c 128,-1,11
 188 -10 188 -10 159 -10 c 128,-1,4
 130 -10 130 -10 112.5 8.5 c 128,-1,5
EndSplineSet
EndChar

StartChar: question
Encoding: 63 63 68
Width: 481
Flags: HMW
HStem: -10 140<178.5 213.5> 660 85<181 241>
VStem: 136 125 311 105<524.5 607.5>
LayerCount: 2
Fore
SplineSet
148.5 8.5 m 128,-1,1
 131 27 131 27 131 59.5 c 128,-1,2
 131 92 131 92 149.5 111 c 128,-1,3
 168 130 168 130 197 130 c 128,-1,4
 226 130 226 130 243.5 111.5 c 128,-1,5
 261 93 261 93 261 60.5 c 128,-1,6
 261 28 261 28 242.5 9 c 128,-1,7
 224 -10 224 -10 195 -10 c 128,-1,0
 166 -10 166 -10 148.5 8.5 c 128,-1,1
233 234 m 1,8,-1
 143 228 l 1,9,10
 134 296 134 296 134 323 c 128,-1,11
 134 350 134 350 152 374.5 c 128,-1,12
 170 399 170 399 196 421.5 c 128,-1,13
 222 444 222 444 248.5 467 c 0,14,15
 311 521.245283019 311 521.245283019 311 580 c 0,16,17
 311 660 311 660 206 660 c 0,18,19
 156.714285714 660 156.714285714 660 116 650.5 c 2,20,-1
 101 647 l 1,21,-1
 85 722 l 1,22,23
 151 745 151 745 211 745 c 0,24,25
 301 745 301 745 358.5 709 c 128,-1,26
 416 673 416 673 416 590 c 0,27,28
 416 539 416 539 387 493.5 c 128,-1,29
 358 448 358 448 323.5 420 c 0,30,31
 231 344.927536232 231 344.927536232 231 296 c 1,32,-1
 233 234 l 1,8,-1
EndSplineSet
EndChar

StartChar: exclamdown
Encoding: 161 161 69
Width: 315
Flags: HMW
HStem: 410 140<137.5 172.5>
VStem: 105 105
LayerCount: 2
Fore
SplineSet
202.5 531.5 m 128,-1,1
 220 513 220 513 220 480.5 c 128,-1,2
 220 448 220 448 201 429 c 128,-1,3
 182 410 182 410 153.5 410 c 128,-1,4
 125 410 125 410 107.5 428.5 c 128,-1,5
 90 447 90 447 90 479.5 c 128,-1,6
 90 512 90 512 109 531 c 128,-1,7
 128 550 128 550 156.5 550 c 128,-1,0
 185 550 185 550 202.5 531.5 c 128,-1,1
100 -210 m 1,8,-1
 115 290 l 1,9,-1
 200 295 l 1,10,-1
 215 -210 l 1,11,-1
 100 -210 l 1,8,-1
EndSplineSet
EndChar

StartChar: questiondown
Encoding: 191 191 70
Width: 476
Flags: HMW
HStem: -205 85<240 300 240 300> 410 140<267.5 302.5>
VStem: 65 105<-67.5 15.5 -67.5 25> 250 97<199.5 229 170.5 261>
LayerCount: 2
Fore
SplineSet
332.5 531.5 m 128,-1,1
 350 513 350 513 350 480.5 c 128,-1,2
 350 448 350 448 331 429 c 128,-1,3
 312 410 312 410 283.5 410 c 128,-1,4
 255 410 255 410 237.5 428.5 c 128,-1,5
 220 447 220 447 220 479.5 c 128,-1,6
 220 512 220 512 239 531 c 128,-1,7
 258 550 258 550 286.5 550 c 128,-1,0
 315 550 315 550 332.5 531.5 c 128,-1,1
248 306 m 1,8,-1
 338 312 l 1,9,10
 347 244 347 244 347 217 c 128,-1,11
 347 190 347 190 329 165.5 c 128,-1,12
 311 141 311 141 285 118.5 c 128,-1,13
 259 96 259 96 232.5 73 c 0,14,15
 170 18.7547169811 170 18.7547169811 170 -40 c 0,16,17
 170 -120 170 -120 275 -120 c 0,18,19
 324.285714286 -120 324.285714286 -120 365 -110.5 c 2,20,-1
 380 -107 l 1,21,-1
 396 -182 l 1,22,23
 330 -205 330 -205 270 -205 c 0,24,25
 180 -205 180 -205 122.5 -169 c 128,-1,26
 65 -133 65 -133 65 -50 c 0,27,28
 65 1 65 1 94 46.5 c 128,-1,29
 123 92 123 92 157.5 120 c 0,30,31
 250 195.072463768 250 195.072463768 250 244 c 1,32,-1
 248 306 l 1,8,-1
EndSplineSet
EndChar

StartChar: ellipsis
Encoding: 8230 8230 71
Width: 720
Flags: HMW
HStem: -10 140<102.5 137.5 342.5 377.5 582.5 617.5>
VStem: 55 130<37.5 82.5> 295 130<37.5 82.5> 535 130<37.5 82.5>
CounterMasks: 1 70
LayerCount: 2
Fore
SplineSet
72.5 8.5 m 128,-1,1
 55 27 55 27 55 59.5 c 128,-1,2
 55 92 55 92 73.5 111 c 128,-1,3
 92 130 92 130 121 130 c 128,-1,4
 150 130 150 130 167.5 111.5 c 128,-1,5
 185 93 185 93 185 60.5 c 128,-1,6
 185 28 185 28 166.5 9 c 128,-1,7
 148 -10 148 -10 119 -10 c 128,-1,0
 90 -10 90 -10 72.5 8.5 c 128,-1,1
312.5 8.5 m 128,-1,9
 295 27 295 27 295 59.5 c 128,-1,10
 295 92 295 92 313.5 111 c 128,-1,11
 332 130 332 130 361 130 c 128,-1,12
 390 130 390 130 407.5 111.5 c 128,-1,13
 425 93 425 93 425 60.5 c 128,-1,14
 425 28 425 28 406.5 9 c 128,-1,15
 388 -10 388 -10 359 -10 c 128,-1,8
 330 -10 330 -10 312.5 8.5 c 128,-1,9
552.5 8.5 m 128,-1,17
 535 27 535 27 535 59.5 c 128,-1,18
 535 92 535 92 553.5 111 c 128,-1,19
 572 130 572 130 601 130 c 128,-1,20
 630 130 630 130 647.5 111.5 c 128,-1,21
 665 93 665 93 665 60.5 c 128,-1,22
 665 28 665 28 646.5 9 c 128,-1,23
 628 -10 628 -10 599 -10 c 128,-1,16
 570 -10 570 -10 552.5 8.5 c 128,-1,17
EndSplineSet
EndChar

StartChar: endash
Encoding: 8211 8211 72
Width: 500
Flags: HMW
HStem: 285 80<0 500 0 500>
LayerCount: 2
Fore
SplineSet
0 285 m 1,0,-1
 0 365 l 1,1,-1
 500 365 l 1,2,-1
 500 285 l 1,3,-1
 0 285 l 1,0,-1
EndSplineSet
EndChar

StartChar: dotaccent
Encoding: 729 729 73
Width: 290
Flags: HMW
HStem: 640 120<130 160>
VStem: 90 110<681 719>
LayerCount: 2
Fore
SplineSet
90 700 m 128,-1,1
 90 728 90 728 106 744 c 128,-1,2
 122 760 122 760 146.5 760 c 0,3,4
 171 760 171 760 185.5 744 c 128,-1,5
 200 728 200 728 200 700 c 128,-1,6
 200 672 200 672 184 656 c 128,-1,7
 168 640 168 640 143.5 640 c 0,8,9
 119 640 119 640 104.5 656 c 128,-1,0
 90 672 90 672 90 700 c 128,-1,1
EndSplineSet
EndChar

StartChar: hyphen
Encoding: 45 45 74
Width: 375
Flags: HMW
HStem: 230 85<60 320 60 320>
LayerCount: 2
Fore
SplineSet
60 230 m 1,0,-1
 60 315 l 1,1,-1
 320 315 l 1,2,-1
 320 230 l 1,3,-1
 60 230 l 1,0,-1
EndSplineSet
EndChar

StartChar: dieresis
Encoding: 168 168 75
Width: 515
Flags: HMW
HStem: 640 120<140 170 345 375>
VStem: 100 110<681 719> 305 110<681 719>
LayerCount: 2
Fore
SplineSet
100 700 m 128,-1,1
 100 728 100 728 116 744 c 128,-1,2
 132 760 132 760 156.5 760 c 0,3,4
 181 760 181 760 195.5 744 c 128,-1,5
 210 728 210 728 210 700 c 128,-1,6
 210 672 210 672 194 656 c 128,-1,7
 178 640 178 640 153.5 640 c 0,8,9
 129 640 129 640 114.5 656 c 128,-1,0
 100 672 100 672 100 700 c 128,-1,1
305 700 m 128,-1,11
 305 728 305 728 321 744 c 128,-1,12
 337 760 337 760 361.5 760 c 0,13,14
 386 760 386 760 400.5 744 c 128,-1,15
 415 728 415 728 415 700 c 128,-1,16
 415 672 415 672 399 656 c 128,-1,17
 383 640 383 640 358.5 640 c 0,18,19
 334 640 334 640 319.5 656 c 128,-1,10
 305 672 305 672 305 700 c 128,-1,11
EndSplineSet
EndChar

StartChar: acute
Encoding: 180 180 76
Width: 420
Flags: HMW
HStem: 635 21G<130 130> 815 20G<275 275>
LayerCount: 2
Fore
SplineSet
325 760 m 1,0,-1
 130 635 l 1,1,-1
 90 690 l 1,2,-1
 275 835 l 1,3,-1
 325 760 l 1,0,-1
EndSplineSet
EndChar

StartChar: colon
Encoding: 58 58 77
Width: 280
Flags: HMW
HStem: -10 140<122.5 157.5> 315 140<122.5 157.5>
VStem: 75 130<37.5 82.5 362.5 407.5>
LayerCount: 2
Fore
SplineSet
92.5 8.5 m 128,-1,1
 75 27 75 27 75 59.5 c 128,-1,2
 75 92 75 92 93.5 111 c 128,-1,3
 112 130 112 130 141 130 c 128,-1,4
 170 130 170 130 187.5 111.5 c 128,-1,5
 205 93 205 93 205 60.5 c 128,-1,6
 205 28 205 28 186.5 9 c 128,-1,7
 168 -10 168 -10 139 -10 c 128,-1,0
 110 -10 110 -10 92.5 8.5 c 128,-1,1
75 385 m 128,-1,9
 75 418 75 418 93.5 436.5 c 128,-1,10
 112 455 112 455 141 455 c 128,-1,11
 170 455 170 455 187.5 436.5 c 128,-1,12
 205 418 205 418 205 385 c 128,-1,13
 205 352 205 352 186.5 333.5 c 128,-1,14
 168 315 168 315 139 315 c 128,-1,15
 110 315 110 315 92.5 333.5 c 128,-1,8
 75 352 75 352 75 385 c 128,-1,9
EndSplineSet
EndChar

StartChar: underscore
Encoding: 95 95 78
Width: 500
Flags: HMW
HStem: -165 85
LayerCount: 2
Fore
SplineSet
0 -150 m 1,0,-1
 0 -80 l 1,1,-1
 500 -80 l 1,2,-1
 500 -150 l 1,3,-1
 0 -150 l 1,0,-1
EndSplineSet
EndChar

StartChar: quotedbl
Encoding: 34 34 79
Width: 388
Flags: HMW
HStem: 520 250<65 140 65 160 237 312 65 237>
VStem: 65 96 237 95
LayerCount: 2
Fore
SplineSet
333 770 m 1,0,-1
 312 520 l 1,1,-1
 237 520 l 1,2,-1
 237 770 l 1,3,-1
 333 770 l 1,0,-1
160 770 m 1,4,-1
 140 520 l 1,5,-1
 65 520 l 1,6,-1
 65 770 l 1,7,-1
 160 770 l 1,4,-1
EndSplineSet
EndChar

StartChar: quotedblright
Encoding: 8221 8221 80
Width: 475
Flags: HMW
HStem: 486 21G 750 20G
VStem: 85 130<695.5 732> 280 130<695.5 732>
LayerCount: 2
Fore
SplineSet
55 534 m 1,0,1
 108 604 108 604 108 640 c 0,2,3
 108 648 108 648 96.5 671 c 128,-1,4
 85 694 85 694 85 718 c 0,5,6
 85 742 85 742 103 761 c 128,-1,7
 121 780 121 780 150 780 c 0,8,9
 215 780 215 780 215 706 c 0,10,11
 215 619 215 619 100 496 c 1,12,-1
 55 534 l 1,0,1
250 534 m 1,13,14
 303 604 303 604 303 640 c 0,15,16
 303 648 303 648 291.5 671 c 128,-1,17
 280 694 280 694 280 718 c 0,18,19
 280 742 280 742 298 761 c 128,-1,20
 316 780 316 780 345 780 c 0,21,22
 410 780 410 780 410 706 c 0,23,24
 410 619 410 619 295 496 c 1,25,-1
 250 534 l 1,13,14
EndSplineSet
EndChar

StartChar: quotedblleft
Encoding: 8220 8220 81
Width: 475
Flags: HMW
HStem: 491 21G 755 20G
VStem: 65 129 260 107<542 654>
LayerCount: 2
Fore
SplineSet
378.5 605 m 128,-1,1
 390 582 390 582 390 558 c 128,-1,2
 390 534 390 534 372 515 c 128,-1,3
 354 496 354 496 325 496 c 0,4,5
 260 496 260 496 260 570 c 0,6,7
 260 657 260 657 375 780 c 1,8,-1
 420 742 l 1,9,10
 367 672 367 672 367 636 c 0,11,0
 367 628 367 628 378.5 605 c 128,-1,1
183.5 605 m 128,-1,13
 195 582 195 582 195 558 c 128,-1,14
 195 534 195 534 177 515 c 128,-1,15
 159 496 159 496 130 496 c 0,16,17
 65 496 65 496 65 570 c 0,18,19
 65 657 65 657 180 780 c 1,20,-1
 225 742 l 1,21,22
 172 672 172 672 172 636 c 0,23,12
 172 628 172 628 183.5 605 c 128,-1,13
EndSplineSet
EndChar

StartChar: aacute
Encoding: 225 225 82
Width: 565
Flags: HMW
HStem: -10 80<197.5 230> 230 65<275 285 285 355> 465 75<230 290> 595 21G<195 195> 780 20G<355 355>
VStem: 45 100 355 100<150 230 230 230 295 375 375 385 80 405>
LayerCount: 2
Fore
SplineSet
535 5 m 1,0,-1
 380 0 l 1,1,-1
 359 70 l 1,2,3
 279 -10 279 -10 201.5 -10 c 128,-1,4
 124 -10 124 -10 84.5 29.5 c 128,-1,5
 45 69 45 69 45 140 c 0,6,7
 45 295 45 295 275 295 c 2,8,-1
 355 295 l 1,9,-1
 355 375 l 2,10,11
 355 465 355 465 260 465 c 0,12,13
 204 465 204 465 171 454 c 2,14,-1
 159 450 l 1,15,-1
 145 375 l 1,16,-1
 80 375 l 1,17,-1
 75 500 l 1,18,19
 185 540 185 540 273 540 c 128,-1,20
 361 540 361 540 408 504 c 128,-1,21
 455 468 455 468 455 385 c 2,22,-1
 455 80 l 1,23,-1
 535 60 l 1,24,-1
 535 5 l 1,0,-1
178.5 210 m 128,-1,26
 147 190 147 190 147 150.5 c 128,-1,27
 147 111 147 111 166.5 90.5 c 128,-1,28
 186 70 186 70 219.5 70 c 128,-1,29
 253 70 253 70 287 90 c 128,-1,30
 321 110 321 110 338 130 c 2,31,-1
 355 150 l 1,32,-1
 355 230 l 1,33,-1
 285 230 l 2,34,25
 210 230 210 230 178.5 210 c 128,-1,26
405 725 m 1,35,-1
 195 595 l 1,36,-1
 160 645 l 1,37,-1
 355 800 l 1,38,-1
 405 725 l 1,35,-1
EndSplineSet
EndChar

StartChar: eacute
Encoding: 233 233 83
Width: 530
Flags: HMW
HStem: -10 80<247 340 247 340> 250 75<145 389> 460 80 595 21G<210 210> 780 20G<370 370>
VStem: 40 105<195 250 195 340> 389 106<325 362.5>
LayerCount: 2
Fore
SplineSet
490 252 m 1,0,-1
 145 250 l 1,1,2
 145 168 145 168 185 119 c 128,-1,3
 225 70 225 70 290 70 c 0,4,5
 334 70 334 70 376 84 c 128,-1,6
 418 98 418 98 438 111.5 c 2,7,-1
 458 125 l 1,8,-1
 493 73 l 1,9,10
 483 64 483 64 464 50 c 128,-1,11
 445 36 445 36 389 13 c 128,-1,12
 333 -10 333 -10 280 -10 c 0,13,14
 162 -10 162 -10 101 61.5 c 128,-1,15
 40 133 40 133 40 257 c 0,16,17
 40 381 40 381 108.5 460.5 c 128,-1,18
 177 540 177 540 285 540 c 0,19,20
 495 540 495 540 495 305 c 1,21,-1
 490 252 l 1,0,-1
149 325 m 1,22,-1
 389 325 l 1,23,24
 389 386 389 386 363 424 c 128,-1,25
 337 462 337 462 279.5 462 c 0,26,27
 222 462 222 462 188 423 c 128,-1,28
 154 384 154 384 149 325 c 1,22,-1
420 725 m 1,29,-1
 210 595 l 1,30,-1
 175 645 l 1,31,-1
 370 800 l 1,32,-1
 420 725 l 1,29,-1
EndSplineSet
EndChar

StartChar: iacute
Encoding: 237 237 84
Width: 335
Flags: HMW
HStem: 0 21G<40 300 40 40> 790 20G<260 260>
VStem: 125 100<80 450 450 450>
LayerCount: 2
Fore
SplineSet
225 530 m 1,0,-1
 225 80 l 1,1,-1
 300 55 l 1,2,-1
 300 0 l 1,3,-1
 40 0 l 1,4,-1
 40 55 l 1,5,-1
 125 80 l 1,6,-1
 125 450 l 1,7,-1
 40 470 l 1,8,-1
 40 525 l 1,9,-1
 225 530 l 1,0,-1
310 735 m 1,10,-1
 100 605 l 1,11,-1
 65 655 l 1,12,-1
 260 810 l 1,13,-1
 310 735 l 1,10,-1
EndSplineSet
EndChar

StartChar: oacute
Encoding: 243 243 85
Width: 570
Flags: HMW
HStem: -10 80<235 335 235 355> 460 80<240 340> 595 21G<215 215> 780 20G<375 375>
VStem: 40 105<205 330 205 345> 425 105<205 325>
LayerCount: 2
Fore
SplineSet
111 463.5 m 128,-1,1
 182 540 182 540 294 540 c 128,-1,2
 406 540 406 540 468 468.5 c 128,-1,3
 530 397 530 397 530 272 c 128,-1,4
 530 147 530 147 461 68.5 c 128,-1,5
 392 -10 392 -10 279 -10 c 128,-1,6
 166 -10 166 -10 103 58.5 c 128,-1,7
 40 127 40 127 40 257 c 128,-1,0
 40 387 40 387 111 463.5 c 128,-1,1
290 460 m 0,8,9
 145 460 145 460 145 265 c 128,-1,10
 145 70 145 70 285 70 c 0,11,12
 358 70 358 70 391.5 120 c 128,-1,13
 425 170 425 170 425 270 c 0,14,15
 425 460 425 460 290 460 c 0,8,9
425 725 m 1,16,-1
 215 595 l 1,17,-1
 180 645 l 1,18,-1
 375 800 l 1,19,-1
 425 725 l 1,16,-1
EndSplineSet
EndChar

StartChar: uacute
Encoding: 250 250 86
Width: 650
Flags: HMW
HStem: -10 85<262.5 306> 470 60 595 21G<250 250> 780 20G<410 410>
VStem: 105 100<169 179 179 450 450 450> 440 100<154 450 450 450>
LayerCount: 2
Fore
SplineSet
540 530 m 1,0,-1
 540 80 l 1,1,-1
 625 60 l 1,2,-1
 625 5 l 1,3,-1
 460 0 l 1,4,-1
 450 70 l 1,5,6
 407.923753666 32.8739002933 407.923753666 32.8739002933 354.961876833 11.4369501466 c 128,-1,7
 302 -10 302 -10 265 -10 c 0,8,9
 185 -10 185 -10 145 37 c 128,-1,10
 105 84 105 84 105 169 c 2,11,-1
 105 450 l 1,12,-1
 20 470 l 1,13,-1
 20 525 l 1,14,-1
 205 530 l 1,15,-1
 205 179 l 2,16,17
 205 126 205 126 226 100.5 c 128,-1,18
 247 75 247 75 290 75 c 128,-1,19
 333 75 333 75 369 95 c 128,-1,20
 405 115 405 115 422.5 134.5 c 2,21,-1
 440 154 l 1,22,-1
 440 450 l 1,23,-1
 355 470 l 1,24,-1
 355 525 l 1,25,-1
 540 530 l 1,0,-1
460 725 m 1,26,-1
 250 595 l 1,27,-1
 215 645 l 1,28,-1
 410 800 l 1,29,-1
 460 725 l 1,26,-1
EndSplineSet
EndChar

StartChar: macron
Encoding: 175 175 87
Width: 350
Flags: HMW
HStem: 660 75<40 310 40 310>
LayerCount: 2
Fore
SplineSet
40 660 m 1,0,-1
 40 735 l 1,1,-1
 310 735 l 1,2,-1
 310 660 l 1,3,-1
 40 660 l 1,0,-1
EndSplineSet
EndChar

StartChar: grave.x
Encoding: 65537 -1 88
Width: 320
Flags: HMW
HStem: 600 21G<255 255> 785 20G<95 95>
LayerCount: 2
Fore
SplineSet
255 600 m 1,0,-1
 45 730 l 1,1,-1
 95 805 l 1,2,-1
 290 650 l 1,3,-1
 255 600 l 1,0,-1
EndSplineSet
EndChar

StartChar: egrave
Encoding: 232 232 89
Width: 530
Flags: HMW
HStem: -10 80<247 340 247 340> 250 75<145 389> 460 80 595 21G<345 345> 780 20G<185 185>
VStem: 40 105<195 250 195 340> 389 106<325 362.5>
LayerCount: 2
Fore
SplineSet
490 252 m 1,0,-1
 145 250 l 1,1,2
 145 168 145 168 185 119 c 128,-1,3
 225 70 225 70 290 70 c 0,4,5
 334 70 334 70 376 84 c 128,-1,6
 418 98 418 98 438 111.5 c 2,7,-1
 458 125 l 1,8,-1
 493 73 l 1,9,10
 483 64 483 64 464 50 c 128,-1,11
 445 36 445 36 389 13 c 128,-1,12
 333 -10 333 -10 280 -10 c 0,13,14
 162 -10 162 -10 101 61.5 c 128,-1,15
 40 133 40 133 40 257 c 0,16,17
 40 381 40 381 108.5 460.5 c 128,-1,18
 177 540 177 540 285 540 c 0,19,20
 495 540 495 540 495 305 c 1,21,-1
 490 252 l 1,0,-1
149 325 m 1,22,-1
 389 325 l 1,23,24
 389 386 389 386 363 424 c 128,-1,25
 337 462 337 462 279.5 462 c 0,26,27
 222 462 222 462 188 423 c 128,-1,28
 154 384 154 384 149 325 c 1,22,-1
345 595 m 1,29,-1
 135 725 l 1,30,-1
 185 800 l 1,31,-1
 380 645 l 1,32,-1
 345 595 l 1,29,-1
EndSplineSet
EndChar

StartChar: ugrave
Encoding: 249 249 90
Width: 650
Flags: HMW
HStem: -10 85<262.5 306> 470 60 595 21G<385 385> 780 20G<225 225>
VStem: 105 100<169 179 179 450 450 450> 440 100<154 450 450 450>
LayerCount: 2
Fore
SplineSet
385 595 m 1,0,-1
 175 725 l 1,1,-1
 225 800 l 1,2,-1
 420 645 l 1,3,-1
 385 595 l 1,0,-1
540 530 m 1,4,-1
 540 80 l 1,5,-1
 625 60 l 1,6,-1
 625 5 l 1,7,-1
 460 0 l 1,8,-1
 450 70 l 1,9,10
 407.923753666 32.8739002933 407.923753666 32.8739002933 354.961876833 11.4369501466 c 128,-1,11
 302 -10 302 -10 265 -10 c 0,12,13
 185 -10 185 -10 145 37 c 128,-1,14
 105 84 105 84 105 169 c 2,15,-1
 105 450 l 1,16,-1
 20 470 l 1,17,-1
 20 525 l 1,18,-1
 205 530 l 1,19,-1
 205 179 l 2,20,21
 205 126 205 126 226 100.5 c 128,-1,22
 247 75 247 75 290 75 c 128,-1,23
 333 75 333 75 369 95 c 128,-1,24
 405 115 405 115 422.5 134.5 c 2,25,-1
 440 154 l 1,26,-1
 440 450 l 1,27,-1
 355 470 l 1,28,-1
 355 525 l 1,29,-1
 540 530 l 1,4,-1
EndSplineSet
EndChar

StartChar: agrave
Encoding: 224 224 91
Width: 565
Flags: HMW
HStem: -10 80<197.5 230> 230 65<275 285 285 355> 465 75<230 290> 595 21G<345 345> 780 20G<185 185>
VStem: 45 100 355 100<150 230 230 230 295 375 375 385 80 405>
LayerCount: 2
Fore
SplineSet
535 5 m 1,0,-1
 380 0 l 1,1,-1
 359 70 l 1,2,3
 279 -10 279 -10 201.5 -10 c 128,-1,4
 124 -10 124 -10 84.5 29.5 c 128,-1,5
 45 69 45 69 45 140 c 0,6,7
 45 295 45 295 275 295 c 2,8,-1
 355 295 l 1,9,-1
 355 375 l 2,10,11
 355 465 355 465 260 465 c 0,12,13
 204 465 204 465 171 454 c 2,14,-1
 159 450 l 1,15,-1
 145 375 l 1,16,-1
 80 375 l 1,17,-1
 75 500 l 1,18,19
 185 540 185 540 273 540 c 128,-1,20
 361 540 361 540 408 504 c 128,-1,21
 455 468 455 468 455 385 c 2,22,-1
 455 80 l 1,23,-1
 535 60 l 1,24,-1
 535 5 l 1,0,-1
178.5 210 m 128,-1,26
 147 190 147 190 147 150.5 c 128,-1,27
 147 111 147 111 166.5 90.5 c 128,-1,28
 186 70 186 70 219.5 70 c 128,-1,29
 253 70 253 70 287 90 c 128,-1,30
 321 110 321 110 338 130 c 2,31,-1
 355 150 l 1,32,-1
 355 230 l 1,33,-1
 285 230 l 2,34,25
 210 230 210 230 178.5 210 c 128,-1,26
345 595 m 1,35,-1
 135 725 l 1,36,-1
 185 800 l 1,37,-1
 380 645 l 1,38,-1
 345 595 l 1,35,-1
EndSplineSet
EndChar

StartChar: igrave
Encoding: 236 236 92
Width: 335
Flags: HMW
HStem: 0 21G<40 300 40 40> 780 20G<65 65>
VStem: 125 100<80 450 450 450>
LayerCount: 2
Fore
SplineSet
225 530 m 1,0,-1
 225 80 l 1,1,-1
 300 55 l 1,2,-1
 300 0 l 1,3,-1
 40 0 l 1,4,-1
 40 55 l 1,5,-1
 125 80 l 1,6,-1
 125 450 l 1,7,-1
 40 470 l 1,8,-1
 40 525 l 1,9,-1
 225 530 l 1,0,-1
225 595 m 1,10,-1
 15 725 l 1,11,-1
 65 800 l 1,12,-1
 260 645 l 1,13,-1
 225 595 l 1,10,-1
EndSplineSet
EndChar

StartChar: ograve
Encoding: 242 242 93
Width: 570
Flags: HMW
HStem: -10 80<235 335 235 355> 460 80<240 340> 595 21G<355 355> 780 20G<195 195>
VStem: 40 105<205 330 205 345> 425 105<205 325>
LayerCount: 2
Fore
SplineSet
111 463.5 m 128,-1,1
 182 540 182 540 294 540 c 128,-1,2
 406 540 406 540 468 468.5 c 128,-1,3
 530 397 530 397 530 272 c 128,-1,4
 530 147 530 147 461 68.5 c 128,-1,5
 392 -10 392 -10 279 -10 c 128,-1,6
 166 -10 166 -10 103 58.5 c 128,-1,7
 40 127 40 127 40 257 c 128,-1,0
 40 387 40 387 111 463.5 c 128,-1,1
290 460 m 0,8,9
 145 460 145 460 145 265 c 128,-1,10
 145 70 145 70 285 70 c 0,11,12
 358 70 358 70 391.5 120 c 128,-1,13
 425 170 425 170 425 270 c 0,14,15
 425 460 425 460 290 460 c 0,8,9
355 595 m 1,16,-1
 145 725 l 1,17,-1
 195 800 l 1,18,-1
 390 645 l 1,19,-1
 355 595 l 1,16,-1
EndSplineSet
EndChar

StartChar: fi
Encoding: 64257 64257 94
Width: 715
Flags: HMW
HStem: 0 21G<75 342 75 75 430 680 430 430> 450 77 704 76
VStem: 160 100<80 450 80 450 525 575 575 595> 505 100<80 450 450 450>
LayerCount: 2
Fore
SplineSet
70 450 m 1,0,-1
 70 515 l 1,1,-1
 160 525 l 1,2,-1
 160 575 l 2,3,4
 160 678 160 678 216 729 c 128,-1,5
 272 780 272 780 390 780 c 0,6,7
 437 780 437 780 487 771.5 c 128,-1,8
 537 763 537 763 563.5 754.5 c 2,9,-1
 590 746 l 1,10,-1
 590 625 l 1,11,-1
 510 625 l 1,12,-1
 495 697 l 1,13,14
 450 705 450 705 395 705 c 0,15,16
 260 705 260 705 260 595 c 2,17,-1
 260 525 l 1,18,-1
 605 530 l 1,19,-1
 605 80 l 1,20,-1
 680 55 l 1,21,-1
 680 0 l 1,22,-1
 430 0 l 1,23,-1
 430 55 l 1,24,-1
 505 80 l 1,25,-1
 505 450 l 1,26,-1
 260 450 l 1,27,-1
 260 80 l 1,28,-1
 342 55 l 1,29,-1
 342 0 l 1,30,-1
 75 0 l 1,31,-1
 75 55 l 1,32,-1
 160 80 l 1,33,-1
 160 450 l 1,34,-1
 70 450 l 1,0,-1
EndSplineSet
EndChar

StartChar: plus
Encoding: 43 43 95
Width: 620
Flags: HMW
HStem: 0 21G<268 353 268 268> 225 80<50 268 50 268 353 570> 510 20G<268 353 353 353>
VStem: 268 85<0 225 0 225 305 530>
LayerCount: 2
Fore
SplineSet
50 225 m 1,0,-1
 50 305 l 1,1,-1
 268 305 l 1,2,-1
 268 530 l 1,3,-1
 353 530 l 1,4,-1
 353 305 l 1,5,-1
 570 305 l 1,6,-1
 570 225 l 1,7,-1
 353 225 l 1,8,-1
 353 0 l 1,9,-1
 268 0 l 1,10,-1
 268 225 l 1,11,-1
 50 225 l 1,0,-1
EndSplineSet
EndChar

StartChar: minus
Encoding: 8722 8722 96
Width: 580
Flags: HMW
HStem: 230 80<50 530 50 530>
LayerCount: 2
Fore
SplineSet
50 230 m 1,0,-1
 50 310 l 1,1,-1
 530 310 l 1,2,-1
 530 230 l 1,3,-1
 50 230 l 1,0,-1
EndSplineSet
EndChar

StartChar: slash
Encoding: 47 47 97
Width: 506
Flags: HMW
HStem: 0 21G<40 40 40 145> 680 20G<371 476 476 476>
LayerCount: 2
Fore
SplineSet
40 0 m 1,0,-1
 371 700 l 1,1,-1
 476 700 l 1,2,-1
 145 0 l 1,3,-1
 40 0 l 1,0,-1
EndSplineSet
EndChar

StartChar: multiply
Encoding: 215 215 98
Width: 600
Flags: HMW
HStem: 25 54 449 56
LayerCount: 2
Fore
SplineSet
60 449 m 1,0,-1
 116 505 l 1,1,-1
 300 321 l 1,2,-1
 484 505 l 1,3,-1
 540 449 l 1,4,-1
 356 265 l 1,5,-1
 540 81 l 1,6,-1
 484 25 l 1,7,-1
 300 209 l 1,8,-1
 116 25 l 1,9,-1
 60 81 l 1,10,-1
 244 265 l 1,11,-1
 60 449 l 1,0,-1
EndSplineSet
EndChar

StartChar: brokenbar
Encoding: 166 166 99
Width: 300
Flags: HMW
HStem: -265 21G<105 185 105 105> 745 20G<105 185 185 185>
VStem: 105 80<-265 145 365 765>
LayerCount: 2
Fore
SplineSet
185 365 m 1,0,-1
 105 365 l 1,1,-1
 105 765 l 1,2,-1
 185 765 l 1,3,-1
 185 365 l 1,0,-1
185 -265 m 1,4,-1
 105 -265 l 1,5,-1
 105 145 l 1,6,-1
 185 145 l 1,7,-1
 185 -265 l 1,4,-1
EndSplineSet
EndChar

StartChar: Eth
Encoding: 208 208 100
Width: 733
Flags: HMW
HStem: 0 80<145 145 249 363> 625 75
VStem: 145 105<409 700 620 700> 575 115
LayerCount: 2
Fore
SplineSet
60 330 m 1,0,-1
 60 409 l 1,1,-1
 145 409 l 1,2,-1
 145 620 l 1,3,-1
 60 640 l 1,4,-1
 60 695 l 1,5,-1
 250 700 l 1,6,-1
 378 700 l 2,7,8
 526 700 526 700 609.5 611.5 c 128,-1,9
 693 523 693 523 693 359 c 0,10,11
 693 195 693 195 603 97.5 c 128,-1,12
 513 0 513 0 363 0 c 2,13,-1
 60 0 l 1,14,-1
 60 60 l 1,15,-1
 145 80 l 1,16,-1
 145 330 l 1,17,-1
 60 330 l 1,0,-1
249 620 m 1,18,-1
 249 409 l 1,19,-1
 405 409 l 1,20,-1
 405 330 l 1,21,-1
 249 330 l 1,22,-1
 249 80 l 1,23,-1
 368 80 l 2,24,25
 466 80 466 80 522 148.5 c 128,-1,26
 578 217 578 217 578 353.5 c 0,27,28
 578 490 578 490 524 555 c 128,-1,29
 470 620 470 620 373 620 c 2,30,-1
 249 620 l 1,18,-1
EndSplineSet
EndChar

StartChar: eth
Encoding: 240 240 101
Width: 595
Flags: HMW
HStem: -10 80<242.5 340 242.5 360> 435 80<245 315.5 215 345> 763 20G<170 170 430 430>
VStem: 45 105<195 310 195 330> 440 105
LayerCount: 2
Fore
SplineSet
471 727 m 1,0,-1
 377 676 l 1,1,2
 535 533 535 533 535 265 c 0,3,4
 535 141 535 141 466 65.5 c 128,-1,5
 397 -10 397 -10 284.5 -10 c 0,6,7
 172 -10 172 -10 108.5 56 c 128,-1,8
 45 122 45 122 45 247 c 0,9,10
 45 372 45 372 111 443.5 c 128,-1,11
 177 515 177 515 290 515 c 0,12,13
 359 515 359 515 413 473 c 1,14,15
 377 572 377 572 301 635 c 1,16,-1
 170 565 l 1,17,-1
 130 620 l 1,18,-1
 238 678 l 1,19,20
 195 702 195 702 140 720 c 1,21,-1
 170 783 l 1,22,23
 251 764 251 764 318 722 c 1,24,-1
 430 783 l 1,25,-1
 471 727 l 1,0,-1
295 435 m 0,26,27
 150 435 150 435 150 250 c 0,28,29
 150 165 150 165 185 117.5 c 128,-1,30
 220 70 220 70 291.5 70 c 0,31,32
 363 70 363 70 396.5 116.5 c 128,-1,33
 430 163 430 163 430 255 c 0,34,35
 430 435 430 435 295 435 c 0,26,27
EndSplineSet
EndChar

StartChar: Lslash
Encoding: 321 321 102
Width: 540
Flags: HMW
HStem: 0 80<130 130 235 440> 620 80
VStem: 130 105<80 273 273 273 402 620> 425 85
LayerCount: 2
Fore
SplineSet
235 620 m 1,0,-1
 235 402 l 1,1,-1
 380 472 l 1,2,-1
 401 397 l 1,3,-1
 235 317 l 1,4,-1
 235 80 l 1,5,-1
 440 80 l 1,6,-1
 460 195 l 1,7,-1
 530 195 l 1,8,-1
 530 0 l 1,9,-1
 45 0 l 1,10,-1
 45 60 l 1,11,-1
 130 80 l 1,12,-1
 130 273 l 1,13,-1
 46 233 l 1,14,-1
 25 308 l 1,15,-1
 130 358 l 1,16,-1
 130 620 l 1,17,-1
 45 640 l 1,18,-1
 45 695 l 1,19,-1
 320 700 l 1,20,-1
 320 640 l 1,21,-1
 235 620 l 1,0,-1
EndSplineSet
EndChar

StartChar: lslash
Encoding: 322 322 103
Width: 361
Flags: HMW
HStem: 0 55<50 337 50 50> 750 20G<237 237>
VStem: 135 102<80 307 307 307 433 690 690 690>
LayerCount: 2
Fore
SplineSet
237 770 m 1,0,-1
 237 433 l 1,1,-1
 336 480 l 1,2,-1
 356 405 l 1,3,-1
 237 348 l 1,4,-1
 237 80 l 1,5,-1
 337 55 l 1,6,-1
 337 0 l 1,7,-1
 50 0 l 1,8,-1
 50 55 l 1,9,-1
 135 80 l 1,10,-1
 135 307 l 1,11,-1
 41 262 l 1,12,-1
 20 336 l 1,13,-1
 135 391 l 1,14,-1
 135 690 l 1,15,-1
 50 710 l 1,16,-1
 50 765 l 1,17,-1
 237 770 l 1,0,-1
EndSplineSet
EndChar

StartChar: caron
Encoding: 711 711 104
Width: 517
Flags: HMW
HStem: 635 21G<232 292 232 232> 800 20G<122 122 402 402>
LayerCount: 2
Fore
SplineSet
262 710 m 1,0,-1
 402 820 l 1,1,-1
 437 775 l 1,2,-1
 292 635 l 1,3,-1
 232 635 l 1,4,-1
 80 775 l 1,5,-1
 122 820 l 1,6,-1
 262 710 l 1,0,-1
EndSplineSet
EndChar

StartChar: Scaron
Encoding: 352 352 105
Width: 600
Flags: HMW
HStem: -10 85 612 85 745 186
VStem: 72 105 430 87
LayerCount: 2
Fore
SplineSet
515 500 m 1,0,-1
 450 500 l 1,1,-1
 416 607 l 1,2,3
 362 625 362 625 304 624.5 c 128,-1,4
 246 624 246 624 211 596 c 128,-1,5
 176 568 176 568 177 532.5 c 128,-1,6
 178 497 178 497 198 474.5 c 128,-1,7
 218 452 218 452 249.5 437.5 c 128,-1,8
 281 423 281 423 319 410 c 128,-1,9
 357 397 357 397 395 381 c 128,-1,10
 433 365 433 365 464.5 344.5 c 128,-1,11
 496 324 496 324 516 289.5 c 128,-1,12
 536 255 536 255 537 209 c 0,13,14
 539 103 539 103 464.5 47 c 128,-1,15
 390 -9 390 -9 276 -11 c 0,16,17
 229 -11 229 -11 177.5 -1 c 128,-1,18
 126 9 126 9 98 19.5 c 2,19,-1
 70 30 l 1,20,-1
 70 205 l 1,21,-1
 150 205 l 1,22,-1
 170 100 l 1,23,24
 187.227722772 89.6633663366 187.227722772 89.6633663366 219.113861386 81.8316831683 c 128,-1,25
 251 74 251 74 280 75 c 0,26,27
 341 76 341 76 387.5 104 c 128,-1,28
 434 132 434 132 433 182 c 0,29,30
 432 218 432 218 405.5 243.5 c 128,-1,31
 379 269 379 269 339 282 c 128,-1,32
 299 295 299 295 253 313.5 c 128,-1,33
 207 332 207 332 167 352.5 c 128,-1,34
 127 373 127 373 100 413.5 c 128,-1,35
 73 454 73 454 72 511 c 0,36,37
 71 610 71 610 138.5 659 c 0,38,39
 239.193001222 732.095660147 239.193001222 732.095660147 404 701 c 0,40,41
 457 691 457 691 488.5 680.5 c 2,42,-1
 520 670 l 1,43,-1
 515 500 l 1,0,-1
295 820 m 1,44,-1
 435 930 l 1,45,-1
 470 885 l 1,46,-1
 325 745 l 1,47,-1
 265 745 l 1,48,-1
 113 885 l 1,49,-1
 155 930 l 1,50,-1
 295 820 l 1,44,-1
EndSplineSet
EndChar

StartChar: scaron
Encoding: 353 353 106
Width: 475
Flags: HMW
HStem: -12 83 463 67 596 189
VStem: 50 100 325 85
LayerCount: 2
Fore
SplineSet
230 675 m 1,0,-1
 370 785 l 1,1,-1
 405 740 l 1,2,-1
 260 600 l 1,3,-1
 200 600 l 1,4,-1
 48 740 l 1,5,-1
 90 785 l 1,6,-1
 230 675 l 1,0,-1
399 375 m 1,7,-1
 334 375 l 1,8,-1
 318 453 l 1,9,10
 306.818181818 457.472727273 306.818181818 457.472727273 279.409090909 461.736363636 c 128,-1,11
 252 466 252 466 222.5 464.5 c 128,-1,12
 193 463 193 463 170 448 c 128,-1,13
 147 433 147 433 148 400.5 c 128,-1,14
 149 368 149 368 178 348.5 c 128,-1,15
 207 329 207 329 247.5 316.5 c 128,-1,16
 288 304 288 304 328.5 288.5 c 128,-1,17
 369 273 369 273 397.5 241.5 c 128,-1,18
 426 210 426 210 427 163 c 0,19,20
 428 81 428 81 368.5 37 c 0,21,22
 283.356902357 -25.962962963 283.356902357 -25.962962963 136.5 -6.5 c 0,23,24
 95 -1 95 -1 72 5.5 c 2,25,-1
 49 12 l 1,26,-1
 48 160 l 1,27,-1
 118 160 l 1,28,-1
 129 74 l 1,29,-1
 141 71 l 2,30,31
 173.32 62.92 173.32 62.92 217 65 c 0,32,33
 330 69 330 69 327 144 c 0,34,35
 326 174 326 174 297 193 c 128,-1,36
 268 212 268 212 227.5 224 c 128,-1,37
 187 236 187 236 146.5 251.5 c 128,-1,38
 106 267 106 267 77.5 299.5 c 128,-1,39
 49 332 49 332 48 382 c 0,40,41
 47 458 47 458 97.5 498 c 128,-1,42
 148 538 148 538 231 540 c 1,43,44
 302 540 302 540 377 517.5 c 2,45,-1
 402 510 l 1,46,-1
 399 375 l 1,7,-1
EndSplineSet
EndChar

StartChar: acute.x
Encoding: 65538 -1 107
Width: 320
Flags: HMW
HStem: 600 21G<65 65> 785 20G<225 225>
LayerCount: 2
Fore
SplineSet
275 730 m 1,0,-1
 65 600 l 1,1,-1
 30 650 l 1,2,-1
 225 805 l 1,3,-1
 275 730 l 1,0,-1
EndSplineSet
EndChar

StartChar: Aacute
Encoding: 193 193 108
Width: 725
Flags: HMW
HStem: 0 80 190 80<252 458 252 485 225 458> 680 20G<415 415> 915 20G<495 495>
LayerCount: 2
Fore
SplineSet
5 0 m 1,0,-1
 5 60 l 1,1,-1
 87 79 l 1,2,-1
 315 695 l 1,3,-1
 415 700 l 1,4,-1
 637 79 l 1,5,-1
 720 60 l 1,6,-1
 720 0 l 1,7,-1
 430 0 l 1,8,-1
 430 60 l 1,9,-1
 523 79 l 1,10,-1
 485 190 l 1,11,-1
 225 190 l 1,12,-1
 186 79 l 1,13,-1
 280 60 l 1,14,-1
 280 0 l 1,15,-1
 5 0 l 1,0,-1
357 571 m 1,16,-1
 252 270 l 1,17,-1
 458 270 l 1,18,-1
 357 571 l 1,16,-1
545 860 m 1,19,-1
 350 735 l 1,20,-1
 310 790 l 1,21,-1
 495 935 l 1,22,-1
 545 860 l 1,19,-1
EndSplineSet
EndChar

StartChar: Iacute
Encoding: 205 205 109
Width: 355
Flags: HMW
HStem: 0 80<125 125> 620 80 915 20G<280 280>
VStem: 125 105<80 620 80 620>
LayerCount: 2
Fore
SplineSet
315 60 m 1,0,-1
 315 0 l 1,1,-1
 40 0 l 1,2,-1
 40 60 l 1,3,-1
 125 80 l 1,4,-1
 125 620 l 1,5,-1
 40 640 l 1,6,-1
 40 695 l 1,7,-1
 315 700 l 1,8,-1
 315 640 l 1,9,-1
 230 620 l 1,10,-1
 230 80 l 1,11,-1
 315 60 l 1,0,-1
330 860 m 1,12,-1
 135 735 l 1,13,-1
 95 790 l 1,14,-1
 280 935 l 1,15,-1
 330 860 l 1,12,-1
EndSplineSet
EndChar

StartChar: Egrave
Encoding: 200 200 110
Width: 625
Flags: HMW
HStem: 0 80<145 145 250 480> 325 80<250 480 250 480> 621 79 915 20G<225 225>
VStem: 145 105<80 325 405 620> 470 85
LayerCount: 2
Fore
SplineSet
370 735 m 1,0,-1
 175 860 l 1,1,-1
 225 935 l 1,2,-1
 410 790 l 1,3,-1
 370 735 l 1,0,-1
465 620 m 1,4,-1
 250 620 l 1,5,-1
 250 405 l 1,6,-1
 480 405 l 1,7,-1
 480 325 l 1,8,-1
 250 325 l 1,9,-1
 250 80 l 1,10,-1
 480 80 l 1,11,-1
 500 180 l 1,12,-1
 565 180 l 1,13,-1
 565 0 l 1,14,-1
 60 0 l 1,15,-1
 60 60 l 1,16,-1
 145 80 l 1,17,-1
 145 620 l 1,18,-1
 60 640 l 1,19,-1
 60 695 l 1,20,-1
 250 700 l 1,21,-1
 555 700 l 1,22,-1
 555 530 l 1,23,-1
 490 530 l 1,24,-1
 465 620 l 1,4,-1
EndSplineSet
EndChar

StartChar: Igrave
Encoding: 204 204 111
Width: 360
Flags: HMW
HStem: 0 80<130 130> 620 80 735 21G<220 220> 915 20G<75 75>
VStem: 130 105<80 620 80 620>
LayerCount: 2
Fore
SplineSet
320 60 m 1,0,-1
 320 0 l 1,1,-1
 45 0 l 1,2,-1
 45 60 l 1,3,-1
 130 80 l 1,4,-1
 130 620 l 1,5,-1
 45 640 l 1,6,-1
 45 695 l 1,7,-1
 320 700 l 1,8,-1
 320 640 l 1,9,-1
 235 620 l 1,10,-1
 235 80 l 1,11,-1
 320 60 l 1,0,-1
220 735 m 1,12,-1
 25 860 l 1,13,-1
 75 935 l 1,14,-1
 260 790 l 1,15,-1
 220 735 l 1,12,-1
EndSplineSet
EndChar

StartChar: Oacute
Encoding: 211 211 112
Width: 755
Flags: HMW
HStem: -10 85<305 435 305 462.5> 625 85<315 445> 735 21G<315 315> 915 20G<460 460>
VStem: 60 115<260 445 260 455> 580 115<260 445>
LayerCount: 2
Fore
SplineSet
148 610.5 m 128,-1,1
 236 710 236 710 383 710 c 128,-1,2
 530 710 530 710 612.5 616 c 128,-1,3
 695 522 695 522 695 358.5 c 128,-1,4
 695 195 695 195 603 92.5 c 128,-1,5
 511 -10 511 -10 364.5 -10 c 128,-1,6
 218 -10 218 -10 139 81.5 c 128,-1,7
 60 173 60 173 60 342 c 128,-1,0
 60 511 60 511 148 610.5 c 128,-1,1
380 625 m 0,8,9
 175 625 175 625 175 350 c 128,-1,10
 175 75 175 75 370 75 c 0,11,12
 470 75 470 75 525 145.5 c 128,-1,13
 580 216 580 216 580 355 c 0,14,15
 580 625 580 625 380 625 c 0,8,9
510 860 m 1,16,-1
 315 735 l 1,17,-1
 275 790 l 1,18,-1
 460 935 l 1,19,-1
 510 860 l 1,16,-1
EndSplineSet
EndChar

StartChar: Ograve
Encoding: 210 210 113
Width: 755
Flags: HMW
HStem: -10 85<305 435 305 462.5> 625 85<315 445> 915 20G<285 285>
VStem: 60 115<260 445 260 455> 580 115<260 445>
LayerCount: 2
Fore
SplineSet
148 610.5 m 128,-1,1
 236 710 236 710 383 710 c 128,-1,2
 530 710 530 710 612.5 616 c 128,-1,3
 695 522 695 522 695 358.5 c 128,-1,4
 695 195 695 195 603 92.5 c 128,-1,5
 511 -10 511 -10 364.5 -10 c 128,-1,6
 218 -10 218 -10 139 81.5 c 128,-1,7
 60 173 60 173 60 342 c 128,-1,0
 60 511 60 511 148 610.5 c 128,-1,1
380 625 m 0,8,9
 175 625 175 625 175 350 c 128,-1,10
 175 75 175 75 370 75 c 0,11,12
 470 75 470 75 525 145.5 c 128,-1,13
 580 216 580 216 580 355 c 0,14,15
 580 625 580 625 380 625 c 0,8,9
430 735 m 1,16,-1
 235 860 l 1,17,-1
 285 935 l 1,18,-1
 470 790 l 1,19,-1
 430 735 l 1,16,-1
EndSplineSet
EndChar

StartChar: Ugrave
Encoding: 217 217 114
Width: 790
Flags: HMW
HStem: -10 85<337.5 457.5 337.5 495> 620 77 735 21G<430 430> 915 20G<285 285>
VStem: 125 105<270 620> 560 105<285 620>
LayerCount: 2
Fore
SplineSet
665 620 m 1,0,-1
 665 285 l 2,1,2
 665 138 665 138 603 64 c 128,-1,3
 541 -10 541 -10 394 -10 c 0,4,5
 247 -10 247 -10 186 58.5 c 128,-1,6
 125 127 125 127 125 270 c 2,7,-1
 125 620 l 1,8,-1
 40 640 l 1,9,-1
 40 695 l 1,10,-1
 325 700 l 1,11,-1
 325 640 l 1,12,-1
 230 620 l 1,13,-1
 230 270 l 2,14,15
 230 160 230 160 268 117.5 c 128,-1,16
 306 75 306 75 397 75 c 0,17,18
 488 75 488 75 524 121.5 c 128,-1,19
 560 168 560 168 560 285 c 2,20,-1
 560 620 l 1,21,-1
 465 640 l 1,22,-1
 465 695 l 1,23,-1
 750 700 l 1,24,-1
 750 640 l 1,25,-1
 665 620 l 1,0,-1
430 735 m 1,26,-1
 235 860 l 1,27,-1
 285 935 l 1,28,-1
 470 790 l 1,29,-1
 430 735 l 1,26,-1
EndSplineSet
EndChar

StartChar: Uacute
Encoding: 218 218 115
Width: 790
Flags: HMW
HStem: -10 85<337.5 457.5 337.5 495> 620 77 735 21G<359 359> 915 20G<504 504>
VStem: 125 105<270 620> 560 105<285 620>
LayerCount: 2
Fore
SplineSet
665 620 m 1,0,-1
 665 285 l 2,1,2
 665 138 665 138 603 64 c 128,-1,3
 541 -10 541 -10 394 -10 c 0,4,5
 247 -10 247 -10 186 58.5 c 128,-1,6
 125 127 125 127 125 270 c 2,7,-1
 125 620 l 1,8,-1
 40 640 l 1,9,-1
 40 695 l 1,10,-1
 325 700 l 1,11,-1
 325 640 l 1,12,-1
 230 620 l 1,13,-1
 230 270 l 2,14,15
 230 160 230 160 268 117.5 c 128,-1,16
 306 75 306 75 397 75 c 0,17,18
 488 75 488 75 524 121.5 c 128,-1,19
 560 168 560 168 560 285 c 2,20,-1
 560 620 l 1,21,-1
 465 640 l 1,22,-1
 465 695 l 1,23,-1
 750 700 l 1,24,-1
 750 640 l 1,25,-1
 665 620 l 1,0,-1
554 860 m 1,26,-1
 359 735 l 1,27,-1
 319 790 l 1,28,-1
 504 935 l 1,29,-1
 554 860 l 1,26,-1
EndSplineSet
EndChar

StartChar: Atilde
Encoding: 195 195 116
Width: 725
Flags: HMW
HStem: 0 80 190 80<252 458 252 485 225 458> 680 20G<415 415> 805 129<242 352 282 517>
LayerCount: 2
Fore
SplineSet
5 0 m 1,0,-1
 5 60 l 1,1,-1
 87 79 l 1,2,-1
 315 695 l 1,3,-1
 415 700 l 1,4,-1
 637 79 l 1,5,-1
 720 60 l 1,6,-1
 720 0 l 1,7,-1
 430 0 l 1,8,-1
 430 60 l 1,9,-1
 523 79 l 1,10,-1
 485 190 l 1,11,-1
 225 190 l 1,12,-1
 186 79 l 1,13,-1
 280 60 l 1,14,-1
 280 0 l 1,15,-1
 5 0 l 1,0,-1
357 571 m 1,16,-1
 252 270 l 1,17,-1
 458 270 l 1,18,-1
 357 571 l 1,16,-1
242 805 m 1,19,-1
 207 840 l 1,20,21
 212 850 l 2,22,23
 238.074074074 902.148148148 238.074074074 902.148148148 278.5 924 c 0,24,25
 297 934 297 934 325 934 c 128,-1,26
 353 934 353 934 405.5 911 c 128,-1,27
 458 888 458 888 481.5 888 c 128,-1,28
 505 888 505 888 521 898.5 c 128,-1,29
 537 909 537 909 544.5 919.5 c 2,30,-1
 552 930 l 1,31,-1
 587 895 l 1,32,33
 584.897959184 886.591836735 584.897959184 886.591836735 572.448979592 867.295918367 c 128,-1,34
 560 848 560 848 549 836 c 0,35,36
 520.583333333 805 520.583333333 805 483.291666667 805 c 128,-1,37
 446 805 446 805 393.5 827 c 128,-1,38
 341 849 341 849 317.5 849 c 128,-1,39
 294 849 294 849 276.5 838 c 128,-1,40
 259 827 259 827 250.5 816 c 2,41,-1
 242 805 l 1,19,-1
EndSplineSet
EndChar

StartChar: Otilde
Encoding: 213 213 117
Width: 755
Flags: HMW
HStem: -10 85<305 435 305 462.5> 625 85<315 445> 805 129<222 332 262 497>
VStem: 60 115<260 445 260 455> 580 115<260 445>
LayerCount: 2
Fore
SplineSet
148 610.5 m 128,-1,1
 236 710 236 710 383 710 c 128,-1,2
 530 710 530 710 612.5 616 c 128,-1,3
 695 522 695 522 695 358.5 c 128,-1,4
 695 195 695 195 603 92.5 c 128,-1,5
 511 -10 511 -10 364.5 -10 c 128,-1,6
 218 -10 218 -10 139 81.5 c 128,-1,7
 60 173 60 173 60 342 c 128,-1,0
 60 511 60 511 148 610.5 c 128,-1,1
380 625 m 0,8,9
 175 625 175 625 175 350 c 128,-1,10
 175 75 175 75 370 75 c 0,11,12
 470 75 470 75 525 145.5 c 128,-1,13
 580 216 580 216 580 355 c 0,14,15
 580 625 580 625 380 625 c 0,8,9
222 805 m 1,16,-1
 187 840 l 1,17,-1
 192 850 l 2,18,19
 218.074074074 902.148148148 218.074074074 902.148148148 258.5 924 c 0,20,21
 277 934 277 934 305 934 c 128,-1,22
 333 934 333 934 385.5 911 c 128,-1,23
 438 888 438 888 461.5 888 c 128,-1,24
 485 888 485 888 501 898.5 c 128,-1,25
 517 909 517 909 524.5 919.5 c 2,26,-1
 532 930 l 1,27,-1
 567 895 l 1,28,29
 564.897959184 886.591836735 564.897959184 886.591836735 552.448979592 867.295918367 c 128,-1,30
 540 848 540 848 529 836 c 0,31,32
 500.583333333 805 500.583333333 805 463.291666667 805 c 128,-1,33
 426 805 426 805 373.5 827 c 128,-1,34
 321 849 321 849 297.5 849 c 128,-1,35
 274 849 274 849 256.5 838 c 128,-1,36
 239 827 239 827 230.5 816 c 2,37,-1
 222 805 l 1,16,-1
EndSplineSet
EndChar

StartChar: Agrave
Encoding: 192 192 118
Width: 725
Flags: HMW
HStem: 0 80 190 80<252 458 252 485 225 458> 680 20G<415 415> 735 21G<440 440> 915 20G<295 295>
LayerCount: 2
Fore
SplineSet
440 735 m 1,0,-1
 245 860 l 1,1,-1
 295 935 l 1,2,-1
 480 790 l 1,3,-1
 440 735 l 1,0,-1
5 0 m 1,4,-1
 5 60 l 1,5,-1
 87 79 l 1,6,-1
 315 695 l 1,7,-1
 415 700 l 1,8,-1
 637 79 l 1,9,-1
 720 60 l 1,10,-1
 720 0 l 1,11,-1
 430 0 l 1,12,-1
 430 60 l 1,13,-1
 523 79 l 1,14,-1
 485 190 l 1,15,-1
 225 190 l 1,16,-1
 186 79 l 1,17,-1
 280 60 l 1,18,-1
 280 0 l 1,19,-1
 5 0 l 1,4,-1
357 571 m 1,20,-1
 252 270 l 1,21,-1
 458 270 l 1,22,-1
 357 571 l 1,20,-1
EndSplineSet
EndChar

StartChar: Eacute
Encoding: 201 201 119
Width: 625
Flags: HMW
HStem: 0 80<145 145 250 480> 325 80<250 480 250 480> 621 79 739 196
VStem: 145 105<80 325 405 620> 470 85
LayerCount: 2
Fore
SplineSet
425 935 m 1,0,-1
 475 860 l 1,1,-1
 280 735 l 1,2,-1
 240 790 l 1,3,-1
 425 935 l 1,0,-1
555 700 m 1,4,-1
 555 530 l 1,5,-1
 490 530 l 1,6,-1
 465 620 l 1,7,-1
 250 620 l 1,8,-1
 250 405 l 1,9,-1
 480 405 l 1,10,-1
 480 325 l 1,11,-1
 250 325 l 1,12,-1
 250 80 l 1,13,-1
 480 80 l 1,14,-1
 500 180 l 1,15,-1
 565 180 l 1,16,-1
 565 0 l 1,17,-1
 60 0 l 1,18,-1
 60 60 l 1,19,-1
 145 80 l 1,20,-1
 145 620 l 1,21,-1
 60 640 l 1,22,-1
 60 695 l 1,23,-1
 250 700 l 1,24,-1
 555 700 l 1,4,-1
EndSplineSet
EndChar

StartChar: atilde
Encoding: 227 227 120
Width: 565
Flags: HMW
HStem: -10 80<197.5 230> 230 65<275 285 285 355> 465 75<230 290> 635 129<107 217 147 382>
VStem: 45 100 355 100<150 230 230 230 295 375 375 385 80 405>
LayerCount: 2
Fore
SplineSet
107 635 m 1,0,-1
 72 670 l 1,1,2
 77 680 l 2,3,4
 103.074074074 732.148148148 103.074074074 732.148148148 143.5 754 c 0,5,6
 162 764 162 764 190 764 c 128,-1,7
 218 764 218 764 270.5 741 c 128,-1,8
 323 718 323 718 346.5 718 c 128,-1,9
 370 718 370 718 386 728.5 c 128,-1,10
 402 739 402 739 409.5 749.5 c 2,11,-1
 417 760 l 1,12,-1
 452 725 l 1,13,14
 449.897959184 716.591836735 449.897959184 716.591836735 437.448979592 697.295918367 c 128,-1,15
 425 678 425 678 414 666 c 0,16,17
 385.583333333 635 385.583333333 635 348.291666667 635 c 128,-1,18
 311 635 311 635 258.5 657 c 128,-1,19
 206 679 206 679 182.5 679 c 128,-1,20
 159 679 159 679 141.5 668 c 128,-1,21
 124 657 124 657 115.5 646 c 2,22,-1
 107 635 l 1,0,-1
535 5 m 1,23,-1
 380 0 l 1,24,-1
 359 70 l 1,25,26
 279 -10 279 -10 201.5 -10 c 128,-1,27
 124 -10 124 -10 84.5 29.5 c 128,-1,28
 45 69 45 69 45 140 c 0,29,30
 45 295 45 295 275 295 c 2,31,-1
 355 295 l 1,32,-1
 355 375 l 2,33,34
 355 465 355 465 260 465 c 0,35,36
 204 465 204 465 171 454 c 2,37,-1
 159 450 l 1,38,-1
 145 375 l 1,39,-1
 80 375 l 1,40,-1
 75 500 l 1,41,42
 185 540 185 540 273 540 c 128,-1,43
 361 540 361 540 408 504 c 128,-1,44
 455 468 455 468 455 385 c 2,45,-1
 455 80 l 1,46,-1
 535 60 l 1,47,-1
 535 5 l 1,23,-1
178.5 210 m 128,-1,49
 147 190 147 190 147 150.5 c 128,-1,50
 147 111 147 111 166.5 90.5 c 128,-1,51
 186 70 186 70 219.5 70 c 128,-1,52
 253 70 253 70 287 90 c 128,-1,53
 321 110 321 110 338 130 c 2,54,-1
 355 150 l 1,55,-1
 355 230 l 1,56,-1
 285 230 l 2,57,48
 210 230 210 230 178.5 210 c 128,-1,49
EndSplineSet
EndChar

StartChar: otilde
Encoding: 245 245 121
Width: 570
Flags: HMW
HStem: -10 80<235 335 235 355> 460 80<240 340> 635 129<130 240 170 405>
VStem: 40 105<205 330 205 345> 425 105<205 325>
LayerCount: 2
Fore
SplineSet
111 463.5 m 128,-1,1
 182 540 182 540 294 540 c 128,-1,2
 406 540 406 540 468 468.5 c 128,-1,3
 530 397 530 397 530 272 c 128,-1,4
 530 147 530 147 461 68.5 c 128,-1,5
 392 -10 392 -10 279 -10 c 128,-1,6
 166 -10 166 -10 103 58.5 c 128,-1,7
 40 127 40 127 40 257 c 128,-1,0
 40 387 40 387 111 463.5 c 128,-1,1
290 460 m 0,8,9
 145 460 145 460 145 265 c 128,-1,10
 145 70 145 70 285 70 c 0,11,12
 358 70 358 70 391.5 120 c 128,-1,13
 425 170 425 170 425 270 c 0,14,15
 425 460 425 460 290 460 c 0,8,9
130 635 m 1,16,-1
 95 670 l 1,17,-1
 100 680 l 2,18,19
 126.074074074 732.148148148 126.074074074 732.148148148 166.5 754 c 0,20,21
 185 764 185 764 213 764 c 128,-1,22
 241 764 241 764 293.5 741 c 128,-1,23
 346 718 346 718 369.5 718 c 128,-1,24
 393 718 393 718 409 728.5 c 128,-1,25
 425 739 425 739 432.5 749.5 c 2,26,-1
 440 760 l 1,27,-1
 475 725 l 1,28,29
 472.897959184 716.591836735 472.897959184 716.591836735 460.448979592 697.295918367 c 128,-1,30
 448 678 448 678 437 666 c 0,31,32
 408.583333333 635 408.583333333 635 371.291666667 635 c 128,-1,33
 334 635 334 635 281.5 657 c 128,-1,34
 229 679 229 679 205.5 679 c 128,-1,35
 182 679 182 679 164.5 668 c 128,-1,36
 147 657 147 657 138.5 646 c 2,37,-1
 130 635 l 1,16,-1
EndSplineSet
EndChar

StartChar: grave
Encoding: 96 96 122
Width: 420
Flags: HMW
HStem: 635 21G<290 290> 815 20G<145 145>
LayerCount: 2
Fore
SplineSet
290 635 m 1,0,-1
 95 760 l 1,1,-1
 145 835 l 1,2,-1
 330 690 l 1,3,-1
 290 635 l 1,0,-1
EndSplineSet
EndChar

StartChar: Yacute
Encoding: 221 221 123
Width: 645
Flags: HMW
HStem: 0 80<270 270> 620 80<192 260> 771 164
VStem: 270 105<80 259 259 259>
LayerCount: 2
Fore
SplineSet
185 0 m 1,0,-1
 185 60 l 1,1,-1
 270 80 l 1,2,-1
 270 259 l 1,3,-1
 77 621 l 1,4,-1
 10 640 l 1,5,-1
 10 695 l 1,6,-1
 260 700 l 1,7,-1
 260 640 l 1,8,-1
 192 620 l 1,9,-1
 325 340 l 1,10,-1
 472 620 l 1,11,-1
 395 640 l 1,12,-1
 395 695 l 1,13,-1
 635 700 l 1,14,-1
 635 640 l 1,15,-1
 573 622 l 1,16,-1
 375 261 l 1,17,-1
 375 80 l 1,18,-1
 460 60 l 1,19,-1
 460 0 l 1,20,-1
 185 0 l 1,0,-1
505 860 m 1,21,-1
 310 735 l 1,22,-1
 270 790 l 1,23,-1
 455 935 l 1,24,-1
 505 860 l 1,21,-1
EndSplineSet
EndChar

StartChar: yacute
Encoding: 253 253 124
Width: 575
Flags: HMW
HStem: -240 75<82.5 90 90 125 40 177.5> 510 20G<245 245 572 572> 595 210
VStem: 10 235<470 525 525 525> 335 235
LayerCount: 2
Fore
SplineSet
70 455 m 1,0,-1
 10 470 l 1,1,-1
 10 525 l 1,2,-1
 245 530 l 1,3,-1
 245 470 l 1,4,-1
 175 460 l 1,5,-1
 295 110 l 1,6,-1
 405 455 l 1,7,-1
 335 470 l 1,8,-1
 335 525 l 1,9,-1
 572 530 l 1,10,-1
 572 470 l 1,11,-1
 507 460 l 1,12,-1
 365 64 l 1,13,14
 315.047907232 -67.0064319777 315.047907232 -67.0064319777 290.787432642 -109.894352959 c 0,15,16
 216.132301915 -239.277851337 216.132301915 -239.277851337 95 -240 c 1,17,-1
 31 -235 l 1,18,-1
 40 -165 l 1,19,-1
 90 -165 l 2,20,21
 139 -165 139 -165 175.5 -124 c 128,-1,22
 212 -83 212 -83 249 -2 c 1,23,-1
 70 455 l 1,0,-1
485 725 m 1,24,-1
 275 595 l 1,25,-1
 240 645 l 1,26,-1
 435 800 l 1,27,-1
 485 725 l 1,24,-1
EndSplineSet
EndChar

StartChar: acircumflex
Encoding: 226 226 125
Width: 565
Flags: HMW
HStem: -10 80<197.5 230> 230 65<275 285 285 355> 465 75<230 290>
VStem: 45 100 355 100<150 230 230 230 295 375 375 385 80 405>
LayerCount: 2
Fore
SplineSet
400 600 m 1,0,-1
 262 708 l 1,1,-1
 120 600 l 1,2,-1
 80 645 l 1,3,-1
 230 780 l 1,4,-1
 290 785 l 1,5,-1
 440 645 l 1,6,-1
 400 600 l 1,0,-1
535 5 m 1,7,-1
 380 0 l 1,8,-1
 359 70 l 1,9,10
 279 -10 279 -10 201.5 -10 c 128,-1,11
 124 -10 124 -10 84.5 29.5 c 128,-1,12
 45 69 45 69 45 140 c 0,13,14
 45 295 45 295 275 295 c 2,15,-1
 355 295 l 1,16,-1
 355 375 l 2,17,18
 355 465 355 465 260 465 c 0,19,20
 204 465 204 465 171 454 c 2,21,-1
 159 450 l 1,22,-1
 145 375 l 1,23,-1
 80 375 l 1,24,-1
 75 500 l 1,25,26
 185 540 185 540 273 540 c 128,-1,27
 361 540 361 540 408 504 c 128,-1,28
 455 468 455 468 455 385 c 2,29,-1
 455 80 l 1,30,-1
 535 60 l 1,31,-1
 535 5 l 1,7,-1
178.5 210 m 128,-1,33
 147 190 147 190 147 150.5 c 128,-1,34
 147 111 147 111 166.5 90.5 c 128,-1,35
 186 70 186 70 219.5 70 c 128,-1,36
 253 70 253 70 287 90 c 128,-1,37
 321 110 321 110 338 130 c 2,38,-1
 355 150 l 1,39,-1
 355 230 l 1,40,-1
 285 230 l 2,41,32
 210 230 210 230 178.5 210 c 128,-1,33
EndSplineSet
EndChar

StartChar: adieresis
Encoding: 228 228 126
Width: 565
Flags: HMW
HStem: -10 80<197.5 230> 230 65<275 285 285 355> 465 75<230 290> 640 120<145 175 350 380>
VStem: 45 100 105 110<681 719> 310 110<681 719> 355 100<150 230 230 230 295 375 375 385 80 405>
LayerCount: 2
Fore
SplineSet
535 5 m 1,0,-1
 380 0 l 1,1,-1
 359 70 l 1,2,3
 279 -10 279 -10 201.5 -10 c 128,-1,4
 124 -10 124 -10 84.5 29.5 c 128,-1,5
 45 69 45 69 45 140 c 0,6,7
 45 295 45 295 275 295 c 2,8,-1
 355 295 l 1,9,-1
 355 375 l 2,10,11
 355 465 355 465 260 465 c 0,12,13
 204 465 204 465 171 454 c 2,14,-1
 159 450 l 1,15,-1
 145 375 l 1,16,-1
 80 375 l 1,17,-1
 75 500 l 1,18,19
 185 540 185 540 273 540 c 128,-1,20
 361 540 361 540 408 504 c 128,-1,21
 455 468 455 468 455 385 c 2,22,-1
 455 80 l 1,23,-1
 535 60 l 1,24,-1
 535 5 l 1,0,-1
178.5 210 m 128,-1,26
 147 190 147 190 147 150.5 c 128,-1,27
 147 111 147 111 166.5 90.5 c 128,-1,28
 186 70 186 70 219.5 70 c 128,-1,29
 253 70 253 70 287 90 c 128,-1,30
 321 110 321 110 338 130 c 2,31,-1
 355 150 l 1,32,-1
 355 230 l 1,33,-1
 285 230 l 2,34,25
 210 230 210 230 178.5 210 c 128,-1,26
105 700 m 128,-1,36
 105 728 105 728 121 744 c 128,-1,37
 137 760 137 760 161.5 760 c 128,-1,38
 186 760 186 760 200.5 744 c 128,-1,39
 215 728 215 728 215 700 c 128,-1,40
 215 672 215 672 199 656 c 128,-1,41
 183 640 183 640 158.5 640 c 128,-1,42
 134 640 134 640 119.5 656 c 128,-1,35
 105 672 105 672 105 700 c 128,-1,36
310 700 m 128,-1,44
 310 728 310 728 326 744 c 128,-1,45
 342 760 342 760 366.5 760 c 128,-1,46
 391 760 391 760 405.5 744 c 128,-1,47
 420 728 420 728 420 700 c 128,-1,48
 420 672 420 672 404 656 c 128,-1,49
 388 640 388 640 363.5 640 c 128,-1,50
 339 640 339 640 324.5 656 c 128,-1,43
 310 672 310 672 310 700 c 128,-1,44
EndSplineSet
EndChar

StartChar: ecircumflex
Encoding: 234 234 127
Width: 530
Flags: HMW
HStem: -10 80<247 340 247 340> 249 76 462 78<240 320> 765 20G<301 301>
VStem: 40 105<195 250 195 340> 389 106<325 362.5>
LayerCount: 2
Fore
SplineSet
411 600 m 1,0,-1
 273 708 l 1,1,-1
 131 600 l 1,2,-1
 91 645 l 1,3,-1
 241 780 l 1,4,-1
 301 785 l 1,5,-1
 451 645 l 1,6,-1
 411 600 l 1,0,-1
490 252 m 1,7,-1
 145 250 l 1,8,9
 145 168 145 168 185 119 c 128,-1,10
 225 70 225 70 290 70 c 0,11,12
 334 70 334 70 376 84 c 128,-1,13
 418 98 418 98 438 111.5 c 2,14,-1
 458 125 l 1,15,-1
 493 73 l 1,16,17
 483 64 483 64 464 50 c 128,-1,18
 445 36 445 36 389 13 c 128,-1,19
 333 -10 333 -10 280 -10 c 0,20,21
 162 -10 162 -10 101 61.5 c 128,-1,22
 40 133 40 133 40 257 c 0,23,24
 40 381 40 381 108.5 460.5 c 128,-1,25
 177 540 177 540 285 540 c 0,26,27
 495 540 495 540 495 305 c 1,28,-1
 490 252 l 1,7,-1
149 325 m 1,29,-1
 389 325 l 1,30,31
 389 386 389 386 363 424 c 128,-1,32
 337 462 337 462 279.5 462 c 0,33,34
 222 462 222 462 188 423 c 128,-1,35
 154 384 154 384 149 325 c 1,29,-1
EndSplineSet
EndChar

StartChar: edieresis
Encoding: 235 235 128
Width: 530
Flags: HMW
HStem: -10 81 250 75<145 389> 460 80 640 120<155 185 360 390>
VStem: 37 107 393 100
LayerCount: 2
Fore
SplineSet
490 252 m 1,0,-1
 145 250 l 1,1,2
 145 168 145 168 185 119 c 128,-1,3
 225 70 225 70 290 70 c 0,4,5
 334 70 334 70 376 84 c 128,-1,6
 418 98 418 98 438 111.5 c 2,7,-1
 458 125 l 1,8,-1
 493 73 l 1,9,10
 483 64 483 64 464 50 c 128,-1,11
 445 36 445 36 389 13 c 128,-1,12
 333 -10 333 -10 280 -10 c 0,13,14
 162 -10 162 -10 101 61.5 c 128,-1,15
 40 133 40 133 40 257 c 0,16,17
 40 381 40 381 108.5 460.5 c 128,-1,18
 177 540 177 540 285 540 c 0,19,20
 495 540 495 540 495 305 c 1,21,-1
 490 252 l 1,0,-1
149 325 m 1,22,-1
 389 325 l 1,23,24
 389 386 389 386 363 424 c 128,-1,25
 337 462 337 462 279.5 462 c 0,26,27
 222 462 222 462 188 423 c 128,-1,28
 154 384 154 384 149 325 c 1,22,-1
115 700 m 128,-1,30
 115 728 115 728 131 744 c 128,-1,31
 147 760 147 760 171.5 760 c 0,32,33
 196 760 196 760 210.5 744 c 128,-1,34
 225 728 225 728 225 700 c 128,-1,35
 225 672 225 672 209 656 c 128,-1,36
 193 640 193 640 168.5 640 c 0,37,38
 144 640 144 640 129.5 656 c 128,-1,29
 115 672 115 672 115 700 c 128,-1,30
320 700 m 128,-1,40
 320 728 320 728 336 744 c 128,-1,41
 352 760 352 760 376.5 760 c 0,42,43
 401 760 401 760 415.5 744 c 128,-1,44
 430 728 430 728 430 700 c 128,-1,45
 430 672 430 672 414 656 c 128,-1,46
 398 640 398 640 373.5 640 c 0,47,48
 349 640 349 640 334.5 656 c 128,-1,39
 320 672 320 672 320 700 c 128,-1,40
EndSplineSet
EndChar

StartChar: ccedilla
Encoding: 231 231 129
Width: 510
Flags: HMW
HStem: -10 80 460 80<247.5 320>
VStem: 40 105<207.5 337.5 207.5 345>
LayerCount: 2
Fore
SplineSet
465 365 m 1,0,-1
 400 365 l 1,1,-1
 385 450 l 1,2,3
 345 460 345 460 295 460 c 0,4,5
 223 460 223 460 184 413.5 c 128,-1,6
 145 367 145 367 145 271 c 128,-1,7
 145 175 145 175 186 122.5 c 128,-1,8
 227 70 227 70 300 70 c 0,9,10
 342 70 342 70 381 85 c 128,-1,11
 420 100 420 100 437.5 115 c 2,12,-1
 455 130 l 1,13,-1
 490 70 l 1,14,15
 461.52688172 45.0860215054 461.52688172 45.0860215054 411.76344086 21.0430107527 c 128,-1,16
 362 -3 362 -3 320 -8 c 1,17,-1
 320 -44 l 1,18,19
 360 -52 360 -52 383.5 -75 c 128,-1,20
 407 -98 407 -98 407 -134.5 c 128,-1,21
 407 -171 407 -171 376.5 -195 c 128,-1,22
 346 -219 346 -219 308.5 -219 c 0,23,24
 242 -219 242 -219 200 -198 c 2,25,-1
 186 -191 l 1,26,-1
 210 -150 l 1,27,28
 255 -171 255 -171 285 -171 c 0,29,30
 342 -171 342 -171 342 -130 c 0,31,32
 342 -107 342 -107 319.5 -93 c 128,-1,33
 297 -79 297 -79 260 -79 c 1,34,-1
 260 -8 l 1,35,36
 152 0 152 0 96 71.5 c 128,-1,37
 40 143 40 143 40 265 c 128,-1,38
 40 387 40 387 111 463.5 c 128,-1,39
 182 540 182 540 300 540 c 0,40,41
 340 540 340 540 382.5 530 c 128,-1,42
 425 520 425 520 447.5 510 c 2,43,-1
 470 500 l 1,44,-1
 465 365 l 1,0,-1
EndSplineSet
EndChar

StartChar: idieresis
Encoding: 239 239 130
Width: 335
Flags: HMW
HStem: 0 21G<40 300 40 40> 470 55<40 40> 640 120<55 85 250 280>
VStem: 15 55 125 100<80 450 450 450> 265 55
LayerCount: 2
Fore
SplineSet
225 530 m 1,0,-1
 225 80 l 1,1,-1
 300 55 l 1,2,-1
 300 0 l 1,3,-1
 40 0 l 1,4,-1
 40 55 l 1,5,-1
 125 80 l 1,6,-1
 125 450 l 1,7,-1
 40 470 l 1,8,-1
 40 525 l 1,9,-1
 225 530 l 1,0,-1
15 700 m 128,-1,11
 15 728 15 728 31 744 c 128,-1,12
 47 760 47 760 71.5 760 c 0,13,14
 96 760 96 760 110.5 744 c 128,-1,15
 125 728 125 728 125 700 c 128,-1,16
 125 672 125 672 109 656 c 128,-1,17
 93 640 93 640 68.5 640 c 0,18,19
 44 640 44 640 29.5 656 c 128,-1,10
 15 672 15 672 15 700 c 128,-1,11
210 700 m 128,-1,21
 210 728 210 728 226 744 c 128,-1,22
 242 760 242 760 266.5 760 c 0,23,24
 291 760 291 760 305.5 744 c 128,-1,25
 320 728 320 728 320 700 c 128,-1,26
 320 672 320 672 304 656 c 128,-1,27
 288 640 288 640 263.5 640 c 0,28,29
 239 640 239 640 224.5 656 c 128,-1,20
 210 672 210 672 210 700 c 128,-1,21
EndSplineSet
EndChar

StartChar: ocircumflex
Encoding: 244 244 131
Width: 570
Flags: HMW
HStem: -10 80<235 335 235 355> 460 80<240 340>
VStem: 40 105<205 330 205 345> 425 105<205 325>
LayerCount: 2
Fore
SplineSet
430 600 m 1,0,-1
 292 708 l 1,1,-1
 150 600 l 1,2,-1
 110 645 l 1,3,-1
 260 780 l 1,4,-1
 320 785 l 1,5,-1
 470 645 l 1,6,-1
 430 600 l 1,0,-1
111 463.5 m 128,-1,8
 182 540 182 540 294 540 c 128,-1,9
 406 540 406 540 468 468.5 c 128,-1,10
 530 397 530 397 530 272 c 128,-1,11
 530 147 530 147 461 68.5 c 128,-1,12
 392 -10 392 -10 279 -10 c 128,-1,13
 166 -10 166 -10 103 58.5 c 128,-1,14
 40 127 40 127 40 257 c 128,-1,7
 40 387 40 387 111 463.5 c 128,-1,8
290 460 m 0,15,16
 145 460 145 460 145 265 c 128,-1,17
 145 70 145 70 285 70 c 0,18,19
 358 70 358 70 391.5 120 c 128,-1,20
 425 170 425 170 425 270 c 0,21,22
 425 460 425 460 290 460 c 0,15,16
EndSplineSet
EndChar

StartChar: odieresis
Encoding: 246 246 132
Width: 570
Flags: HMW
HStem: -10 80<235 335 235 355> 460 80<240 340> 640 120<165 195 370 400>
VStem: 40 105<205 330 205 345> 125 110<681 719> 330 110<681 719> 425 105<205 325>
LayerCount: 2
Fore
SplineSet
111 463.5 m 128,-1,1
 182 540 182 540 294 540 c 128,-1,2
 406 540 406 540 468 468.5 c 128,-1,3
 530 397 530 397 530 272 c 128,-1,4
 530 147 530 147 461 68.5 c 128,-1,5
 392 -10 392 -10 279 -10 c 128,-1,6
 166 -10 166 -10 103 58.5 c 128,-1,7
 40 127 40 127 40 257 c 128,-1,0
 40 387 40 387 111 463.5 c 128,-1,1
290 460 m 0,8,9
 145 460 145 460 145 265 c 128,-1,10
 145 70 145 70 285 70 c 0,11,12
 358 70 358 70 391.5 120 c 128,-1,13
 425 170 425 170 425 270 c 0,14,15
 425 460 425 460 290 460 c 0,8,9
125 700 m 128,-1,17
 125 728 125 728 141 744 c 128,-1,18
 157 760 157 760 181.5 760 c 128,-1,19
 206 760 206 760 220.5 744 c 128,-1,20
 235 728 235 728 235 700 c 128,-1,21
 235 672 235 672 219 656 c 128,-1,22
 203 640 203 640 178.5 640 c 128,-1,23
 154 640 154 640 139.5 656 c 128,-1,16
 125 672 125 672 125 700 c 128,-1,17
330 700 m 128,-1,25
 330 728 330 728 346 744 c 128,-1,26
 362 760 362 760 386.5 760 c 128,-1,27
 411 760 411 760 425.5 744 c 128,-1,28
 440 728 440 728 440 700 c 128,-1,29
 440 672 440 672 424 656 c 128,-1,30
 408 640 408 640 383.5 640 c 128,-1,31
 359 640 359 640 344.5 656 c 128,-1,24
 330 672 330 672 330 700 c 128,-1,25
EndSplineSet
EndChar

StartChar: Odieresis
Encoding: 214 214 133
Width: 755
Flags: HMW
HStem: -10 85<305 435 305 462.5> 625 85<315 445> 826 59
VStem: 60 115<260 445 260 455> 204 110 425 110<806 844> 580 115<260 445>
LayerCount: 2
Fore
SplineSet
148 610.5 m 128,-1,1
 236 710 236 710 383 710 c 128,-1,2
 530 710 530 710 612.5 616 c 128,-1,3
 695 522 695 522 695 358.5 c 128,-1,4
 695 195 695 195 603 92.5 c 128,-1,5
 511 -10 511 -10 364.5 -10 c 128,-1,6
 218 -10 218 -10 139 81.5 c 128,-1,7
 60 173 60 173 60 342 c 128,-1,0
 60 511 60 511 148 610.5 c 128,-1,1
380 625 m 0,8,9
 175 625 175 625 175 350 c 128,-1,10
 175 75 175 75 370 75 c 0,11,12
 470 75 470 75 525 145.5 c 128,-1,13
 580 216 580 216 580 355 c 0,14,15
 580 625 580 625 380 625 c 0,8,9
220 825 m 128,-1,17
 220 853 220 853 236 869 c 128,-1,18
 252 885 252 885 276.5 885 c 128,-1,19
 301 885 301 885 315.5 869 c 128,-1,20
 330 853 330 853 330 825 c 128,-1,21
 330 797 330 797 314 781 c 128,-1,22
 298 765 298 765 273.5 765 c 128,-1,23
 249 765 249 765 234.5 781 c 128,-1,16
 220 797 220 797 220 825 c 128,-1,17
425 825 m 128,-1,25
 425 853 425 853 441 869 c 128,-1,26
 457 885 457 885 481.5 885 c 128,-1,27
 506 885 506 885 520.5 869 c 128,-1,28
 535 853 535 853 535 825 c 128,-1,29
 535 797 535 797 519 781 c 128,-1,30
 503 765 503 765 478.5 765 c 128,-1,31
 454 765 454 765 439.5 781 c 128,-1,24
 425 797 425 797 425 825 c 128,-1,25
EndSplineSet
EndChar

StartChar: Udieresis
Encoding: 220 220 134
Width: 790
Flags: HMW
HStem: -10 85<337.5 457.5 337.5 495> 640 57 826 59
VStem: 125 105<270 620> 560 105<285 620>
LayerCount: 2
Fore
SplineSet
325 700 m 1,0,-1
 325 640 l 1,1,-1
 230 620 l 1,2,-1
 230 270 l 2,3,4
 230 160 230 160 268 117.5 c 128,-1,5
 306 75 306 75 397 75 c 0,6,7
 488 75 488 75 524 121.5 c 128,-1,8
 560 168 560 168 560 285 c 2,9,-1
 560 620 l 1,10,-1
 465 640 l 1,11,-1
 465 695 l 1,12,-1
 750 700 l 1,13,-1
 750 640 l 1,14,-1
 665 620 l 1,15,-1
 665 285 l 2,16,17
 665 138 665 138 603 64 c 128,-1,18
 541 -10 541 -10 394 -10 c 0,19,20
 247 -10 247 -10 186 58.5 c 128,-1,21
 125 127 125 127 125 270 c 2,22,-1
 125 620 l 1,23,-1
 40 640 l 1,24,-1
 40 695 l 1,25,-1
 325 700 l 1,0,-1
230 825 m 128,-1,27
 230 853 230 853 246 869 c 128,-1,28
 262 885 262 885 286.5 885 c 0,29,30
 311 885 311 885 325.5 869 c 128,-1,31
 340 853 340 853 340 825 c 128,-1,32
 340 797 340 797 324 781 c 128,-1,33
 308 765 308 765 283.5 765 c 0,34,35
 259 765 259 765 244.5 781 c 128,-1,26
 230 797 230 797 230 825 c 128,-1,27
435 825 m 128,-1,37
 435 853 435 853 451 869 c 128,-1,38
 467 885 467 885 491.5 885 c 0,39,40
 516 885 516 885 530.5 869 c 128,-1,41
 545 853 545 853 545 825 c 128,-1,42
 545 797 545 797 529 781 c 128,-1,43
 513 765 513 765 488.5 765 c 0,44,45
 464 765 464 765 449.5 781 c 128,-1,36
 435 797 435 797 435 825 c 128,-1,37
EndSplineSet
EndChar

StartChar: udieresis
Encoding: 252 252 135
Width: 650
Flags: HMW
HStem: -10 85<262.5 306> 470 60 640 120<195 225 400 430>
VStem: 105 100<169 179 179 450 450 450> 440 100<154 450 450 450>
LayerCount: 2
Fore
SplineSet
540 530 m 1,0,-1
 540 80 l 1,1,-1
 625 60 l 1,2,-1
 625 5 l 1,3,-1
 460 0 l 1,4,-1
 450 70 l 1,5,6
 407.923753666 32.8739002933 407.923753666 32.8739002933 354.961876833 11.4369501466 c 128,-1,7
 302 -10 302 -10 265 -10 c 0,8,9
 185 -10 185 -10 145 37 c 128,-1,10
 105 84 105 84 105 169 c 2,11,-1
 105 450 l 1,12,-1
 20 470 l 1,13,-1
 20 525 l 1,14,-1
 205 530 l 1,15,-1
 205 179 l 2,16,17
 205 126 205 126 226 100.5 c 128,-1,18
 247 75 247 75 290 75 c 128,-1,19
 333 75 333 75 369 95 c 128,-1,20
 405 115 405 115 422.5 134.5 c 2,21,-1
 440 154 l 1,22,-1
 440 450 l 1,23,-1
 355 470 l 1,24,-1
 355 525 l 1,25,-1
 540 530 l 1,0,-1
155 700 m 128,-1,27
 155 728 155 728 171 744 c 128,-1,28
 187 760 187 760 211.5 760 c 128,-1,29
 236 760 236 760 250.5 744 c 128,-1,30
 265 728 265 728 265 700 c 128,-1,31
 265 672 265 672 249 656 c 128,-1,32
 233 640 233 640 208.5 640 c 128,-1,33
 184 640 184 640 169.5 656 c 128,-1,26
 155 672 155 672 155 700 c 128,-1,27
360 700 m 128,-1,35
 360 728 360 728 376 744 c 128,-1,36
 392 760 392 760 416.5 760 c 128,-1,37
 441 760 441 760 455.5 744 c 128,-1,38
 470 728 470 728 470 700 c 128,-1,39
 470 672 470 672 454 656 c 128,-1,40
 438 640 438 640 413.5 640 c 128,-1,41
 389 640 389 640 374.5 656 c 128,-1,34
 360 672 360 672 360 700 c 128,-1,35
EndSplineSet
EndChar

StartChar: ucircumflex
Encoding: 251 251 136
Width: 650
Flags: HMW
HStem: -10 85<262.5 306> 470 60
VStem: 105 100<169 179 179 450 450 450> 440 100<154 450 450 450>
LayerCount: 2
Fore
SplineSet
465 600 m 1,0,-1
 327 708 l 1,1,-1
 185 600 l 1,2,-1
 145 645 l 1,3,-1
 295 780 l 1,4,-1
 355 785 l 1,5,-1
 505 645 l 1,6,-1
 465 600 l 1,0,-1
540 530 m 1,7,-1
 540 80 l 1,8,-1
 625 60 l 1,9,-1
 625 5 l 1,10,-1
 460 0 l 1,11,-1
 450 70 l 1,12,13
 407.923753666 32.8739002933 407.923753666 32.8739002933 354.961876833 11.4369501466 c 128,-1,14
 302 -10 302 -10 265 -10 c 0,15,16
 185 -10 185 -10 145 37 c 128,-1,17
 105 84 105 84 105 169 c 2,18,-1
 105 450 l 1,19,-1
 20 470 l 1,20,-1
 20 525 l 1,21,-1
 205 530 l 1,22,-1
 205 179 l 2,23,24
 205 126 205 126 226 100.5 c 128,-1,25
 247 75 247 75 290 75 c 128,-1,26
 333 75 333 75 369 95 c 128,-1,27
 405 115 405 115 422.5 134.5 c 2,28,-1
 440 154 l 1,29,-1
 440 450 l 1,30,-1
 355 470 l 1,31,-1
 355 525 l 1,32,-1
 540 530 l 1,7,-1
EndSplineSet
EndChar

StartChar: Edieresis
Encoding: 203 203 137
Width: 625
Flags: HMW
HStem: 0 80<145 145 250 480> 325 80<250 480 250 480> 621 79 784 101
VStem: 144 105 365 110<806 844> 501 54
LayerCount: 2
Fore
SplineSet
465 620 m 1,0,-1
 250 620 l 1,1,-1
 250 405 l 1,2,-1
 480 405 l 1,3,-1
 480 325 l 1,4,-1
 250 325 l 1,5,-1
 250 80 l 1,6,-1
 480 80 l 1,7,-1
 500 180 l 1,8,-1
 565 180 l 1,9,-1
 565 0 l 1,10,-1
 60 0 l 1,11,-1
 60 60 l 1,12,-1
 145 80 l 1,13,-1
 145 620 l 1,14,-1
 60 640 l 1,15,-1
 60 695 l 1,16,-1
 250 700 l 1,17,-1
 555 700 l 1,18,-1
 555 530 l 1,19,-1
 490 530 l 1,20,-1
 465 620 l 1,0,-1
160 825 m 128,-1,22
 160 853 160 853 176 869 c 128,-1,23
 192 885 192 885 216.5 885 c 0,24,25
 241 885 241 885 255.5 869 c 128,-1,26
 270 853 270 853 270 825 c 128,-1,27
 270 797 270 797 254 781 c 128,-1,28
 238 765 238 765 213.5 765 c 0,29,30
 189 765 189 765 174.5 781 c 128,-1,21
 160 797 160 797 160 825 c 128,-1,22
365 825 m 128,-1,32
 365 853 365 853 381 869 c 128,-1,33
 397 885 397 885 421.5 885 c 0,34,35
 446 885 446 885 460.5 869 c 128,-1,36
 475 853 475 853 475 825 c 128,-1,37
 475 797 475 797 459 781 c 128,-1,38
 443 765 443 765 418.5 765 c 0,39,40
 394 765 394 765 379.5 781 c 128,-1,31
 365 797 365 797 365 825 c 128,-1,32
EndSplineSet
EndChar

StartChar: Idieresis
Encoding: 207 207 138
Width: 355
Flags: HMW
HStem: 0 80<125 125> 620 80 765 120<60 90 265 295>
VStem: 125 105<80 620 80 620>
LayerCount: 2
Fore
SplineSet
315 60 m 1,0,-1
 315 0 l 1,1,-1
 40 0 l 1,2,-1
 40 60 l 1,3,-1
 125 80 l 1,4,-1
 125 620 l 1,5,-1
 40 640 l 1,6,-1
 40 695 l 1,7,-1
 315 700 l 1,8,-1
 315 640 l 1,9,-1
 230 620 l 1,10,-1
 230 80 l 1,11,-1
 315 60 l 1,0,-1
20 825 m 128,-1,13
 20 853 20 853 36 869 c 128,-1,14
 52 885 52 885 76.5 885 c 0,15,16
 101 885 101 885 115.5 869 c 128,-1,17
 130 853 130 853 130 825 c 128,-1,18
 130 797 130 797 114 781 c 128,-1,19
 98 765 98 765 73.5 765 c 0,20,21
 49 765 49 765 34.5 781 c 128,-1,12
 20 797 20 797 20 825 c 128,-1,13
225 825 m 128,-1,23
 225 853 225 853 241 869 c 128,-1,24
 257 885 257 885 281.5 885 c 0,25,26
 306 885 306 885 320.5 869 c 128,-1,27
 335 853 335 853 335 825 c 128,-1,28
 335 797 335 797 319 781 c 128,-1,29
 303 765 303 765 278.5 765 c 0,30,31
 254 765 254 765 239.5 781 c 128,-1,22
 225 797 225 797 225 825 c 128,-1,23
EndSplineSet
EndChar

StartChar: Adieresis
Encoding: 196 196 139
Width: 725
Flags: HMW
HStem: 0 80 190 80<252 458 252 485 225 458> 680 20G<415 415> 765 120<275 305 480 510>
VStem: 235 110<806 844> 440 110<806 844>
LayerCount: 2
Fore
SplineSet
5 0 m 1,0,-1
 5 60 l 1,1,-1
 87 79 l 1,2,-1
 315 695 l 1,3,-1
 415 700 l 1,4,-1
 637 79 l 1,5,-1
 720 60 l 1,6,-1
 720 0 l 1,7,-1
 430 0 l 1,8,-1
 430 60 l 1,9,-1
 523 79 l 1,10,-1
 485 190 l 1,11,-1
 225 190 l 1,12,-1
 186 79 l 1,13,-1
 280 60 l 1,14,-1
 280 0 l 1,15,-1
 5 0 l 1,0,-1
357 571 m 1,16,-1
 252 270 l 1,17,-1
 458 270 l 1,18,-1
 357 571 l 1,16,-1
235 825 m 128,-1,20
 235 853 235 853 251 869 c 128,-1,21
 267 885 267 885 291.5 885 c 0,22,23
 316 885 316 885 330.5 869 c 128,-1,24
 345 853 345 853 345 825 c 128,-1,25
 345 797 345 797 329 781 c 128,-1,26
 313 765 313 765 288.5 765 c 0,27,28
 264 765 264 765 249.5 781 c 128,-1,19
 235 797 235 797 235 825 c 128,-1,20
440 825 m 128,-1,30
 440 853 440 853 456 869 c 128,-1,31
 472 885 472 885 496.5 885 c 0,32,33
 521 885 521 885 535.5 869 c 128,-1,34
 550 853 550 853 550 825 c 128,-1,35
 550 797 550 797 534 781 c 128,-1,36
 518 765 518 765 493.5 765 c 0,37,38
 469 765 469 765 454.5 781 c 128,-1,29
 440 797 440 797 440 825 c 128,-1,30
EndSplineSet
EndChar

StartChar: less
Encoding: 60 60 140
Width: 610
Flags: HMW
HStem: -5 21G<560 560> 510 20G<560 560>
LayerCount: 2
Fore
SplineSet
160 265 m 1,0,-1
 560 80 l 1,1,-1
 560 -5 l 1,2,-1
 50 230 l 1,3,-1
 50 300 l 1,4,-1
 560 530 l 1,5,-1
 560 445 l 1,6,-1
 160 265 l 1,0,-1
EndSplineSet
EndChar

StartChar: equal
Encoding: 61 61 141
Width: 600
Flags: HMW
HStem: 135 80<55 545 55 545> 330 80<55 545 55 545>
LayerCount: 2
Fore
SplineSet
55 135 m 1,0,-1
 55 215 l 1,1,-1
 545 215 l 1,2,-1
 545 135 l 1,3,-1
 55 135 l 1,0,-1
55 330 m 1,4,-1
 55 410 l 1,5,-1
 545 410 l 1,6,-1
 545 330 l 1,7,-1
 55 330 l 1,4,-1
EndSplineSet
EndChar

StartChar: greater
Encoding: 62 62 142
Width: 610
Flags: HMW
HStem: -5 21G<50 50> 510 20G<50 50>
LayerCount: 2
Fore
SplineSet
50 80 m 1,0,-1
 450 265 l 1,1,-1
 50 445 l 1,2,-1
 50 530 l 1,3,-1
 560 300 l 1,4,-1
 560 230 l 1,5,-1
 50 -5 l 1,6,-1
 50 80 l 1,0,-1
EndSplineSet
EndChar

StartChar: numbersign
Encoding: 35 35 143
Width: 690
Flags: HMW
HStem: 170 65<65 172 65 181 261 397 486 600> 380 66
LayerCount: 2
Fore
SplineSet
90 380 m 1,0,-1
 90 445 l 1,1,-1
 209 445 l 1,2,-1
 230 600 l 1,3,-1
 310 600 l 1,4,-1
 289 445 l 1,5,-1
 434 445 l 1,6,-1
 455 600 l 1,7,-1
 535 600 l 1,8,-1
 514 445 l 1,9,-1
 625 445 l 1,10,-1
 625 380 l 1,11,-1
 505 380 l 1,12,-1
 486 235 l 1,13,-1
 600 235 l 1,14,-1
 600 170 l 1,15,-1
 477 170 l 1,16,-1
 455 0 l 1,17,-1
 375 0 l 1,18,-1
 397 170 l 1,19,-1
 252 170 l 1,20,-1
 230 0 l 1,21,-1
 150 0 l 1,22,-1
 172 170 l 1,23,-1
 65 170 l 1,24,-1
 65 235 l 1,25,-1
 181 235 l 1,26,-1
 200 380 l 1,27,-1
 90 380 l 1,0,-1
280 380 m 1,28,-1
 261 235 l 1,29,-1
 406 235 l 1,30,-1
 425 380 l 1,31,-1
 280 380 l 1,28,-1
EndSplineSet
EndChar

StartChar: quotesingle
Encoding: 39 39 144
Width: 215
Flags: HMW
HStem: 520 250<65 140 65 160>
VStem: 65 85
LayerCount: 2
Fore
SplineSet
160 770 m 1,0,-1
 140 520 l 1,1,-1
 65 520 l 1,2,-1
 65 770 l 1,3,-1
 160 770 l 1,0,-1
EndSplineSet
EndChar

StartChar: bracketleft
Encoding: 91 91 145
Width: 345
Flags: HMW
HStem: -230 21G<90 90> 750 20G<90 90>
VStem: 90 95<-149 689 -149 770 -149 770>
LayerCount: 2
Fore
SplineSet
305 -160 m 1,0,-1
 305 -225 l 1,1,-1
 90 -230 l 1,2,-1
 90 770 l 1,3,-1
 305 765 l 1,4,-1
 305 700 l 1,5,-1
 185 689 l 1,6,-1
 185 -149 l 1,7,-1
 305 -160 l 1,0,-1
EndSplineSet
EndChar

StartChar: bracketright
Encoding: 93 93 146
Width: 345
Flags: HMW
HStem: -230 21G<255 255> 750 20G<255 255>
VStem: 163 92
LayerCount: 2
Fore
SplineSet
255 -230 m 1,0,-1
 40 -225 l 1,1,-1
 40 -160 l 1,2,-1
 160 -149 l 1,3,-1
 160 689 l 1,4,-1
 40 700 l 1,5,-1
 40 765 l 1,6,-1
 255 770 l 1,7,-1
 255 -230 l 1,0,-1
EndSplineSet
EndChar

StartChar: asciicircum
Encoding: 94 94 147
Width: 570
Flags: HMW
HStem: 320 21G<60 145 60 60 423 423 423 510> 680 20G<250 320 320 320>
LayerCount: 2
Fore
SplineSet
282 600 m 1,0,-1
 145 320 l 1,1,-1
 60 320 l 1,2,-1
 250 700 l 1,3,-1
 320 700 l 1,4,-1
 510 320 l 1,5,-1
 423 320 l 1,6,-1
 282 600 l 1,0,-1
EndSplineSet
EndChar

StartChar: parenright
Encoding: 41 41 148
Width: 330
Flags: HMW
HStem: -230 21G<0 89 0 0> 750 20G<-1 89 89 89>
VStem: 155 100<200 365>
LayerCount: 2
Fore
SplineSet
-1 770 m 1,0,-1
 89 770 l 1,1,2
 176 644 176 644 215.5 532.5 c 128,-1,3
 255 421 255 421 255 276 c 0,4,5
 255 131 255 131 215.5 11 c 128,-1,6
 176 -109 176 -109 89 -230 c 1,7,-1
 0 -230 l 1,8,9
 73 -127 73 -127 114 13.5 c 128,-1,10
 155 154 155 154 155 278.5 c 0,11,12
 155 403 155 403 113 531.5 c 128,-1,13
 71 660 71 660 -1 770 c 1,0,-1
EndSplineSet
EndChar

StartChar: parenleft
Encoding: 40 40 149
Width: 330
Flags: HMW
HStem: -230 21G<240 329 240 240> 750 20G<240 330 330 330>
VStem: 74 100<200 365 200 377.5>
LayerCount: 2
Fore
SplineSet
240 770 m 1,0,-1
 330 770 l 1,1,2
 258 660 258 660 216 531.5 c 128,-1,3
 174 403 174 403 174 278.5 c 0,4,5
 174 154 174 154 215 13.5 c 128,-1,6
 256 -127 256 -127 329 -230 c 1,7,-1
 240 -230 l 1,8,9
 153 -109 153 -109 113.5 11 c 128,-1,10
 74 131 74 131 74 276 c 0,11,12
 74 421 74 421 113.5 532.5 c 128,-1,13
 153 644 153 644 240 770 c 1,0,-1
EndSplineSet
EndChar

StartChar: bar
Encoding: 124 124 150
Width: 280
Flags: HMW
HStem: -230 21G<100 180 100 100> 735 20G<100 180 180 180>
VStem: 100 80<-230 755 -230 755>
LayerCount: 2
Fore
SplineSet
180 755 m 1,0,-1
 180 -230 l 1,1,-1
 100 -230 l 1,2,-1
 100 755 l 1,3,-1
 180 755 l 1,0,-1
EndSplineSet
EndChar

StartChar: asciitilde
Encoding: 126 126 151
Width: 626
Flags: HMW
HStem: 195 80<386 453.5 386 466.5> 265 80<168.5 235>
LayerCount: 2
Fore
SplineSet
106 209 m 1,0,-1
 60 245 l 1,1,2
 65.5 256 l 2,3,4
 69 263 69 263 83 280 c 128,-1,5
 97 297 97 297 112.5 310 c 128,-1,6
 128 323 128 323 155 334 c 128,-1,7
 182 345 182 345 220.5 345 c 128,-1,8
 259 345 259 345 323.5 310 c 128,-1,9
 388 275 388 275 419 275 c 128,-1,10
 450 275 450 275 473.5 290 c 128,-1,11
 497 305 497 305 508.5 320 c 2,12,-1
 520 335 l 1,13,-1
 566 299 l 1,14,15
 560.6 288.2 560.6 288.2 543.8 266.6 c 128,-1,16
 527 245 527 245 511.5 231 c 128,-1,17
 496 217 496 217 471 206 c 128,-1,18
 446 195 446 195 421 195 c 0,19,20
 373 195 373 195 303 230 c 128,-1,21
 233 265 233 265 202.5 265 c 128,-1,22
 172 265 172 265 149.5 251 c 128,-1,23
 127 237 127 237 116.5 223 c 2,24,-1
 106 209 l 1,0,-1
EndSplineSet
EndChar

StartChar: Ccedilla
Encoding: 199 199 152
Width: 645
Flags: HMW
HStem: -10 90 625 85<297.5 402.5>
VStem: 40 115<250 432.5 250 450>
LayerCount: 2
Fore
SplineSet
595 491 m 1,0,-1
 520 491 l 1,1,-1
 493 605 l 1,2,3
 440 625 440 625 365 625 c 0,4,5
 264 625 264 625 209.5 551.5 c 128,-1,6
 155 478 155 478 155 344 c 128,-1,7
 155 210 155 210 213.5 145 c 128,-1,8
 272 80 272 80 370 80 c 0,9,10
 417 80 417 80 467 100 c 128,-1,11
 517 120 517 120 543.5 140 c 2,12,-1
 570 160 l 1,13,-1
 610 95 l 1,14,15
 558.19047619 43.1904761905 558.19047619 43.1904761905 474 11 c 0,16,17
 440 -2 440 -2 405 -7 c 1,18,-1
 405 -44 l 1,19,20
 490 -59 490 -59 490 -133 c 0,21,22
 490 -171 490 -171 458 -195.5 c 128,-1,23
 426 -220 426 -220 388.5 -220 c 0,24,25
 325 -220 325 -220 278 -196.5 c 2,26,-1
 263 -189 l 1,27,-1
 289 -147 l 1,28,29
 335 -170 335 -170 364.5 -170 c 0,30,31
 420 -170 420 -170 420 -130 c 0,32,33
 420 -107 420 -107 398.5 -93.5 c 128,-1,34
 377 -80 377 -80 340 -80 c 1,35,-1
 340 -9 l 1,36,37
 197 -3 197 -3 118.5 85 c 128,-1,38
 40 173 40 173 40 340 c 128,-1,39
 40 507 40 507 130.5 608.5 c 128,-1,40
 221 710 221 710 375 710 c 0,41,42
 424 710 424 710 480 697.5 c 128,-1,43
 536 685 536 685 568 672.5 c 2,44,-1
 600 660 l 1,45,-1
 595 491 l 1,0,-1
EndSplineSet
EndChar

StartChar: guillemotleft
Encoding: 171 171 153
Width: 540
Flags: HMW
HStem: 75 21G<200 200 420 420> 435 20G<200 200 420 420>
LayerCount: 2
Fore
SplineSet
365 265 m 1,0,-1
 480 115 l 1,1,-1
 420 75 l 1,2,-1
 275 235 l 1,3,-1
 275 295 l 1,4,-1
 420 455 l 1,5,-1
 480 415 l 1,6,-1
 365 265 l 1,0,-1
150 265 m 1,7,-1
 260 115 l 1,8,-1
 200 75 l 1,9,-1
 60 235 l 1,10,-1
 60 295 l 1,11,-1
 200 455 l 1,12,-1
 260 415 l 1,13,-1
 150 265 l 1,7,-1
EndSplineSet
EndChar

StartChar: guillemotright
Encoding: 187 187 154
Width: 540
Flags: HMW
HStem: 75 21G<120 120 340 340> 435 20G<120 120 340 340>
LayerCount: 2
Fore
SplineSet
60 115 m 1,0,-1
 175 265 l 1,1,-1
 60 415 l 1,2,-1
 120 455 l 1,3,-1
 265 295 l 1,4,-1
 265 235 l 1,5,-1
 120 75 l 1,6,-1
 60 115 l 1,0,-1
280 115 m 1,7,-1
 390 265 l 1,8,-1
 280 415 l 1,9,-1
 340 455 l 1,10,-1
 480 295 l 1,11,-1
 480 235 l 1,12,-1
 340 75 l 1,13,-1
 280 115 l 1,7,-1
EndSplineSet
EndChar

StartChar: emdash
Encoding: 8212 8212 155
Width: 970
Flags: HMW
HStem: 285 80<0 970 0 970>
LayerCount: 2
Fore
SplineSet
0 285 m 1,0,-1
 0 365 l 1,1,-1
 970 365 l 1,2,-1
 970 285 l 1,3,-1
 0 285 l 1,0,-1
EndSplineSet
EndChar

StartChar: divide
Encoding: 247 247 156
Width: 620
Flags: HMW
HStem: -10 140<292.5 327.5> 225 80<50 570 50 570> 400 140<292.5 327.5>
VStem: 245 130<37.5 82.5 447.5 492.5>
CounterMasks: 1 e0
LayerCount: 2
Fore
SplineSet
262.5 8.5 m 128,-1,1
 245 27 245 27 245 59.5 c 128,-1,2
 245 92 245 92 263.5 111 c 128,-1,3
 282 130 282 130 311 130 c 128,-1,4
 340 130 340 130 357.5 111.5 c 128,-1,5
 375 93 375 93 375 60.5 c 128,-1,6
 375 28 375 28 356.5 9 c 128,-1,7
 338 -10 338 -10 309 -10 c 128,-1,0
 280 -10 280 -10 262.5 8.5 c 128,-1,1
262.5 418.5 m 128,-1,9
 245 437 245 437 245 469.5 c 128,-1,10
 245 502 245 502 263.5 521 c 128,-1,11
 282 540 282 540 311 540 c 128,-1,12
 340 540 340 540 357.5 521.5 c 128,-1,13
 375 503 375 503 375 470.5 c 128,-1,14
 375 438 375 438 356.5 419 c 128,-1,15
 338 400 338 400 309 400 c 128,-1,8
 280 400 280 400 262.5 418.5 c 128,-1,9
50 225 m 1,16,-1
 50 305 l 1,17,-1
 570 305 l 1,18,-1
 570 225 l 1,19,-1
 50 225 l 1,16,-1
EndSplineSet
EndChar

StartChar: fraction
Encoding: 8260 8260 157
Width: 565
Flags: HMW
HStem: -45 21G<55 55> 730 20G<505 505>
LayerCount: 2
Fore
SplineSet
-15 0 m 1,0,-1
 505 750 l 1,1,-1
 575 705 l 1,2,-1
 55 -45 l 1,3,-1
 -15 0 l 1,0,-1
EndSplineSet
EndChar

StartChar: guilsinglleft
Encoding: 8249 8249 158
Width: 315
Flags: HMW
HStem: 75 21G<200 200> 435 20G<200 200>
LayerCount: 2
Fore
SplineSet
145 265 m 1,0,-1
 260 115 l 1,1,-1
 200 75 l 1,2,-1
 55 235 l 1,3,-1
 55 295 l 1,4,-1
 200 455 l 1,5,-1
 260 415 l 1,6,-1
 145 265 l 1,0,-1
EndSplineSet
EndChar

StartChar: guilsinglright
Encoding: 8250 8250 159
Width: 315
Flags: HMW
HStem: 75 21G<120 120> 435 20G<120 120>
LayerCount: 2
Fore
SplineSet
60 115 m 1,0,-1
 175 265 l 1,1,-1
 60 415 l 1,2,-1
 120 455 l 1,3,-1
 265 295 l 1,4,-1
 265 235 l 1,5,-1
 120 75 l 1,6,-1
 60 115 l 1,0,-1
EndSplineSet
EndChar

StartChar: periodcentered
Encoding: 183 183 160
Width: 260
Flags: HMW
HStem: 233 144<111.5 148.5>
VStem: 63 134<281.5 328.5>
LayerCount: 2
Fore
SplineSet
80.5 251.5 m 128,-1,1
 63 270 63 270 63 304.5 c 128,-1,2
 63 339 63 339 82 358 c 128,-1,3
 101 377 101 377 131.5 377 c 128,-1,4
 162 377 162 377 179.5 358.5 c 128,-1,5
 197 340 197 340 197 305.5 c 128,-1,6
 197 271 197 271 178 252 c 128,-1,7
 159 233 159 233 128.5 233 c 128,-1,0
 98 233 98 233 80.5 251.5 c 128,-1,1
EndSplineSet
EndChar

StartChar: quotesinglbase
Encoding: 8218 8218 161
Width: 280
Flags: HMW
HStem: -174 21G<100 100> 90 20G<130.5 167.5>
VStem: 108 107<-48 64>
LayerCount: 2
Fore
SplineSet
55 -136 m 1,0,1
 108 -66 108 -66 108 -30 c 0,2,3
 108 -22 108 -22 96.5 1 c 128,-1,4
 85 24 85 24 85 48 c 0,5,6
 85 72 85 72 103 91 c 128,-1,7
 121 110 121 110 150 110 c 0,8,9
 215 110 215 110 215 36 c 0,10,11
 215 -51 215 -51 100 -174 c 1,12,-1
 55 -136 l 1,0,1
EndSplineSet
EndChar

StartChar: quotedblbase
Encoding: 8222 8222 162
Width: 475
Flags: HMW
HStem: -174 21G<100 100 295 295> 90 20G<130.5 167.5 325.5 362.5>
VStem: 108 107<-48 64> 303 107<-48 64>
LayerCount: 2
Fore
SplineSet
55 -136 m 1,0,1
 108 -66 108 -66 108 -30 c 0,2,3
 108 -22 108 -22 96.5 1 c 128,-1,4
 85 24 85 24 85 48 c 0,5,6
 85 72 85 72 103 91 c 128,-1,7
 121 110 121 110 150 110 c 0,8,9
 215 110 215 110 215 36 c 0,10,11
 215 -51 215 -51 100 -174 c 1,12,-1
 55 -136 l 1,0,1
250 -136 m 1,13,14
 303 -66 303 -66 303 -30 c 0,15,16
 303 -22 303 -22 291.5 1 c 128,-1,17
 280 24 280 24 280 48 c 0,18,19
 280 72 280 72 298 91 c 128,-1,20
 316 110 316 110 345 110 c 0,21,22
 410 110 410 110 410 36 c 0,23,24
 410 -51 410 -51 295 -174 c 1,25,-1
 250 -136 l 1,13,14
EndSplineSet
EndChar

StartChar: ordmasculine
Encoding: 186 186 163
Width: 495
Flags: HMW
HStem: 165 60 315 70<220 280 220 302.5> 640 70<220 280>
VStem: 60 85<467.5 555 467.5 567.5> 350 85<470 555>
LayerCount: 2
Fore
SplineSet
114 654 m 128,-1,1
 168 710 168 710 254.5 710 c 128,-1,2
 341 710 341 710 388 660 c 128,-1,3
 435 610 435 610 435 518 c 128,-1,4
 435 426 435 426 383 370.5 c 128,-1,5
 331 315 331 315 244.5 315 c 128,-1,6
 158 315 158 315 109 363.5 c 128,-1,7
 60 412 60 412 60 505 c 128,-1,0
 60 598 60 598 114 654 c 128,-1,1
323 607 m 128,-1,9
 296 640 296 640 249.5 640 c 128,-1,10
 203 640 203 640 174 607.5 c 128,-1,11
 145 575 145 575 145 512 c 128,-1,12
 145 449 145 449 174 417 c 128,-1,13
 203 385 203 385 250 385 c 128,-1,14
 297 385 297 385 323.5 417.5 c 128,-1,15
 350 450 350 450 350 512 c 128,-1,8
 350 574 350 574 323 607 c 128,-1,9
70 165 m 1,16,-1
 70 235 l 1,17,-1
 425 235 l 1,18,-1
 425 165 l 1,19,-1
 70 165 l 1,16,-1
EndSplineSet
EndChar

StartChar: plusminus
Encoding: 177 177 164
Width: 615
Flags: HMW
HStem: 0 78<55 560 55 560> 302 78<55 265 55 265 350 560>
VStem: 265 85<140 302 140 302 380 540>
LayerCount: 2
Fore
SplineSet
55 302 m 1,0,-1
 55 380 l 1,1,-1
 265 380 l 1,2,-1
 265 540 l 1,3,-1
 350 540 l 1,4,-1
 350 380 l 1,5,-1
 560 380 l 1,6,-1
 560 302 l 1,7,-1
 350 302 l 1,8,-1
 350 140 l 1,9,-1
 265 140 l 1,10,-1
 265 302 l 1,11,-1
 55 302 l 1,0,-1
55 0 m 1,12,-1
 55 78 l 1,13,-1
 560 78 l 1,14,-1
 560 0 l 1,15,-1
 55 0 l 1,12,-1
EndSplineSet
EndChar

StartChar: lessequal
Encoding: 8804 8804 165
Width: 615
Flags: HMW
HStem: 0 78<55 560 55 560> 135 21G<560 560> 530 20G<560 560>
VStem: 165 395<0 345>
LayerCount: 2
Fore
SplineSet
55 0 m 1,0,-1
 55 78 l 1,1,-1
 560 78 l 1,2,-1
 560 0 l 1,3,-1
 55 0 l 1,0,-1
165 345 m 1,4,-1
 560 215 l 1,5,-1
 560 135 l 1,6,-1
 55 310 l 1,7,-1
 55 380 l 1,8,-1
 560 550 l 1,9,-1
 560 470 l 1,10,-1
 165 345 l 1,4,-1
EndSplineSet
EndChar

StartChar: greaterequal
Encoding: 8805 8805 166
Width: 615
Flags: HMW
HStem: 0 78<55 560 55 560> 530 20G<55 55>
VStem: 55 397
LayerCount: 2
Fore
SplineSet
560 78 m 1,0,-1
 560 0 l 1,1,-1
 55 0 l 1,2,-1
 55 78 l 1,3,-1
 560 78 l 1,0,-1
55 215 m 1,4,-1
 450 345 l 1,5,-1
 55 470 l 1,6,-1
 55 550 l 1,7,-1
 560 380 l 1,8,-1
 560 310 l 1,9,-1
 55 135 l 1,10,-1
 55 215 l 1,4,-1
EndSplineSet
EndChar

StartChar: Zcaron
Encoding: 381 381 167
Width: 615
Flags: HMW
HStem: 0 80<175 485 175 570> 620 80<160 440 160 160> 769 161
VStem: 70 65<520 700> 485 85<80 80>
LayerCount: 2
Fore
SplineSet
305 820 m 1,0,-1
 445 930 l 1,1,-1
 480 885 l 1,2,-1
 335 745 l 1,3,-1
 275 745 l 1,4,-1
 123 885 l 1,5,-1
 165 930 l 1,6,-1
 305 820 l 1,0,-1
70 700 m 1,7,-1
 575 700 l 1,8,-1
 575 630 l 1,9,-1
 175 80 l 1,10,-1
 485 80 l 1,11,-1
 505 180 l 1,12,-1
 570 180 l 1,13,-1
 570 0 l 1,14,-1
 40 0 l 1,15,-1
 40 70 l 1,16,-1
 440 620 l 1,17,-1
 160 620 l 1,18,-1
 135 520 l 1,19,-1
 70 520 l 1,20,-1
 70 700 l 1,7,-1
EndSplineSet
EndChar

StartChar: zcaron
Encoding: 382 382 168
Width: 475
Flags: HMW
HStem: 0 75<147 351 35 35> 455 75<139 327 139 139 55 440> 601 184
VStem: 35 400<0 75 75 75>
LayerCount: 2
Fore
SplineSet
55 380 m 1,0,-1
 55 530 l 1,1,-1
 440 530 l 1,2,-1
 440 455 l 1,3,-1
 147 75 l 1,4,-1
 351 75 l 1,5,-1
 365 155 l 1,6,-1
 435 155 l 1,7,-1
 435 0 l 1,8,-1
 35 0 l 1,9,-1
 35 75 l 1,10,-1
 327 455 l 1,11,-1
 139 455 l 1,12,-1
 125 380 l 1,13,-1
 55 380 l 1,0,-1
240 675 m 1,14,-1
 380 785 l 1,15,-1
 415 740 l 1,16,-1
 270 600 l 1,17,-1
 210 600 l 1,18,-1
 58 740 l 1,19,-1
 100 785 l 1,20,-1
 240 675 l 1,14,-1
EndSplineSet
EndChar

StartChar: quoteleft
Encoding: 8216 8216 169
Width: 280
Flags: HMW
HStem: 496 21G<112.5 149.5> 760 20G<180 180>
VStem: 65 107<542 654>
LayerCount: 2
Fore
SplineSet
183.5 605 m 128,-1,1
 195 582 195 582 195 558 c 128,-1,2
 195 534 195 534 177 515 c 128,-1,3
 159 496 159 496 130 496 c 0,4,5
 65 496 65 496 65 570 c 0,6,7
 65 657 65 657 180 780 c 1,8,-1
 225 742 l 1,9,10
 172 672 172 672 172 636 c 0,11,0
 172 628 172 628 183.5 605 c 128,-1,1
EndSplineSet
EndChar

StartChar: quoteright
Encoding: 8217 8217 170
Width: 280
Flags: HMW
HStem: 496 21G<100 100> 760 20G<130.5 167.5>
VStem: 125 90
LayerCount: 2
Fore
SplineSet
55 534 m 1,0,1
 108 604 108 604 108 640 c 0,2,3
 108 648 108 648 96.5 671 c 128,-1,4
 85 694 85 694 85 718 c 0,5,6
 85 742 85 742 103 761 c 128,-1,7
 121 780 121 780 150 780 c 0,8,9
 215 780 215 780 215 706 c 0,10,11
 215 619 215 619 100 496 c 1,12,-1
 55 534 l 1,0,1
EndSplineSet
EndChar

StartChar: ring
Encoding: 730 730 171
Width: 390
Flags: HMW
HStem: 595 50<177.5 210.5 177.5 223.5> 770 50<179.5 212.5>
VStem: 80 60<687 727 687 740.5> 250 60<688 728>
LayerCount: 2
Fore
SplineSet
80 705 m 128,-1,1
 80 756 80 756 115 788 c 128,-1,2
 150 820 150 820 195.5 820 c 0,3,4
 241 820 241 820 275.5 790.5 c 128,-1,5
 310 761 310 761 310 710 c 128,-1,6
 310 659 310 659 275 627 c 128,-1,7
 240 595 240 595 194.5 595 c 0,8,9
 149 595 149 595 114.5 624.5 c 128,-1,0
 80 654 80 654 80 705 c 128,-1,1
140 707 m 0,10,11
 140 645 140 645 195 645 c 0,12,13
 219 645 219 645 234.5 662 c 128,-1,14
 250 679 250 679 250 708 c 0,15,16
 250 770 250 770 195 770 c 0,17,18
 171 770 171 770 155.5 753 c 128,-1,19
 140 736 140 736 140 707 c 0,10,11
EndSplineSet
EndChar

StartChar: hungarumlaut
Encoding: 733 733 172
Width: 580
Flags: HMW
HStem: 635 21G<130 130 330 330> 830 20G<250 250 450 450>
LayerCount: 2
Fore
SplineSet
510 785 m 1,0,-1
 330 635 l 1,1,-1
 285 685 l 1,2,-1
 450 850 l 1,3,-1
 510 785 l 1,0,-1
310 785 m 1,4,-1
 130 635 l 1,5,-1
 85 685 l 1,6,-1
 250 850 l 1,7,-1
 310 785 l 1,4,-1
EndSplineSet
EndChar

StartChar: eogonek
Encoding: 281 281 173
Width: 530
Flags: HMW
HStem: -220 60<356.5 364> -10 80<247 285> 251 74 462 78<240 320>
VStem: 40 105<195 250 195 340> 244 80<-130 -103> 389 106<325 362.5>
LayerCount: 2
Fore
SplineSet
458 125 m 1,0,-1
 493 73 l 1,1,2
 447.88372093 43.6744186047 447.88372093 43.6744186047 406.441860465 6.83720930233 c 0,3,4
 324 -66.4444444444 324 -66.4444444444 324 -115 c 0,5,6
 324 -137 324 -137 336.5 -148.5 c 128,-1,7
 349 -160 349 -160 369 -160 c 1,8,-1
 414 -153 l 1,9,-1
 424 -200 l 1,10,11
 384 -220 384 -220 342.5 -220 c 128,-1,12
 301 -220 301 -220 272.5 -194.5 c 128,-1,13
 244 -169 244 -169 244 -125 c 0,14,15
 244 -68 244 -68 312 -7 c 1,16,17
 296 -10 296 -10 280 -10 c 0,18,19
 162 -10 162 -10 101 61.5 c 128,-1,20
 40 133 40 133 40 257 c 128,-1,21
 40 381 40 381 108.5 460.5 c 128,-1,22
 177 540 177 540 285 540 c 0,23,24
 495 540 495 540 495 305 c 1,25,-1
 490 252 l 1,26,-1
 145 250 l 1,27,28
 145 168 145 168 185 119 c 128,-1,29
 225 70 225 70 290 70 c 0,30,31
 334 70 334 70 376 84 c 128,-1,32
 418 98 418 98 438 111.5 c 2,33,-1
 458 125 l 1,0,-1
149 325 m 1,34,-1
 389 325 l 1,35,36
 389 386 389 386 363 424 c 128,-1,37
 337 462 337 462 279.5 462 c 128,-1,38
 222 462 222 462 188 423 c 128,-1,39
 154 384 154 384 149 325 c 1,34,-1
EndSplineSet
EndChar

StartChar: ydieresis
Encoding: 255 255 174
Width: 575
Flags: HMW
HStem: -240 75<82.5 90 90 125 40 177.5> 510 20G<245 245 572 572> 640 120<175 205 380 410>
VStem: 135 110<681 719> 340 110<681 719>
LayerCount: 2
Fore
SplineSet
70 455 m 1,0,-1
 10 470 l 1,1,-1
 10 525 l 1,2,-1
 245 530 l 1,3,-1
 245 470 l 1,4,-1
 175 460 l 1,5,-1
 295 110 l 1,6,-1
 405 455 l 1,7,-1
 335 470 l 1,8,-1
 335 525 l 1,9,-1
 572 530 l 1,10,-1
 572 470 l 1,11,-1
 507 460 l 1,12,-1
 365 64 l 1,13,14
 315.047907232 -67.0064319777 315.047907232 -67.0064319777 290.787432642 -109.894352959 c 0,15,16
 216.132301915 -239.277851337 216.132301915 -239.277851337 95 -240 c 1,17,-1
 31 -235 l 1,18,-1
 40 -165 l 1,19,-1
 90 -165 l 2,20,21
 139 -165 139 -165 175.5 -124 c 128,-1,22
 212 -83 212 -83 249 -2 c 1,23,-1
 70 455 l 1,0,-1
135 700 m 128,-1,25
 135 728 135 728 151 744 c 128,-1,26
 167 760 167 760 191.5 760 c 0,27,28
 216 760 216 760 230.5 744 c 128,-1,29
 245 728 245 728 245 700 c 128,-1,30
 245 672 245 672 229 656 c 128,-1,31
 213 640 213 640 188.5 640 c 0,32,33
 164 640 164 640 149.5 656 c 128,-1,24
 135 672 135 672 135 700 c 128,-1,25
340 700 m 128,-1,35
 340 728 340 728 356 744 c 128,-1,36
 372 760 372 760 396.5 760 c 0,37,38
 421 760 421 760 435.5 744 c 128,-1,39
 450 728 450 728 450 700 c 128,-1,40
 450 672 450 672 434 656 c 128,-1,41
 418 640 418 640 393.5 640 c 0,42,43
 369 640 369 640 354.5 656 c 128,-1,34
 340 672 340 672 340 700 c 128,-1,35
EndSplineSet
EndChar

StartChar: Ydieresis
Encoding: 376 376 175
Width: 645
Flags: HMW
HStem: 0 80<270 270> 620 80<192 260> 765 120<200 230 405 435>
VStem: 160 110<806 844> 270 105<80 259 259 259> 365 110<806 844>
LayerCount: 2
Fore
SplineSet
185 0 m 1,0,-1
 185 60 l 1,1,-1
 270 80 l 1,2,-1
 270 259 l 1,3,-1
 77 621 l 1,4,-1
 10 640 l 1,5,-1
 10 695 l 1,6,-1
 260 700 l 1,7,-1
 260 640 l 1,8,-1
 192 620 l 1,9,-1
 325 340 l 1,10,-1
 472 620 l 1,11,-1
 395 640 l 1,12,-1
 395 695 l 1,13,-1
 635 700 l 1,14,-1
 635 640 l 1,15,-1
 573 622 l 1,16,-1
 375 261 l 1,17,-1
 375 80 l 1,18,-1
 460 60 l 1,19,-1
 460 0 l 1,20,-1
 185 0 l 1,0,-1
160 825 m 128,-1,22
 160 853 160 853 176 869 c 128,-1,23
 192 885 192 885 216.5 885 c 0,24,25
 241 885 241 885 255.5 869 c 128,-1,26
 270 853 270 853 270 825 c 128,-1,27
 270 797 270 797 254 781 c 128,-1,28
 238 765 238 765 213.5 765 c 0,29,30
 189 765 189 765 174.5 781 c 128,-1,21
 160 797 160 797 160 825 c 128,-1,22
365 825 m 128,-1,32
 365 853 365 853 381 869 c 128,-1,33
 397 885 397 885 421.5 885 c 0,34,35
 446 885 446 885 460.5 869 c 128,-1,36
 475 853 475 853 475 825 c 128,-1,37
 475 797 475 797 459 781 c 128,-1,38
 443 765 443 765 418.5 765 c 0,39,40
 394 765 394 765 379.5 781 c 128,-1,31
 365 797 365 797 365 825 c 128,-1,32
EndSplineSet
EndChar

StartChar: cent
Encoding: 162 162 176
Width: 510
Flags: HMW
HStem: -10 80 665 36
VStem: 45 99
LayerCount: 2
Fore
SplineSet
315 700 m 1,0,-1
 315 608 l 1,1,2
 351 606 351 606 388.5 595 c 128,-1,3
 426 584 426 584 445.5 574.5 c 2,4,-1
 465 565 l 1,5,-1
 460 435 l 1,6,-1
 395 435 l 1,7,-1
 380 520 l 1,8,9
 345 530 345 530 295 530 c 0,10,11
 220 530 220 530 185 491.5 c 128,-1,12
 150 453 150 453 150 370 c 0,13,14
 150 190 150 190 300 190 c 0,15,16
 338 190 338 190 373 202.5 c 128,-1,17
 408 215 408 215 424 227.5 c 2,18,-1
 440 240 l 1,19,-1
 479 185 l 1,20,21
 451.368794326 160.822695035 451.368794326 160.822695035 403.184397163 138.411347518 c 128,-1,22
 355 116 355 116 315 111 c 1,23,-1
 315 0 l 1,24,-1
 240 0 l 1,25,-1
 240 113 l 1,26,27
 144 127 144 127 94.5 192 c 128,-1,28
 45 257 45 257 45 356 c 128,-1,29
 45 455 45 455 95.5 521.5 c 128,-1,30
 146 588 146 588 240 604 c 1,31,-1
 240 700 l 1,32,-1
 315 700 l 1,0,-1
EndSplineSet
EndChar

StartChar: bullet
Encoding: 8226 8226 177
Width: 505
Flags: HMW
HStem: 155 21G<201 289> 455 20G<201 289>
LayerCount: 2
Fore
SplineSet
85 315 m 128,-1,1
 85 381 85 381 132 428 c 128,-1,2
 179 475 179 475 245 475 c 128,-1,3
 311 475 311 475 358 428 c 128,-1,4
 405 381 405 381 405 315 c 128,-1,5
 405 249 405 249 358 202 c 128,-1,6
 311 155 311 155 245 155 c 128,-1,7
 179 155 179 155 132 202 c 128,-1,0
 85 249 85 249 85 315 c 128,-1,1
EndSplineSet
EndChar

StartChar: degree
Encoding: 176 176 178
Width: 410
Flags: HMW
HStem: 435 60<177.5 232.5 177.5 250> 675 60<180 230>
VStem: 50 70<560 617.5 560 630> 290 70<560 617.5>
LayerCount: 2
Fore
SplineSet
93 475 m 128,-1,1
 50 515 50 515 50 583.5 c 128,-1,2
 50 652 50 652 93.5 693.5 c 128,-1,3
 137 735 137 735 205.5 735 c 128,-1,4
 274 735 274 735 317 695.5 c 128,-1,5
 360 656 360 656 360 588 c 128,-1,6
 360 520 360 520 316.5 477.5 c 128,-1,7
 273 435 273 435 204.5 435 c 128,-1,0
 136 435 136 435 93 475 c 128,-1,1
143.5 652.5 m 128,-1,9
 120 630 120 630 120 587.5 c 128,-1,10
 120 545 120 545 142 520 c 128,-1,11
 164 495 164 495 205 495 c 128,-1,12
 246 495 246 495 268 520 c 128,-1,13
 290 545 290 545 290 587.5 c 128,-1,14
 290 630 290 630 266.5 652.5 c 128,-1,15
 243 675 243 675 205 675 c 128,-1,8
 167 675 167 675 143.5 652.5 c 128,-1,9
EndSplineSet
EndChar

StartChar: onehalf
Encoding: 189 189 179
Width: 950
Flags: HMW
HStem: 0 71<700 895 700 895> 280 65<85 180 265 350 85 180> 360 65<702 748> 680 20G<191 265 265 265 630 720 720 720>
VStem: 180 85<345 610 610 610> 795 90<267.5 317.5>
LayerCount: 2
Fore
SplineSet
225 0 m 1,0,-1
 630 700 l 1,1,-1
 720 700 l 1,2,-1
 315 0 l 1,3,-1
 225 0 l 1,0,-1
350 345 m 1,4,-1
 350 280 l 1,5,-1
 85 280 l 1,6,-1
 85 345 l 1,7,-1
 180 345 l 1,8,-1
 180 610 l 1,9,-1
 75 545 l 1,10,-1
 40 605 l 1,11,-1
 191 700 l 1,12,-1
 265 700 l 1,13,-1
 265 345 l 1,14,-1
 350 345 l 1,4,-1
580 0 m 1,15,-1
 580 69 l 1,16,17
 620.533333333 103.133333333 620.533333333 103.133333333 652.266666667 128.066666667 c 128,-1,18
 684 153 684 153 704.5 170.5 c 128,-1,19
 725 188 725 188 734 196.5 c 128,-1,20
 743 205 743 205 756 218 c 128,-1,21
 769 231 769 231 774 239.5 c 128,-1,22
 779 248 779 248 785 259 c 0,23,24
 795 277.333333333 795 277.333333333 795 300 c 0,25,26
 795 360 795 360 720 360 c 0,27,28
 688 360 688 360 658 350 c 1,29,-1
 651 290 l 1,30,-1
 591 290 l 1,31,-1
 588 399 l 1,32,33
 660 425 660 425 723 425 c 0,34,35
 885 425 885 425 885 305 c 0,36,37
 885 248 885 248 848 203 c 128,-1,38
 811 158 811 158 700 71 c 1,39,-1
 895 71 l 1,40,-1
 895 0 l 1,41,-1
 580 0 l 1,15,-1
EndSplineSet
EndChar

StartChar: onequarter
Encoding: 188 188 180
Width: 970
Flags: HMW
HStem: 0 21G<225 225 225 315 765 850 765 765> 91 65<636 765 636 765 850 920> 280 65<85 180 265 350 85 180> 680 20G<191 265 265 265 630 720 720 720>
VStem: 180 85<345 610 610 610> 765 85<0 91 0 91 156 335 335 335>
LayerCount: 2
Fore
SplineSet
549 150 m 1,0,-1
 752 430 l 1,1,-1
 850 420 l 1,2,-1
 850 156 l 1,3,-1
 920 156 l 1,4,-1
 920 91 l 1,5,-1
 850 91 l 1,6,-1
 850 0 l 1,7,-1
 765 0 l 1,8,-1
 765 91 l 1,9,-1
 555 91 l 1,10,-1
 549 150 l 1,0,-1
765 335 m 1,11,-1
 636 156 l 1,12,-1
 765 156 l 1,13,-1
 765 335 l 1,11,-1
225 0 m 1,14,-1
 630 700 l 1,15,-1
 720 700 l 1,16,-1
 315 0 l 1,17,-1
 225 0 l 1,14,-1
350 345 m 1,18,-1
 350 280 l 1,19,-1
 85 280 l 1,20,-1
 85 345 l 1,21,-1
 180 345 l 1,22,-1
 180 610 l 1,23,-1
 75 545 l 1,24,-1
 40 605 l 1,25,-1
 191 700 l 1,26,-1
 265 700 l 1,27,-1
 265 345 l 1,28,-1
 350 345 l 1,18,-1
EndSplineSet
EndChar

StartChar: onesuperior
Encoding: 185 185 181
Width: 350
Flags: HMW
HStem: 280 65<60 155 240 330 60 155> 680 20G<166 240 240 240>
VStem: 155 85<345 610 610 610>
LayerCount: 2
Fore
SplineSet
330 345 m 1,0,-1
 330 280 l 1,1,-1
 60 280 l 1,2,-1
 60 345 l 1,3,-1
 155 345 l 1,4,-1
 155 610 l 1,5,-1
 50 545 l 1,6,-1
 15 605 l 1,7,-1
 166 700 l 1,8,-1
 240 700 l 1,9,-1
 240 345 l 1,10,-1
 330 345 l 1,0,-1
EndSplineSet
EndChar

StartChar: threequarters
Encoding: 190 190 182
Width: 963
Flags: HMW
HStem: 0 21G<218 218 218 308 758 758 758 843> 91 65<629 758 629 758 843 913> 275 67<146.5 204 146.5 224> 463 61<125 166 125 171> 640 66
VStem: 54 58<575 575> 232 116 758 85<0 91 0 91 156 335 335 335>
LayerCount: 2
Fore
SplineSet
218 0 m 1,0,-1
 623 700 l 1,1,-1
 713 700 l 1,2,-1
 308 0 l 1,3,-1
 218 0 l 1,0,-1
112 575 m 1,4,-1
 54 575 l 1,5,-1
 50 686 l 1,6,7
 130 705 130 705 195.5 705 c 128,-1,8
 261 705 261 705 300.5 677 c 128,-1,9
 340 649 340 649 340 603 c 0,10,11
 340 516.6 340 516.6 252 499 c 1,12,13
 290 495 290 495 319 469 c 128,-1,14
 348 443 348 443 348 406 c 0,15,16
 348 341 348 341 300.5 308 c 128,-1,17
 253 275 253 275 174 275 c 0,18,19
 141 275 141 275 106.5 284.5 c 128,-1,20
 72 294 72 294 53.5 303 c 2,21,-1
 35 312 l 1,22,-1
 55 372 l 1,23,24
 115 342 115 342 166 342 c 0,25,26
 260 342 260 342 260 405 c 0,27,28
 260 463 260 463 166 463 c 2,29,-1
 125 463 l 1,30,-1
 125 524 l 1,31,-1
 171 524 l 2,32,33
 255 524 255 524 255 588 c 0,34,35
 255 640 255 640 185 640 c 0,36,37
 144 640 144 640 117 631 c 1,38,-1
 112 575 l 1,4,-1
542 150 m 1,39,-1
 745 430 l 1,40,-1
 843 420 l 1,41,-1
 843 156 l 1,42,-1
 913 156 l 1,43,-1
 913 91 l 1,44,-1
 843 91 l 1,45,-1
 843 0 l 1,46,-1
 758 0 l 1,47,-1
 758 91 l 1,48,-1
 548 91 l 1,49,-1
 542 150 l 1,39,-1
758 335 m 1,50,-1
 629 156 l 1,51,-1
 758 156 l 1,52,-1
 758 335 l 1,50,-1
EndSplineSet
EndChar

StartChar: twosuperior
Encoding: 178 178 183
Width: 390
Flags: HMW
HStem: 280 71<155 350 155 350> 636 69
VStem: 250 90<547.5 597.5>
LayerCount: 2
Fore
SplineSet
106 570 m 1,0,-1
 46 570 l 1,1,-1
 43 679 l 1,2,3
 115 705 115 705 178 705 c 0,4,5
 340 705 340 705 340 585 c 0,6,7
 340 528 340 528 303 483 c 128,-1,8
 266 438 266 438 155 351 c 1,9,-1
 350 351 l 1,10,-1
 350 280 l 1,11,-1
 35 280 l 1,12,-1
 35 349 l 1,13,14
 75.5333333333 383.133333333 75.5333333333 383.133333333 107.266666667 408.066666667 c 128,-1,15
 139 433 139 433 159.5 450.5 c 128,-1,16
 180 468 180 468 189 476.5 c 128,-1,17
 198 485 198 485 211 498 c 128,-1,18
 224 511 224 511 229 519.5 c 128,-1,19
 234 528 234 528 240 539 c 0,20,21
 250 557.333333333 250 557.333333333 250 580 c 0,22,23
 250 640 250 640 175 640 c 0,24,25
 143 640 143 640 113 630 c 1,26,-1
 106 570 l 1,0,-1
EndSplineSet
EndChar

StartChar: perthousand
Encoding: 8240 8240 184
Width: 1175
Flags: HMW
HStem: 0 58 276 69 360 65<175 235 175 247.5> 645 65<175 235>
VStem: 45 75<500 567.5 500 587.5> 290 75<500 567.5> 440 75<130 197.5 130 217.5> 685 75<130 197.5> 805 75<130 197.5 130 217.5> 1050 75<130 197.5>
LayerCount: 2
Fore
SplineSet
155 0 m 1,0,-1
 560 700 l 1,1,-1
 650 700 l 1,2,-1
 245 0 l 1,3,-1
 155 0 l 1,0,-1
87 402 m 128,-1,5
 45 444 45 444 45 529 c 128,-1,6
 45 614 45 614 91 662 c 128,-1,7
 137 710 137 710 208.5 710 c 128,-1,8
 280 710 280 710 322.5 666.5 c 128,-1,9
 365 623 365 623 365 538 c 128,-1,10
 365 453 365 453 319.5 406.5 c 128,-1,11
 274 360 274 360 201.5 360 c 128,-1,4
 129 360 129 360 87 402 c 128,-1,5
120 535 m 128,-1,13
 120 425 120 425 205 425 c 128,-1,14
 290 425 290 425 290 535 c 128,-1,15
 290 645 290 645 205 645 c 128,-1,12
 120 645 120 645 120 535 c 128,-1,13
482 32 m 128,-1,17
 440 74 440 74 440 159 c 128,-1,18
 440 244 440 244 486 292 c 128,-1,19
 532 340 532 340 603.5 340 c 128,-1,20
 675 340 675 340 717.5 296.5 c 128,-1,21
 760 253 760 253 760 168 c 128,-1,22
 760 83 760 83 714.5 36.5 c 128,-1,23
 669 -10 669 -10 596.5 -10 c 128,-1,16
 524 -10 524 -10 482 32 c 128,-1,17
515 165 m 128,-1,25
 515 55 515 55 600 55 c 128,-1,26
 685 55 685 55 685 165 c 128,-1,27
 685 275 685 275 600 275 c 128,-1,24
 515 275 515 275 515 165 c 128,-1,25
847 32 m 128,-1,29
 805 74 805 74 805 159 c 128,-1,30
 805 244 805 244 851 292 c 128,-1,31
 897 340 897 340 968.5 340 c 128,-1,32
 1040 340 1040 340 1082.5 296.5 c 128,-1,33
 1125 253 1125 253 1125 168 c 128,-1,34
 1125 83 1125 83 1079.5 36.5 c 128,-1,35
 1034 -10 1034 -10 961.5 -10 c 128,-1,28
 889 -10 889 -10 847 32 c 128,-1,29
880 165 m 128,-1,37
 880 55 880 55 965 55 c 128,-1,38
 1050 55 1050 55 1050 165 c 128,-1,39
 1050 275 1050 275 965 275 c 128,-1,36
 880 275 880 275 880 165 c 128,-1,37
EndSplineSet
EndChar

StartChar: Aring
Encoding: 197 197 185
Width: 725
Flags: HMW
HStem: 0 59 190 80<252 458 252 485 225 458> 860 50<349.5 382.5>
VStem: 250 60<777 817 777 830.5> 420 60<778 818>
LayerCount: 2
Fore
SplineSet
250 795 m 0,0,1
 250 846 250 846 285 878 c 128,-1,2
 320 910 320 910 365.5 910 c 128,-1,3
 411 910 411 910 445.5 880.5 c 128,-1,4
 480 851 480 851 480 807.5 c 0,5,6
 480 725.689655172 480 725.689655172 416 697 c 1,7,-1
 637 79 l 1,8,-1
 720 60 l 1,9,-1
 720 0 l 1,10,-1
 430 0 l 1,11,-1
 430 60 l 1,12,-1
 523 79 l 1,13,-1
 485 190 l 1,14,-1
 225 190 l 1,15,-1
 186 79 l 1,16,-1
 280 60 l 1,17,-1
 280 0 l 1,18,-1
 5 0 l 1,19,-1
 5 60 l 1,20,-1
 87 79 l 1,21,-1
 315 695 l 1,22,23
 250 723 250 723 250 795 c 0,0,1
357 571 m 1,24,-1
 252 270 l 1,25,-1
 458 270 l 1,26,-1
 357 571 l 1,24,-1
310 797 m 0,27,28
 310 735 310 735 365 735 c 0,29,30
 389 735 389 735 404.5 752 c 128,-1,31
 420 769 420 769 420 798 c 0,32,33
 420 860 420 860 365 860 c 0,34,35
 341 860 341 860 325.5 843 c 128,-1,36
 310 826 310 826 310 797 c 0,27,28
EndSplineSet
EndChar

StartChar: aring
Encoding: 229 229 186
Width: 565
Flags: HMW
HStem: -10 80<197.5 230> 230 65<275 285 285 355> 465 75<230 290> 595 50<264.5 297.5 264.5 310.5> 770 50<266.5 299.5>
VStem: 45 100 167 60<687 727 687 740.5> 337 60<688 728> 355 100<150 230 230 230 295 375 375 385 80 405>
LayerCount: 2
Fore
SplineSet
167 705 m 128,-1,1
 167 756 167 756 202 788 c 128,-1,2
 237 820 237 820 282.5 820 c 128,-1,3
 328 820 328 820 362.5 790.5 c 128,-1,4
 397 761 397 761 397 710 c 128,-1,5
 397 659 397 659 362 627 c 128,-1,6
 327 595 327 595 281.5 595 c 128,-1,7
 236 595 236 595 201.5 624.5 c 128,-1,0
 167 654 167 654 167 705 c 128,-1,1
227 707 m 0,8,9
 227 645 227 645 282 645 c 0,10,11
 306 645 306 645 321.5 662 c 128,-1,12
 337 679 337 679 337 708 c 0,13,14
 337 770 337 770 282 770 c 0,15,16
 258 770 258 770 242.5 753 c 128,-1,17
 227 736 227 736 227 707 c 0,8,9
535 5 m 1,18,-1
 380 0 l 1,19,-1
 359 70 l 1,20,21
 279 -10 279 -10 201.5 -10 c 128,-1,22
 124 -10 124 -10 84.5 29.5 c 128,-1,23
 45 69 45 69 45 140 c 0,24,25
 45 295 45 295 275 295 c 2,26,-1
 355 295 l 1,27,-1
 355 375 l 2,28,29
 355 465 355 465 260 465 c 0,30,31
 204 465 204 465 171 454 c 2,32,-1
 159 450 l 1,33,-1
 145 375 l 1,34,-1
 80 375 l 1,35,-1
 75 500 l 1,36,37
 185 540 185 540 273 540 c 128,-1,38
 361 540 361 540 408 504 c 128,-1,39
 455 468 455 468 455 385 c 2,40,-1
 455 80 l 1,41,-1
 535 60 l 1,42,-1
 535 5 l 1,18,-1
178.5 210 m 128,-1,44
 147 190 147 190 147 150.5 c 128,-1,45
 147 111 147 111 166.5 90.5 c 128,-1,46
 186 70 186 70 219.5 70 c 128,-1,47
 253 70 253 70 287 90 c 128,-1,48
 321 110 321 110 338 130 c 2,49,-1
 355 150 l 1,50,-1
 355 230 l 1,51,-1
 285 230 l 2,52,43
 210 230 210 230 178.5 210 c 128,-1,44
EndSplineSet
EndChar

StartChar: notequal
Encoding: 8800 8800 187
Width: 635
Flags: HMW
HStem: 135 80<65 205 65 243 323 570 65 285> 330 80<65 337 65 299 65 379 417 570>
LayerCount: 2
Fore
SplineSet
65 330 m 1,0,-1
 65 410 l 1,1,-1
 337 410 l 1,2,-1
 400 540 l 1,3,-1
 480 540 l 1,4,-1
 417 410 l 1,5,-1
 570 410 l 1,6,-1
 570 330 l 1,7,-1
 379 330 l 1,8,-1
 323 215 l 1,9,-1
 570 215 l 1,10,-1
 570 135 l 1,11,-1
 285 135 l 1,12,-1
 220 0 l 1,13,-1
 140 0 l 1,14,-1
 205 135 l 1,15,-1
 65 135 l 1,16,-1
 65 215 l 1,17,-1
 243 215 l 1,18,-1
 299 330 l 1,19,-1
 65 330 l 1,0,-1
EndSplineSet
EndChar

StartChar: percent
Encoding: 37 37 188
Width: 815
Flags: HMW
HStem: 0 21G<155 155 155 245> 275 65<570 630> 360 65<175 235 175 247.5> 680 20G<560 650 650 650>
VStem: 45 75<500 567.5 500 587.5> 290 75<500 567.5> 440 75<130 197.5 130 217.5> 685 75<130 197.5>
LayerCount: 2
Fore
SplineSet
155 0 m 1,0,-1
 560 700 l 1,1,-1
 650 700 l 1,2,-1
 245 0 l 1,3,-1
 155 0 l 1,0,-1
87 402 m 128,-1,5
 45 444 45 444 45 529 c 128,-1,6
 45 614 45 614 91 662 c 128,-1,7
 137 710 137 710 208.5 710 c 128,-1,8
 280 710 280 710 322.5 666.5 c 128,-1,9
 365 623 365 623 365 538 c 128,-1,10
 365 453 365 453 319.5 406.5 c 128,-1,11
 274 360 274 360 201.5 360 c 128,-1,4
 129 360 129 360 87 402 c 128,-1,5
120 535 m 128,-1,13
 120 425 120 425 205 425 c 128,-1,14
 290 425 290 425 290 535 c 128,-1,15
 290 645 290 645 205 645 c 128,-1,12
 120 645 120 645 120 535 c 128,-1,13
482 32 m 128,-1,17
 440 74 440 74 440 159 c 128,-1,18
 440 244 440 244 486 292 c 128,-1,19
 532 340 532 340 603.5 340 c 128,-1,20
 675 340 675 340 717.5 296.5 c 128,-1,21
 760 253 760 253 760 168 c 128,-1,22
 760 83 760 83 714.5 36.5 c 128,-1,23
 669 -10 669 -10 596.5 -10 c 128,-1,16
 524 -10 524 -10 482 32 c 128,-1,17
515 165 m 128,-1,25
 515 55 515 55 600 55 c 128,-1,26
 685 55 685 55 685 165 c 128,-1,27
 685 275 685 275 600 275 c 128,-1,24
 515 275 515 275 515 165 c 128,-1,25
EndSplineSet
EndChar

StartChar: backslash
Encoding: 92 92 189
Width: 506
Flags: HMW
HStem: 0 21G<361 466 361 361> 680 20G<30 135 135 135>
LayerCount: 2
Fore
SplineSet
135 700 m 1,0,-1
 466 0 l 1,1,-1
 361 0 l 1,2,-1
 30 700 l 1,3,-1
 135 700 l 1,0,-1
EndSplineSet
EndChar

StartChar: oslash
Encoding: 248 248 190
Width: 580
Flags: HMW
HStem: -10 80<277 340 277 360> 460 80<245 307.5>
VStem: 45 105<239 330 239 345> 430 105<205 294>
LayerCount: 2
Fore
SplineSet
50 -70 m 1,0,-1
 119 46 l 1,1,2
 45 115 45 115 45 251 c 128,-1,3
 45 387 45 387 116 463.5 c 128,-1,4
 187 540 187 540 300 540 c 0,5,6
 356 540 356 540 402 520 c 1,7,-1
 465 625 l 1,8,-1
 525 590 l 1,9,-1
 460 481 l 1,10,11
 535 411 535 411 535 279 c 128,-1,12
 535 147 535 147 466 68.5 c 128,-1,13
 397 -10 397 -10 285 -10 c 0,14,15
 227 -10 227 -10 178 9 c 1,16,-1
 110 -105 l 1,17,-1
 50 -70 l 1,0,-1
295 460 m 0,18,19
 150 460 150 460 150 265 c 0,20,21
 150 183 150 183 173 137 c 1,22,-1
 358 446 l 1,23,24
 330 460 330 460 295 460 c 0,18,19
290 70 m 0,25,26
 430 70 430 70 430 258 c 0,27,28
 430 346 430 346 407 393 c 1,29,-1
 223 85 l 1,30,31
 251 70 251 70 290 70 c 0,25,26
EndSplineSet
EndChar

StartChar: ordfeminine
Encoding: 170 170 191
Width: 468
Flags: HMW
HStem: 165 59 316 66<179 207> 485 54<227 233 233 281> 642 68<203 238.5>
VStem: 65 78<414 450 414 469> 281 80<427 485 485 485 539 589 589 595 387 605>
LayerCount: 2
Fore
SplineSet
83 580 m 1,0,-1
 78 680 l 1,1,2
 173 710 173 710 233 710 c 0,3,4
 361 710 361 710 361 595 c 2,5,-1
 361 387 l 1,6,-1
 418 373 l 1,7,-1
 418 328 l 1,8,-1
 309 323 l 1,9,-1
 293 375 l 1,10,11
 275.655021834 354.76419214 275.655021834 354.76419214 239.827510917 335.38209607 c 128,-1,12
 204 316 204 316 176 316 c 0,13,14
 122 316 122 316 93.5 344.5 c 128,-1,15
 65 373 65 373 65 428 c 0,16,17
 65 539 65 539 227 539 c 2,18,-1
 281 539 l 1,19,-1
 281 589 l 2,20,21
 281 613 281 613 264.5 627.5 c 128,-1,22
 248 642 248 642 225.5 642 c 0,23,24
 186 642 186 642 148 632 c 1,25,-1
 138 580 l 1,26,-1
 83 580 l 1,0,-1
281 485 m 1,27,-1
 233 485 l 2,28,29
 186 485 186 485 164.5 472.5 c 128,-1,30
 143 460 143 460 143 433.5 c 0,31,32
 143 382 143 382 195 382 c 0,33,34
 216 382 216 382 237.5 393 c 128,-1,35
 259 404 259 404 270 415.5 c 2,36,-1
 281 427 l 1,37,-1
 281 485 l 1,27,-1
73 165 m 1,38,-1
 73 235 l 1,39,-1
 418 235 l 1,40,-1
 418 165 l 1,41,-1
 73 165 l 1,38,-1
EndSplineSet
EndChar

StartChar: circumflex.x
Encoding: 65539 -1 192
Width: 520
Flags: HMW
HStem: 650 21G 800 20G<290 290>
LayerCount: 2
Fore
SplineSet
400 635 m 1,0,-1
 262 743 l 1,1,-1
 120 635 l 1,2,-1
 80 680 l 1,3,-1
 230 815 l 1,4,-1
 290 820 l 1,5,-1
 440 680 l 1,6,-1
 400 635 l 1,0,-1
EndSplineSet
EndChar

StartChar: dollar
Encoding: 36 36 193
Width: 545
Flags: HMW
HStem: -10 82 552 78
VStem: 70 100<406.5 497.5 406.5 513.5> 410 80
LayerCount: 2
Fore
SplineSet
315 -140 m 1,0,-1
 240 -140 l 1,1,-1
 240 -10 l 1,2,3
 198 -9 198 -9 154 -0.5 c 128,-1,4
 110 8 110 8 87.5 16.5 c 2,5,-1
 65 25 l 1,6,-1
 65 185 l 1,7,-1
 135 185 l 1,8,-1
 155 93 l 1,9,10
 191 73 191 73 249.5 73 c 128,-1,11
 308 73 308 73 349.5 96.5 c 128,-1,12
 391 120 391 120 391 165 c 0,13,14
 391 197 391 197 367 220 c 128,-1,15
 343 243 343 243 307.5 255 c 128,-1,16
 272 267 272 267 230.5 283.5 c 128,-1,17
 189 300 189 300 153.5 318 c 128,-1,18
 118 336 118 336 94 372.5 c 128,-1,19
 70 409 70 409 70 460 c 0,20,21
 70 536 70 536 117.5 579.5 c 128,-1,22
 165 623 165 623 240 634 c 1,23,-1
 240 750 l 1,24,-1
 315 750 l 1,25,-1
 315 637 l 1,26,27
 390.567567568 630.702702703 390.567567568 630.702702703 453 608 c 2,28,-1
 475 600 l 1,29,-1
 470 450 l 1,30,-1
 410 450 l 1,31,-1
 385 540 l 1,32,33
 340 560 340 560 286.5 560 c 128,-1,34
 233 560 233 560 201.5 535.5 c 128,-1,35
 170 511 170 511 170 474.5 c 128,-1,36
 170 438 170 438 203 412.5 c 128,-1,37
 236 387 236 387 283 371 c 128,-1,38
 330 355 330 355 377 336 c 128,-1,39
 424 317 424 317 457 279 c 128,-1,40
 490 241 490 241 490 185 c 0,41,42
 490 106 490 106 441.5 58 c 128,-1,43
 393 10 393 10 315 -4 c 1,44,-1
 315 -140 l 1,0,-1
EndSplineSet
EndChar

StartChar: threesuperior
Encoding: 179 179 194
Width: 378
Flags: HMW
HStem: 275 67<131.5 189 131.5 209> 463 61<110 151 110 156> 640 65<148.5 195>
VStem: 16 64 253 80
LayerCount: 2
Fore
SplineSet
97 575 m 1,0,-1
 39 575 l 1,1,-1
 35 686 l 1,2,3
 115 705 115 705 180.5 705 c 128,-1,4
 246 705 246 705 285.5 677 c 128,-1,5
 325 649 325 649 325 603 c 0,6,7
 325 516.6 325 516.6 237 499 c 1,8,9
 275 495 275 495 304 469 c 128,-1,10
 333 443 333 443 333 406 c 0,11,12
 333 341 333 341 285.5 308 c 128,-1,13
 238 275 238 275 159 275 c 0,14,15
 126 275 126 275 91.5 284.5 c 128,-1,16
 57 294 57 294 38.5 303 c 2,17,-1
 20 312 l 1,18,-1
 40 372 l 1,19,20
 100 342 100 342 151 342 c 0,21,22
 245 342 245 342 245 405 c 0,23,24
 245 463 245 463 151 463 c 2,25,-1
 110 463 l 1,26,-1
 110 524 l 1,27,-1
 156 524 l 2,28,29
 240 524 240 524 240 588 c 0,30,31
 240 640 240 640 170 640 c 0,32,33
 129 640 129 640 102 631 c 1,34,-1
 97 575 l 1,0,-1
EndSplineSet
EndChar

StartChar: fl
Encoding: 64258 64258 195
Width: 757
Flags: HMW
HStem: 0 21G<75 342 75 75 430 680 430 430> 450 75<70 160 260 389> 705 75<345 407.5>
VStem: 160 100<80 450 80 450 525 585 585 605> 505 102<80 695 695 695>
LayerCount: 2
Fore
SplineSet
70 450 m 1,0,-1
 70 515 l 1,1,-1
 160 525 l 1,2,-1
 160 585 l 2,3,4
 160 678 160 678 216 729 c 128,-1,5
 272 780 272 780 370 780 c 0,6,7
 455 780 455 780 569 772.5 c 2,8,-1
 607 770 l 1,9,-1
 607 80 l 1,10,-1
 680 55 l 1,11,-1
 680 0 l 1,12,-1
 430 0 l 1,13,-1
 430 55 l 1,14,-1
 505 80 l 1,15,-1
 505 695 l 1,16,17
 435 705 435 705 381 705 c 128,-1,18
 327 705 327 705 293.5 677.5 c 128,-1,19
 260 650 260 650 260 605 c 2,20,-1
 260 525 l 1,21,-1
 392 525 l 1,22,-1
 389 450 l 1,23,-1
 260 450 l 1,24,-1
 260 80 l 1,25,-1
 342 55 l 1,26,-1
 342 0 l 1,27,-1
 75 0 l 1,28,-1
 75 55 l 1,29,-1
 160 80 l 1,30,-1
 160 450 l 1,31,-1
 70 450 l 1,0,-1
EndSplineSet
EndChar

StartChar: braceleft
Encoding: 123 123 196
Width: 370
Flags: HMW
HStem: -225 65<292.5 295 295 340> 156 278<125 125 125 217> 710 65<295 340 295 340>
VStem: 126 91
LayerCount: 2
Fore
SplineSet
340 775 m 1,0,-1
 340 710 l 1,1,2
 269 710 269 710 243 687.5 c 128,-1,3
 217 665 217 665 217 605 c 2,4,-1
 217 434 l 2,5,6
 217 330 217 330 124 295 c 1,7,8
 217 260 217 260 217 156 c 2,9,-1
 217 -55 l 2,10,11
 217 -115 217 -115 243 -137.5 c 128,-1,12
 269 -160 269 -160 340 -160 c 1,13,-1
 340 -225 l 1,14,-1
 295 -225 l 2,15,16
 204 -225 204 -225 164.5 -186.5 c 128,-1,17
 125 -148 125 -148 125 -55 c 2,18,-1
 125 156 l 2,19,20
 125 206 125 206 104 233 c 128,-1,21
 83 260 83 260 30 260 c 1,22,-1
 30 330 l 1,23,24
 83 330 83 330 104 357 c 128,-1,25
 125 384 125 384 125 434 c 2,26,-1
 125 605 l 2,27,28
 125 698 125 698 164.5 736.5 c 128,-1,29
 204 775 204 775 295 775 c 2,30,-1
 340 775 l 1,0,-1
EndSplineSet
EndChar

StartChar: braceright
Encoding: 125 125 197
Width: 375
Flags: HMW
HStem: -225 65<40 85 40 87.5> 153 281 710 65<40 85 85 87.5>
VStem: 163 92<-55 156 434 605>
LayerCount: 2
Fore
SplineSet
40 775 m 1,0,-1
 85 775 l 2,1,2
 176 775 176 775 215.5 736.5 c 128,-1,3
 255 698 255 698 255 605 c 2,4,-1
 255 434 l 2,5,6
 255 384 255 384 276 357 c 128,-1,7
 297 330 297 330 350 330 c 1,8,-1
 350 260 l 1,9,10
 297 260 297 260 276 233 c 128,-1,11
 255 206 255 206 255 156 c 2,12,-1
 255 -55 l 2,13,14
 255 -148 255 -148 215.5 -186.5 c 128,-1,15
 176 -225 176 -225 85 -225 c 2,16,-1
 40 -225 l 1,17,-1
 40 -160 l 1,18,19
 111 -160 111 -160 137 -137.5 c 128,-1,20
 163 -115 163 -115 163 -55 c 2,21,-1
 163 156 l 2,22,23
 163 260 163 260 256 295 c 1,24,25
 163 330 163 330 163 434 c 2,26,-1
 163 605 l 2,27,28
 163 665 163 665 137 687.5 c 128,-1,29
 111 710 111 710 40 710 c 1,30,-1
 40 775 l 1,0,-1
EndSplineSet
EndChar

StartChar: Oslash
Encoding: 216 216 198
Width: 765
Flags: HMW
HStem: -105 21G<150 150> -10 85<355 440 355 467.5> 625 85<320 405> 765 20G<600 600>
VStem: 65 115<308.5 445 308.5 455> 585 115<260 396>
LayerCount: 2
Fore
SplineSet
600 785 m 1,0,-1
 665 750 l 1,1,-1
 597 637 l 1,2,3
 700 542 700 542 700 368.5 c 0,4,5
 700 195 700 195 608 92.5 c 128,-1,6
 516 -10 516 -10 370 -10 c 0,7,8
 286 -10 286 -10 225 20 c 1,9,-1
 150 -105 l 1,10,-1
 85 -70 l 1,11,-1
 164 61 l 1,12,13
 65 151 65 151 65 345 c 0,14,15
 65 511 65 511 153 610.5 c 128,-1,16
 241 710 241 710 390 710 c 0,17,18
 472 710 472 710 536 678 c 1,19,-1
 600 785 l 1,0,-1
542 546 m 1,20,-1
 274 101 l 1,21,22
 315 75 315 75 375 75 c 0,23,24
 475 75 475 75 530 145.5 c 128,-1,25
 585 216 585 216 585 346.5 c 0,26,27
 585 477 585 477 542 546 c 1,20,-1
488 599 m 1,28,29
 444 625 444 625 385 625 c 0,30,31
 180 625 180 625 180 350 c 0,32,33
 180 226 180 226 221 156 c 1,34,-1
 488 599 l 1,28,29
EndSplineSet
EndChar

StartChar: approxequal
Encoding: 8776 8776 199
Width: 626
Flags: HMW
HStem: 100 75<386 453.5 386 466.5> 170 75<168.5 235> 265 75<386 453.5 386 466.5> 335 75<168.5 235>
LayerCount: 2
Fore
SplineSet
106 279 m 1,0,-1
 60 310 l 1,1,2
 65.5 321 l 2,3,4
 69 328 69 328 83 345 c 128,-1,5
 97 362 97 362 112.5 375 c 128,-1,6
 128 388 128 388 155 399 c 128,-1,7
 182 410 182 410 220.5 410 c 128,-1,8
 259 410 259 410 323.5 375 c 128,-1,9
 388 340 388 340 419 340 c 128,-1,10
 450 340 450 340 473.5 355 c 128,-1,11
 497 370 497 370 508.5 385 c 2,12,-1
 520 400 l 1,13,-1
 566 369 l 1,14,15
 560.6 358.2 560.6 358.2 543.8 336.6 c 128,-1,16
 527 315 527 315 511.5 301 c 128,-1,17
 496 287 496 287 471 276 c 128,-1,18
 446 265 446 265 421 265 c 0,19,20
 373 265 373 265 303 300 c 128,-1,21
 233 335 233 335 202.5 335 c 128,-1,22
 172 335 172 335 149.5 321 c 128,-1,23
 127 307 127 307 116.5 293 c 2,24,-1
 106 279 l 1,0,-1
106 114 m 1,25,-1
 60 145 l 1,26,-1
 65.5 156 l 2,27,28
 69 163 69 163 83 180 c 128,-1,29
 97 197 97 197 112.5 210 c 128,-1,30
 128 223 128 223 155 234 c 128,-1,31
 182 245 182 245 220.5 245 c 128,-1,32
 259 245 259 245 323.5 210 c 128,-1,33
 388 175 388 175 419 175 c 128,-1,34
 450 175 450 175 473.5 190 c 128,-1,35
 497 205 497 205 508.5 220 c 2,36,-1
 520 235 l 1,37,-1
 566 204 l 1,38,39
 560.6 193.2 560.6 193.2 543.8 171.6 c 128,-1,40
 527 150 527 150 511.5 136 c 128,-1,41
 496 122 496 122 471 111 c 128,-1,42
 446 100 446 100 421 100 c 0,43,44
 373 100 373 100 303 135 c 128,-1,45
 233 170 233 170 202.5 170 c 128,-1,46
 172 170 172 170 149.5 156 c 128,-1,47
 127 142 127 142 116.5 128 c 2,48,-1
 106 114 l 1,25,-1
EndSplineSet
EndChar

StartChar: florin
Encoding: 402 402 200
Width: 440
Flags: HMW
HStem: -200 81 374 75 705 75
VStem: 125 86
LayerCount: 2
Fore
SplineSet
-50 -120 m 1,0,-1
 5 -120 l 2,1,2
 51 -120 51 -120 71 -96.5 c 128,-1,3
 91 -73 91 -73 95 -25 c 2,4,-1
 131 375 l 1,5,-1
 45 375 l 1,6,-1
 47 440 l 1,7,-1
 138 450 l 1,8,-1
 150 585 l 2,9,10
 158 677 158 677 207.5 728.5 c 128,-1,11
 257 780 257 780 345 780 c 1,12,-1
 420 774 l 1,13,-1
 415 700 l 1,14,-1
 345 700 l 2,15,16
 299 700 299 700 279 676.5 c 128,-1,17
 259 653 259 653 255 605 c 2,18,-1
 243 450 l 1,19,-1
 385 450 l 1,20,-1
 383 375 l 1,21,-1
 236 375 l 1,22,-1
 202 -5 l 2,23,24
 194 -97 194 -97 143.5 -148.5 c 128,-1,25
 93 -200 93 -200 5 -200 c 1,26,-1
 -60 -194 l 1,27,-1
 -50 -120 l 1,0,-1
EndSplineSet
EndChar

StartChar: AE
Encoding: 198 198 201
Width: 959
Flags: HMW
HStem: 0 80<94 94 94 275 585 814> 205 80<300 480 300 480 260 480> 325 80<585 814 585 814> 622 78
VStem: 480 105<80 205 205 205 285 325 405 620>
LayerCount: 2
Fore
SplineSet
390 0 m 1,0,-1
 390 60 l 1,1,-1
 480 80 l 1,2,-1
 480 205 l 1,3,-1
 260 205 l 1,4,-1
 197 77 l 1,5,-1
 275 60 l 1,6,-1
 275 0 l 1,7,-1
 5 0 l 1,8,-1
 5 60 l 1,9,-1
 94 80 l 1,10,-1
 371 620 l 1,11,-1
 286 640 l 1,12,-1
 286 695 l 1,13,-1
 412 700 l 1,14,-1
 889 700 l 1,15,-1
 889 530 l 1,16,-1
 824 530 l 1,17,-1
 799 620 l 1,18,-1
 585 620 l 1,19,-1
 585 405 l 1,20,-1
 814 405 l 1,21,-1
 814 325 l 1,22,-1
 585 325 l 1,23,-1
 585 80 l 1,24,-1
 814 80 l 1,25,-1
 834 180 l 1,26,-1
 899 180 l 1,27,-1
 899 0 l 1,28,-1
 390 0 l 1,0,-1
300 285 m 1,29,-1
 480 285 l 1,30,-1
 480 620 l 1,31,-1
 465 620 l 1,32,-1
 300 285 l 1,29,-1
EndSplineSet
EndChar

StartChar: Thorn
Encoding: 222 222 202
Width: 605
Flags: HMW
HStem: 0 60<40 315 40 40> 155 80<230 300 230 300> 485 80<230 335 230 330> 640 60<315 315>
VStem: 125 105<80 155 80 235 235 485 565 620> 465 100<322.5 400>
LayerCount: 2
Fore
SplineSet
230 620 m 1,0,-1
 230 565 l 1,1,-1
 335 565 l 2,2,3
 443 565 443 565 504 516 c 128,-1,4
 565 467 565 467 565 380 c 0,5,6
 565 271 565 271 496.5 213 c 128,-1,7
 428 155 428 155 300 155 c 2,8,-1
 230 155 l 1,9,-1
 230 80 l 1,10,-1
 315 60 l 1,11,-1
 315 0 l 1,12,-1
 40 0 l 1,13,-1
 40 60 l 1,14,-1
 125 80 l 1,15,-1
 125 620 l 1,16,-1
 40 640 l 1,17,-1
 40 695 l 1,18,-1
 315 700 l 1,19,-1
 315 640 l 1,20,-1
 230 620 l 1,0,-1
230 485 m 1,21,-1
 230 235 l 1,22,-1
 300 235 l 2,23,24
 379 235 379 235 422 268.5 c 128,-1,25
 465 302 465 302 465 360.5 c 0,26,27
 465 419 465 419 429 452 c 128,-1,28
 393 485 393 485 330 485 c 2,29,-1
 230 485 l 1,21,-1
EndSplineSet
EndChar

StartChar: Delta
Encoding: 916 916 203
AltUni2: 002206.ffffffff.0
Width: 666
Flags: HMW
HStem: 0 80<119 539 119 646> 700 20G<284 382 382 382>
LayerCount: 2
Fore
SplineSet
20 71 m 1,0,-1
 284 720 l 1,1,-1
 382 720 l 1,2,-1
 646 70 l 1,3,-1
 646 0 l 1,4,-1
 20 0 l 1,5,-1
 20 71 l 1,0,-1
329 607 m 1,6,-1
 119 80 l 1,7,-1
 539 80 l 1,8,-1
 329 607 l 1,6,-1
EndSplineSet
EndChar

StartChar: infinity
Encoding: 8734 8734 204
Width: 880
Flags: HMW
HStem: 130 75<200 258.5 200 273 624.5 680> 385 75<200 255 621 680>
VStem: 55 85<265 325 265 337.5> 740 85<265 325>
LayerCount: 2
Fore
SplineSet
645 130 m 0,0,1
 589 130 589 130 539.5 159 c 128,-1,2
 490 188 490 188 435 240 c 1,3,4
 417 222 417 222 394 202.5 c 128,-1,5
 371 183 371 183 319.5 156.5 c 128,-1,6
 268 130 268 130 225 130 c 0,7,8
 144 130 144 130 99.5 173.5 c 128,-1,9
 55 217 55 217 55 290.5 c 0,10,11
 55 364 55 364 103 412 c 128,-1,12
 151 460 151 460 235 460 c 0,13,14
 290 460 290 460 339 431 c 128,-1,15
 388 402 388 402 444 350 c 1,16,17
 554 460 554 460 655 460 c 0,18,19
 736 460 736 460 780.5 416.5 c 128,-1,20
 825 373 825 373 825 299.5 c 0,21,22
 825 226 825 226 777 178 c 128,-1,23
 729 130 729 130 645 130 c 0,0,1
650 385 m 0,24,25
 584 385 584 385 499 297 c 1,26,27
 546 251 546 251 580.5 228 c 128,-1,28
 615 205 615 205 650 205 c 0,29,30
 740 205 740 205 740 295 c 128,-1,31
 740 385 740 385 650 385 c 0,24,25
230 205 m 0,32,33
 295 205 295 205 380 293 c 1,34,35
 334 338 334 338 299 361.5 c 128,-1,36
 264 385 264 385 230 385 c 0,37,38
 140 385 140 385 140 295 c 128,-1,39
 140 205 140 205 230 205 c 0,32,33
EndSplineSet
EndChar

StartChar: OE
Encoding: 338 338 205
Width: 940
Flags: HMW
HStem: 0 81 325 80<560 790 560 790> 620 80<560 775 560 560>
VStem: 60 115<260 445 260 455> 455 105<80 325 405 620>
LayerCount: 2
Fore
SplineSet
385 705 m 1,0,-1
 535 700 l 1,1,-1
 865 700 l 1,2,-1
 865 530 l 1,3,-1
 800 530 l 1,4,-1
 775 620 l 1,5,-1
 560 620 l 1,6,-1
 560 405 l 1,7,-1
 790 405 l 1,8,-1
 790 325 l 1,9,-1
 560 325 l 1,10,-1
 560 80 l 1,11,-1
 790 80 l 1,12,-1
 810 180 l 1,13,-1
 875 180 l 1,14,-1
 875 0 l 1,15,-1
 525 0 l 1,16,-1
 365 -5 l 1,17,18
 218 -5 218 -5 139 84.5 c 128,-1,19
 60 174 60 174 60 342 c 128,-1,20
 60 510 60 510 147.5 607.5 c 128,-1,21
 235 705 235 705 385 705 c 1,0,-1
455 620 m 1,22,23
 410 625 410 625 380 625 c 0,24,25
 175 625 175 625 175 350 c 128,-1,26
 175 75 175 75 370 75 c 1,27,-1
 455 80 l 1,28,-1
 455 620 l 1,22,23
EndSplineSet
EndChar

StartChar: oe
Encoding: 339 339 206
Width: 915
Flags: HMW
HStem: -10 81 251 74 462 78<628.5 705>
VStem: 40 105<205 330 205 345> 440 90 774 106<325 362.5>
LayerCount: 2
Fore
SplineSet
111 463.5 m 128,-1,1
 182 540 182 540 300.5 540 c 128,-1,2
 419 540 419 540 484 436 c 1,3,4
 547 540 547 540 670 540 c 0,5,6
 880 540 880 540 880 305 c 1,7,-1
 875 252 l 1,8,-1
 530 250 l 1,9,10
 530 168 530 168 570 119 c 128,-1,11
 610 70 610 70 675 70 c 0,12,13
 719 70 719 70 761 84 c 128,-1,14
 803 98 803 98 823 111.5 c 2,15,-1
 843 125 l 1,16,-1
 878 73 l 1,17,18
 868 64 868 64 849 50 c 128,-1,19
 830 36 830 36 774 13 c 128,-1,20
 718 -10 718 -10 665 -10 c 0,21,22
 534 -10 534 -10 477 93 c 1,23,24
 409 -10 409 -10 280 -10 c 0,25,26
 166 -10 166 -10 103 58.5 c 128,-1,27
 40 127 40 127 40 257 c 128,-1,0
 40 387 40 387 111 463.5 c 128,-1,1
290 460 m 0,28,29
 145 460 145 460 145 265 c 128,-1,30
 145 70 145 70 285 70 c 0,31,32
 430 70 430 70 430 270 c 0,33,34
 430 358 430 358 396 409 c 128,-1,35
 362 460 362 460 290 460 c 0,28,29
534 325 m 1,36,-1
 774 325 l 1,37,38
 774 386 774 386 748 424 c 128,-1,39
 722 462 722 462 664.5 462 c 128,-1,40
 607 462 607 462 573 423 c 128,-1,41
 539 384 539 384 534 325 c 1,36,-1
EndSplineSet
EndChar

StartChar: thorn
Encoding: 254 254 207
Width: 615
Flags: HMW
HStem: -230 77 460 80<315 380> 690 80
VStem: 111 100 465 104
LayerCount: 2
Fore
SplineSet
315 -175 m 1,0,-1
 315 -230 l 1,1,-1
 30 -230 l 1,2,-1
 30 -175 l 1,3,-1
 110 -155 l 1,4,-1
 110 690 l 1,5,-1
 25 710 l 1,6,-1
 25 765 l 1,7,-1
 210 770 l 1,8,-1
 210 480 l 1,9,10
 232.395348837 502.395348837 232.395348837 502.395348837 275.697674419 521.197674419 c 128,-1,11
 319 540 319 540 355 540 c 0,12,13
 461 540 461 540 515.5 470 c 128,-1,14
 570 400 570 400 570 273.5 c 128,-1,15
 570 147 570 147 502 68.5 c 128,-1,16
 434 -10 434 -10 300 -10 c 0,17,18
 256 -10 256 -10 221.5 0.5 c 2,19,-1
 210 4 l 1,20,-1
 210 -155 l 1,21,-1
 315 -175 l 1,0,-1
210 390 m 1,22,-1
 210 90 l 1,23,24
 240 70 240 70 315 70 c 0,25,26
 465 70 465 70 465 270 c 0,27,28
 465 357 465 357 432.5 408.5 c 128,-1,29
 400 460 400 460 335 460 c 0,30,31
 271.333333333 460 271.333333333 460 228 414.5 c 0,32,33
 218 404 218 404 210 390 c 1,22,-1
EndSplineSet
EndChar

StartChar: sterling
Encoding: 163 163 208
Width: 625
Flags: HMW
HStem: 0 80<225 479 225 565> 335 80<264 264 264 425> 630 80<322.5 390>
VStem: 484 83
LayerCount: 2
Fore
SplineSet
565 185 m 1,0,-1
 565 0 l 1,1,-1
 60 0 l 1,2,-1
 60 60 l 1,3,-1
 115 75 l 2,4,5
 148 84 148 84 159 111.5 c 128,-1,6
 170 139 170 139 170 181 c 0,7,8
 170 223 170 223 163 335 c 1,9,-1
 60 335 l 1,10,-1
 60 403 l 1,11,-1
 158 414 l 1,12,13
 155 462 155 462 155 510 c 0,14,15
 155 604 155 604 204.5 657 c 128,-1,16
 254 710 254 710 355 710 c 0,17,18
 408 710 408 710 459.5 702.5 c 128,-1,19
 511 695 511 695 535.5 687.5 c 2,20,-1
 560 680 l 1,21,-1
 560 540 l 1,22,-1
 495 540 l 1,23,-1
 480 623 l 1,24,25
 420 630 420 630 360 630 c 0,26,27
 255 630 255 630 255 530 c 0,28,29
 255 466 255 466 259 415 c 1,30,-1
 425 415 l 1,31,-1
 425 335 l 1,32,-1
 264 335 l 1,33,34
 270 245 270 245 270 208 c 0,35,36
 270 171 270 171 259 137 c 128,-1,37
 248 103 248 103 236.5 91.5 c 2,38,-1
 225 80 l 1,39,-1
 479 80 l 1,40,-1
 500 185 l 1,41,-1
 565 185 l 1,0,-1
EndSplineSet
EndChar

StartChar: trademark
Encoding: 8482 8482 209
Width: 952
Flags: HMW
HStem: 320 21G<109 316 109 109 426 426 426 603 717 892 717 717> 653 47<40 426>
VStem: 174 78 478 63<378 590 378 643 378 643> 774 68<378 595 595 595>
LayerCount: 2
Fore
SplineSet
316 365 m 1,0,-1
 316 320 l 1,1,-1
 109 320 l 1,2,-1
 109 365 l 1,3,-1
 174 378 l 1,4,-1
 174 643 l 1,5,-1
 100 643 l 1,6,-1
 88 575 l 1,7,-1
 40 575 l 1,8,-1
 40 700 l 1,9,-1
 385 700 l 1,10,-1
 385 575 l 1,11,-1
 337 575 l 1,12,-1
 325 643 l 1,13,-1
 251 643 l 1,14,-1
 251 378 l 1,15,-1
 316 365 l 1,0,-1
717 320 m 1,16,-1
 717 365 l 1,17,-1
 774 378 l 1,18,-1
 774 595 l 1,19,-1
 681 428 l 1,20,-1
 630 422 l 1,21,-1
 541 590 l 1,22,-1
 541 378 l 1,23,-1
 603 365 l 1,24,-1
 603 320 l 1,25,-1
 426 320 l 1,26,-1
 426 365 l 1,27,-1
 478 378 l 1,28,-1
 478 643 l 1,29,-1
 426 653 l 1,30,-1
 426 697 l 1,31,-1
 565 700 l 1,32,-1
 661 509 l 1,33,-1
 760 697 l 1,34,-1
 892 700 l 1,35,-1
 892 655 l 1,36,-1
 842 643 l 1,37,-1
 842 378 l 1,38,-1
 892 365 l 1,39,-1
 892 320 l 1,40,-1
 717 320 l 1,16,-1
EndSplineSet
EndChar

StartChar: paragraph
Encoding: 182 182 210
Width: 630
Flags: HMW
HStem: -170 61 620 77
VStem: 230 84<-90 306 306 306> 393 87<-170 620 -170 620 -170 700>
LayerCount: 2
Fore
SplineSet
565 695 m 1,0,-1
 565 640 l 1,1,-1
 480 620 l 1,2,-1
 480 -170 l 1,3,-1
 393 -170 l 1,4,-1
 393 620 l 1,5,-1
 314 620 l 1,6,-1
 314 -170 l 1,7,-1
 140 -170 l 1,8,-1
 140 -110 l 1,9,-1
 230 -90 l 1,10,-1
 230 306 l 1,11,12
 157 314 157 314 108.5 369.5 c 128,-1,13
 60 425 60 425 60 507.5 c 0,14,15
 60 590 60 590 115 645 c 128,-1,16
 170 700 170 700 265 700 c 2,17,-1
 393 700 l 1,18,-1
 565 695 l 1,0,-1
EndSplineSet
EndChar

StartChar: registered
Encoding: 174 174 211
Width: 720
Flags: HMW
HStem: 155 65<285 425 285 437.5> 295 183<215 355 320 355 355 360 320 434 320 520> 575 50<320 397.5 320 397.5> 690 65<285 425>
VStem: 55 75<385 525 385 537.5> 255 65<345 432 345 478 478 575> 415 67<512 542.5> 590 75<385 525>
LayerCount: 2
Fore
SplineSet
55 450 m 128,-1,1
 55 581 55 581 142 668 c 128,-1,2
 229 755 229 755 360.5 755 c 0,3,4
 492 755 492 755 578.5 672.5 c 128,-1,5
 665 590 665 590 665 460 c 128,-1,6
 665 330 665 330 573.5 242.5 c 128,-1,7
 482 155 482 155 350.5 155 c 0,8,9
 219 155 219 155 137 237 c 128,-1,0
 55 319 55 319 55 450 c 128,-1,1
130 455 m 128,-1,11
 130 349 130 349 190.5 284.5 c 128,-1,12
 251 220 251 220 355.5 220 c 0,13,14
 460 220 460 220 525 285 c 128,-1,15
 590 350 590 350 590 455 c 128,-1,16
 590 560 590 560 525 625 c 128,-1,17
 460 690 460 690 355.5 690 c 0,18,19
 251 690 251 690 190.5 625.5 c 128,-1,10
 130 561 130 561 130 455 c 128,-1,11
215 295 m 1,20,-1
 215 335 l 1,21,-1
 255 345 l 1,22,-1
 255 577 l 1,23,-1
 215 585 l 1,24,-1
 215 622 l 1,25,-1
 365 625 l 1,26,27
 416 625 416 625 449 600.5 c 128,-1,28
 482 576 482 576 482 533 c 0,29,30
 482 468 482 468 420 445 c 1,31,32
 438 427 438 427 448 408 c 2,33,-1
 480 345 l 1,34,-1
 520 335 l 1,35,-1
 520 295 l 1,36,-1
 434 295 l 1,37,-1
 394 380 l 2,38,39
 378 415 378 415 368.5 423.5 c 128,-1,40
 359 432 359 432 339 432 c 2,41,-1
 320 432 l 1,42,-1
 320 345 l 1,43,-1
 360 335 l 1,44,-1
 360 295 l 1,45,-1
 215 295 l 1,20,-1
320 575 m 1,46,-1
 320 478 l 1,47,-1
 355 478 l 2,48,49
 382 478 382 478 398.5 491 c 128,-1,50
 415 504 415 504 415 527 c 0,51,52
 415 550 415 550 400.5 562.5 c 128,-1,53
 386 575 386 575 360 575 c 2,54,-1
 320 575 l 1,46,-1
EndSplineSet
EndChar

StartChar: copyright
Encoding: 169 169 212
Width: 820
Flags: HMW
HStem: -10 72<320 490 320 505> 155 65<385 442 385 450> 490 61<377.5 423.5> 638 72<320 490>
VStem: 45 80<265 435 265 450> 230 85<303 393 303 405.5> 695 80<265 435>
LayerCount: 2
Fore
SplineSet
45 345 m 128,-1,1
 45 502 45 502 148.5 606 c 128,-1,2
 252 710 252 710 410.5 710 c 0,3,4
 569 710 569 710 672 610.5 c 128,-1,5
 775 511 775 511 775 354.5 c 0,6,7
 775 198 775 198 667 94 c 128,-1,8
 559 -10 559 -10 400.5 -10 c 0,9,10
 242 -10 242 -10 143.5 89 c 128,-1,0
 45 188 45 188 45 345 c 128,-1,1
125 350 m 128,-1,12
 125 222 125 222 201.5 142 c 128,-1,13
 278 62 278 62 405.5 62 c 0,14,15
 533 62 533 62 614 142.5 c 128,-1,16
 695 223 695 223 695 350 c 128,-1,17
 695 477 695 477 614 557.5 c 128,-1,18
 533 638 533 638 405.5 638 c 0,19,20
 278 638 278 638 201.5 558 c 128,-1,11
 125 478 125 478 125 350 c 128,-1,12
542 414 m 1,21,-1
 486 414 l 1,22,-1
 472 482 l 1,23,24
 445 490 445 490 410 490 c 0,25,26
 315 490 315 490 315 348 c 0,27,28
 315 220 315 220 415 220 c 0,29,30
 439 220 439 220 465.5 231 c 128,-1,31
 492 242 492 242 507 253 c 2,32,-1
 522 264 l 1,33,-1
 549 218 l 1,34,35
 542 211 542 211 530 200.5 c 128,-1,36
 518 190 518 190 482 172.5 c 128,-1,37
 446 155 446 155 410 155 c 0,38,39
 326 155 326 155 278 203 c 128,-1,40
 230 251 230 251 230 344.5 c 0,41,42
 230 438 230 438 280 494.5 c 128,-1,43
 330 551 330 551 417 551 c 0,44,45
 445 551 445 551 477 543.5 c 128,-1,46
 509 536 509 536 526.5 528 c 2,47,-1
 544 520 l 1,48,-1
 542 414 l 1,21,-1
EndSplineSet
EndChar

StartChar: germandbls
Encoding: 223 223 213
Width: 761
Flags: HMW
HStem: 0 21G<95 280 95 95> 705 75<365 432.5>
VStem: 181 99 395 104<355 447.5 355 455> 625 105
LayerCount: 2
Fore
SplineSet
70 450 m 1,0,-1
 70 515 l 1,1,-1
 180 525 l 1,2,-1
 180 580 l 2,3,4
 180 673 180 673 238.5 726.5 c 128,-1,5
 297 780 297 780 399.5 780 c 128,-1,6
 502 780 502 780 566 742 c 128,-1,7
 630 704 630 704 630 625 c 0,8,9
 630 586 630 586 609.5 553.5 c 128,-1,10
 589 521 589 521 564.5 502.5 c 0,11,12
 499 453.040816327 499 453.040816327 499 410 c 0,13,14
 499 358.343283582 499 358.343283582 579.5 323.5 c 0,15,16
 613 309 613 309 647 292 c 128,-1,17
 681 275 681 275 705 243 c 128,-1,18
 729 211 729 211 730 165 c 0,19,20
 731 89 731 89 668.5 39.5 c 128,-1,21
 606 -10 606 -10 523 -10 c 0,22,23
 448 -10 448 -10 394 6.5 c 2,24,-1
 376 12 l 1,25,-1
 375 156 l 1,26,-1
 440 156 l 1,27,-1
 455 75 l 1,28,29
 479.260869565 62.8695652174 479.260869565 62.8695652174 524.130434783 64.9347826087 c 128,-1,30
 569 67 569 67 597.5 87 c 128,-1,31
 626 107 626 107 625 141 c 128,-1,32
 624 175 624 175 600 195.5 c 128,-1,33
 576 216 576 216 542 229.5 c 128,-1,34
 508 243 508 243 475 260 c 128,-1,35
 442 277 442 277 418.5 311 c 128,-1,36
 395 345 395 345 395 386.5 c 128,-1,37
 395 428 395 428 409 454 c 128,-1,38
 423 480 423 480 442.5 497.5 c 128,-1,39
 462 515 462 515 482 530.5 c 0,40,41
 530 567.7 530 567.7 530 615.35 c 128,-1,42
 530 663 530 663 493 684 c 128,-1,43
 456 705 456 705 401.5 705 c 128,-1,44
 347 705 347 705 313.5 676.5 c 128,-1,45
 280 648 280 648 280 600 c 2,46,-1
 280 0 l 1,47,-1
 95 0 l 1,48,-1
 95 55 l 1,49,-1
 180 80 l 1,50,-1
 180 450 l 1,51,-1
 70 450 l 1,0,-1
EndSplineSet
EndChar

StartChar: ae
Encoding: 230 230 214
Width: 835
Flags: HMW
HStem: -10 80<197.5 246 552 645> 250 45 463 77
VStem: 45 100<122.5 175 122.5 197.5> 355 95<195 230 230 230 195 375> 694 106<325 362.5>
LayerCount: 2
Fore
SplineSet
800 305 m 1,0,-1
 795 252 l 1,1,-1
 450 250 l 1,2,3
 450 168 450 168 490 119 c 128,-1,4
 530 70 530 70 595 70 c 0,5,6
 639 70 639 70 681 84 c 128,-1,7
 723 98 723 98 743 111.5 c 2,8,-1
 763 125 l 1,9,-1
 798 73 l 1,10,11
 788 64 788 64 769 50 c 128,-1,12
 750 36 750 36 694 13 c 128,-1,13
 638 -10 638 -10 585 -10 c 0,14,15
 444 -10 444 -10 388 96 c 1,16,17
 373 77 373 77 352 56.5 c 128,-1,18
 331 36 331 36 286 13 c 128,-1,19
 241 -10 241 -10 195 -10 c 0,20,21
 124 -10 124 -10 84.5 29.5 c 128,-1,22
 45 69 45 69 45 140 c 0,23,24
 45 295 45 295 275 295 c 2,25,-1
 355 295 l 1,26,-1
 355 375 l 2,27,28
 355 465 355 465 260 465 c 0,29,30
 204 465 204 465 171 454 c 2,31,-1
 159 450 l 1,32,-1
 145 375 l 1,33,-1
 80 375 l 1,34,-1
 75 500 l 1,35,36
 185 540 185 540 270 540 c 0,37,38
 390 540 390 540 426 470 c 1,39,40
 490 540 490 540 590 540 c 0,41,42
 800 540 800 540 800 305 c 1,0,-1
355 230 m 1,43,-1
 285 230 l 2,44,45
 210 230 210 230 177.5 210 c 128,-1,46
 145 190 145 190 145 150.5 c 128,-1,47
 145 111 145 111 165.5 90.5 c 128,-1,48
 186 70 186 70 213.5 70 c 128,-1,49
 241 70 241 70 262.5 79 c 128,-1,50
 284 88 284 88 300 100 c 0,51,52
 333.333333333 125 333.333333333 125 348.5 146 c 2,53,-1
 355 155 l 1,54,-1
 355 230 l 1,43,-1
454 325 m 1,55,-1
 694 325 l 1,56,57
 694 386 694 386 668 424 c 128,-1,58
 642 462 642 462 584.5 462 c 128,-1,59
 527 462 527 462 493 423 c 128,-1,60
 459 384 459 384 454 325 c 1,55,-1
EndSplineSet
EndChar

StartChar: mu
Encoding: 181 181 215
AltUni2: 0003bc.ffffffff.0
Width: 655
Flags: HMW
HStem: -230 21G<110 210 110 110> -10 71 510 20G<210 210 545 545>
VStem: 110 100<-230 0 -230 161 169 450 450 450> 445 100<154 450 450 450>
LayerCount: 2
Fore
SplineSet
545 530 m 1,0,-1
 545 80 l 1,1,-1
 630 60 l 1,2,-1
 630 5 l 1,3,-1
 465 0 l 1,4,-1
 455 70 l 1,5,6
 359 -10 359 -10 270 -10 c 0,7,8
 240 -10 240 -10 210 0 c 1,9,-1
 210 -230 l 1,10,-1
 110 -230 l 1,11,-1
 110 450 l 1,12,-1
 25 470 l 1,13,-1
 25 525 l 1,14,-1
 210 530 l 1,15,-1
 210 169 l 1,16,17
 212 121 212 121 233 98 c 128,-1,18
 254 75 254 75 296 75 c 128,-1,19
 338 75 338 75 374 95 c 128,-1,20
 410 115 410 115 427.5 134.5 c 2,21,-1
 445 154 l 1,22,-1
 445 450 l 1,23,-1
 360 470 l 1,24,-1
 360 525 l 1,25,-1
 545 530 l 1,0,-1
EndSplineSet
EndChar

StartChar: partialdiff
Encoding: 8706 8706 216
Width: 605
Flags: HMW
HStem: -10 85<232.5 337.5 232.5 365> 353 87<233 320 200 333> 700 80<234 320>
VStem: 45 105<175 257.5 175 277.5> 445 100<412.5 502.5>
LayerCount: 2
Fore
SplineSet
140 760 m 1,0,1
 208 780 208 780 260 780 c 0,2,3
 545 780 545 780 545 400 c 0,4,5
 545 198.46875 545 198.46875 451 79.5 c 0,6,7
 419 39 419 39 370 14.5 c 128,-1,8
 321 -10 321 -10 260 -10 c 0,9,10
 165 -10 165 -10 105 50 c 128,-1,11
 45 110 45 110 45 210.5 c 128,-1,12
 45 311 45 311 106.5 375.5 c 128,-1,13
 168 440 168 440 265 440 c 0,14,15
 314 440 314 440 358.5 422.5 c 128,-1,16
 403 405 403 405 423 387.5 c 2,17,-1
 443 370 l 1,18,19
 445 400 445 400 445 425 c 0,20,21
 445 550 445 550 397.5 625 c 128,-1,22
 350 700 350 700 250 700 c 0,23,24
 206 700 206 700 164 692.5 c 2,25,-1
 150 690 l 1,26,-1
 140 760 l 1,0,1
435 285 m 1,27,28
 429.421052632 293.368421053 429.421052632 293.368421053 413.210526316 306.684210526 c 128,-1,29
 397 320 397 320 380.5 329 c 0,30,31
 336.5 353 336.5 353 275.25 353 c 128,-1,32
 214 353 214 353 182 316.5 c 128,-1,33
 150 280 150 280 150 217 c 128,-1,34
 150 154 150 154 182.5 114.5 c 128,-1,35
 215 75 215 75 260.5 75 c 128,-1,36
 306 75 306 75 338 96.5 c 128,-1,37
 370 118 370 118 387.5 149 c 0,38,39
 423.137254902 212.128851541 423.137254902 212.128851541 431.5 263.5 c 2,40,-1
 435 285 l 1,27,28
EndSplineSet
EndChar

StartChar: summation
Encoding: 8721 8721 217
Width: 595
Flags: HMW
HStem: -230 180<475 545 475 545> 530 170<470 535 470 470>
VStem: 455 90<-150 -150>
LayerCount: 2
Fore
SplineSet
35 -230 m 1,0,-1
 35 -155 l 1,1,-1
 315 240 l 1,2,-1
 30 625 l 1,3,-1
 30 700 l 1,4,-1
 535 700 l 1,5,-1
 535 530 l 1,6,-1
 470 530 l 1,7,-1
 445 620 l 1,8,-1
 155 620 l 1,9,-1
 430 252 l 1,10,-1
 145 -150 l 1,11,-1
 455 -150 l 1,12,-1
 475 -50 l 1,13,-1
 545 -50 l 1,14,-1
 545 -230 l 1,15,-1
 35 -230 l 1,0,-1
EndSplineSet
EndChar

StartChar: product
Encoding: 8719 8719 218
Width: 720
Flags: HMW
HStem: -230 21G<120 220 120 120 500 500 500 600> 620 80<220 685 220 500 600 600 600 602>
VStem: 120 100<-230 620> 500 100<-230 620 -230 620>
LayerCount: 2
Fore
SplineSet
220 -230 m 1,0,-1
 120 -230 l 1,1,-1
 120 620 l 1,2,-1
 35 640 l 1,3,-1
 35 695 l 1,4,-1
 220 700 l 1,5,-1
 685 700 l 1,6,-1
 685 640 l 1,7,-1
 602 620 l 1,8,-1
 600 620 l 1,9,-1
 600 -230 l 1,10,-1
 500 -230 l 1,11,-1
 500 620 l 1,12,-1
 220 620 l 1,13,-1
 220 -230 l 1,0,-1
EndSplineSet
EndChar

StartChar: pi
Encoding: 960 960 219
Width: 690
Flags: HMW
HStem: 0 21G<125 220 125 125> 470 60<605 605>
VStem: 125 95<0 450 0 450> 425 95<135 450 450 450>
LayerCount: 2
Fore
SplineSet
570 68 m 0,0,1
 594 68 594 68 630 80 c 1,2,-1
 655 30 l 1,3,4
 600 -10 600 -10 535 -10 c 0,5,6
 488 -10 488 -10 456.5 24 c 128,-1,7
 425 58 425 58 425 135 c 2,8,-1
 425 450 l 1,9,-1
 220 450 l 1,10,-1
 220 0 l 1,11,-1
 125 0 l 1,12,-1
 125 450 l 1,13,-1
 40 470 l 1,14,-1
 40 525 l 1,15,-1
 220 530 l 1,16,-1
 605 530 l 1,17,-1
 605 470 l 1,18,-1
 520 455 l 1,19,-1
 520 129 l 2,20,21
 520 68 520 68 570 68 c 0,0,1
EndSplineSet
EndChar

StartChar: integral
Encoding: 8747 8747 220
Width: 382
Flags: HMW
HStem: -240 75<65 92.5 52.5 140> 655 75<277.5 306 231 320>
VStem: 130 110
LayerCount: 2
Fore
SplineSet
367 715 m 1,0,-1
 360 647 l 1,1,2
 335 655 335 655 299.5 655 c 128,-1,3
 264 655 264 655 247 627 c 128,-1,4
 230 599 230 599 230 527.5 c 128,-1,5
 230 456 230 456 235 273.5 c 128,-1,6
 240 91 240 91 240 -25 c 0,7,8
 240 -240 240 -240 80 -240 c 0,9,10
 56.4285714286 -240 56.4285714286 -240 17 -228.5 c 2,11,-1
 5 -225 l 1,12,-1
 10 -160 l 1,13,14
 40 -165 40 -165 65 -165 c 0,15,16
 106 -165 106 -165 123 -137 c 128,-1,17
 140 -109 140 -109 140 -37.5 c 128,-1,18
 140 34 140 34 135 216.5 c 128,-1,19
 130 399 130 399 130 506 c 128,-1,20
 130 613 130 613 168 671.5 c 128,-1,21
 206 730 206 730 291 730 c 0,22,23
 313.428571429 730 313.428571429 730 354.5 718.5 c 2,24,-1
 367 715 l 1,0,-1
EndSplineSet
EndChar

StartChar: Omega
Encoding: 937 937 221
AltUni2: 002126.ffffffff.0
Width: 755
Flags: HMW
HStem: 0 82 625 85<320 440>
VStem: 70 105<306 460 253 470> 580 105<315.5 455>
LayerCount: 2
Fore
SplineSet
65 80 m 1,0,-1
 197 80 l 1,1,2
 141 128 141 128 105.5 204 c 128,-1,3
 70 280 70 280 70 365 c 0,4,5
 70 523 70 523 154.5 616.5 c 128,-1,6
 239 710 239 710 382.5 710 c 128,-1,7
 526 710 526 710 605.5 620 c 128,-1,8
 685 530 685 530 685 375 c 0,9,10
 685 289 685 289 648.5 210.5 c 128,-1,11
 612 132 612 132 556 81 c 1,12,-1
 690 85 l 1,13,-1
 690 0 l 1,14,-1
 435 0 l 1,15,-1
 435 65 l 1,16,-1
 436 65 l 1,17,18
 457.897637795 74.7322834646 457.897637795 74.7322834646 486.448818898 103.866141732 c 128,-1,19
 515 133 515 133 533 164 c 128,-1,20
 551 195 551 195 565.5 250 c 128,-1,21
 580 305 580 305 580 370 c 0,22,23
 580 494 580 494 526.5 559.5 c 128,-1,24
 473 625 473 625 379 625 c 128,-1,25
 285 625 285 625 230 562.5 c 128,-1,26
 175 500 175 500 175 370 c 0,27,28
 175 304 175 304 189.5 249 c 128,-1,29
 204 194 204 194 223 162.5 c 128,-1,30
 242 131 242 131 265.5 106.5 c 0,31,32
 295.747524752 74.9653465347 295.747524752 74.9653465347 319 65 c 1,33,-1
 320 65 l 1,34,-1
 320 0 l 1,35,-1
 65 0 l 1,36,-1
 65 80 l 1,0,-1
EndSplineSet
EndChar

StartChar: logicalnot
Encoding: 172 172 222
Width: 615
Flags: HMW
HStem: 275 80<60 560 60 475>
VStem: 475 85<85 275 275 275>
LayerCount: 2
Fore
SplineSet
60 275 m 1,0,-1
 60 355 l 1,1,-1
 560 355 l 1,2,-1
 560 85 l 1,3,-1
 475 85 l 1,4,-1
 475 275 l 1,5,-1
 60 275 l 1,0,-1
EndSplineSet
EndChar

StartChar: lozenge
Encoding: 9674 9674 223
Width: 510
Flags: HMW
HStem: -40 21G<210 210 210 300> 750 20G<207 297 297 297>
VStem: 17 54 437 51
LayerCount: 2
Fore
SplineSet
210 -40 m 1,0,-1
 17 366 l 1,1,-1
 207 770 l 1,2,-1
 297 770 l 1,3,-1
 490 365 l 1,4,-1
 300 -40 l 1,5,-1
 210 -40 l 1,0,-1
246 684 m 1,6,-1
 110 380 l 1,7,-1
 261 46 l 1,8,-1
 398 351 l 1,9,-1
 246 684 l 1,6,-1
EndSplineSet
EndChar

StartChar: breve
Encoding: 728 728 224
Width: 440
Flags: HMW
HStem: 620 75<185 255> 750 20G<140 140 360 360>
LayerCount: 2
Fore
SplineSet
300 765 m 1,0,-1
 360 770 l 1,1,2
 360 704 360 704 318 662 c 128,-1,3
 276 620 276 620 218.5 620 c 128,-1,4
 161 620 161 620 120.5 661.5 c 128,-1,5
 80 703 80 703 80 765 c 1,6,-1
 140 770 l 1,7,8
 140 764.090909091 140 764.090909091 147 747.545454545 c 128,-1,9
 154 731 154 731 161.5 721 c 0,10,11
 181 695 181 695 217 695 c 128,-1,12
 253 695 253 695 273 712.5 c 128,-1,13
 293 730 293 730 296.5 747.5 c 2,14,-1
 300 765 l 1,0,-1
EndSplineSet
EndChar

StartChar: dotlessi
Encoding: 305 305 225
Width: 335
Flags: HMW
HStem: 0 21G<40 300 40 40> 510 20G<225 225>
VStem: 38 187
LayerCount: 2
Fore
SplineSet
225 530 m 1,0,-1
 225 80 l 1,1,-1
 300 55 l 1,2,-1
 300 0 l 1,3,-1
 40 0 l 1,4,-1
 40 55 l 1,5,-1
 125 80 l 1,6,-1
 125 450 l 1,7,-1
 40 470 l 1,8,-1
 40 525 l 1,9,-1
 225 530 l 1,0,-1
EndSplineSet
EndChar

StartChar: currency
Encoding: 164 164 227
Width: 578
Flags: HMW
HStem: 58 165 374 164
VStem: 101 85<274.5 315.5> 396 85<279 321 279 335.5>
LayerCount: 2
Fore
SplineSet
528 486 m 1,0,-1
 452 410 l 1,1,2
 481 363 481 363 481 301 c 0,3,4
 481 239 481 239 449 189 c 1,5,-1
 528 110 l 1,6,-1
 479 58 l 1,7,-1
 398 138 l 1,8,9
 349 105 349 105 286 105 c 128,-1,10
 223 105 223 105 177 135 c 1,11,-1
 99 58 l 1,12,-1
 50 110 l 1,13,-1
 128 188 l 1,14,15
 101 233 101 233 101 294.5 c 0,16,17
 101 356 101 356 132 404 c 1,18,-1
 50 486 l 1,19,-1
 99 538 l 1,20,-1
 182 456 l 1,21,22
 232 490 232 490 294 490 c 0,23,24
 356 490 356 490 401 461 c 1,25,-1
 479 538 l 1,26,-1
 528 486 l 1,0,-1
186 298 m 0,27,28
 186 240 186 240 212 207.5 c 128,-1,29
 238 175 238 175 291 175 c 128,-1,30
 344 175 344 175 370 207.5 c 128,-1,31
 396 240 396 240 396 298 c 0,32,33
 396 420 396 420 291 420 c 128,-1,34
 186 420 186 420 186 298 c 0,27,28
EndSplineSet
EndChar

StartChar: radical
Encoding: 8730 8730 228
Width: 670
Flags: HMW
HStem: 0 21G<230 340 230 230> 750 20G<665 665>
LayerCount: 2
Fore
SplineSet
70 455 m 1,0,-1
 15 470 l 1,1,-1
 15 525 l 1,2,-1
 150 530 l 1,3,-1
 289 90 l 1,4,-1
 475 765 l 1,5,-1
 665 770 l 1,6,-1
 665 715 l 1,7,-1
 547 700 l 1,8,-1
 340 0 l 1,9,-1
 230 0 l 1,10,-1
 70 455 l 1,0,-1
EndSplineSet
EndChar

StartChar: asterisk.alt
Encoding: 65540 -1 229
Width: 401
Flags: HMW
HStem: 414 42 650 86
VStem: 25 39 320 41
LayerCount: 2
Fore
SplineSet
25 525 m 1,0,-1
 142 575 l 1,1,-1
 25 626 l 1,2,-1
 64 695 l 1,3,-1
 167 619 l 1,4,-1
 153 736 l 1,5,-1
 233 736 l 1,6,-1
 219 619 l 1,7,-1
 322 695 l 1,8,-1
 361 626 l 1,9,-1
 244 575 l 1,10,-1
 361 525 l 1,11,-1
 322 456 l 1,12,-1
 219 531 l 1,13,-1
 233 414 l 1,14,-1
 153 414 l 1,15,-1
 167 532 l 1,16,-1
 64 456 l 1,17,-1
 25 525 l 1,0,-1
182 581 m 1,18,-1
 142 575 l 1,19,-1
 182 570 l 1,20,-1
 167 532 l 1,21,-1
 192 563 l 1,22,-1
 219 531 l 1,23,-1
 203 570 l 1,24,-1
 244 575 l 1,25,-1
 203 581 l 1,26,-1
 219 619 l 1,27,-1
 192 588 l 1,28,-1
 167 619 l 1,29,-1
 182 581 l 1,18,-1
EndSplineSet
EndChar

StartChar: ampersand
Encoding: 38 38 230
Width: 670
Flags: HMW
HStem: -10 85<272.5 357.5 272.5 380> 330 80<277.5 630 320 450 550 550> 615 95
VStem: 70 105<157.5 237.5 157.5 255> 450 100<205 210 210 330>
LayerCount: 2
Fore
SplineSet
550 330 m 1,0,-1
 550 210 l 2,1,2
 550 106 550 106 484.5 48 c 128,-1,3
 419 -10 419 -10 302.5 -10 c 128,-1,4
 186 -10 186 -10 128 45 c 128,-1,5
 70 100 70 100 70 195 c 0,6,7
 70 229 70 229 84 260 c 128,-1,8
 98 291 98 291 117.5 312 c 0,9,10
 156.532994924 354.035532995 156.532994924 354.035532995 191 372.5 c 2,11,-1
 205 380 l 1,12,13
 191.466666667 382.706666667 191.466666667 382.706666667 167.733333333 396.353333333 c 128,-1,14
 144 410 144 410 128.5 425.5 c 128,-1,15
 113 441 113 441 100 469 c 128,-1,16
 87 497 87 497 87 530 c 0,17,18
 87 620 87 620 148.5 665 c 128,-1,19
 210 710 210 710 320 710 c 0,20,21
 359 710 359 710 406.5 700 c 128,-1,22
 454 690 454 690 482 680 c 2,23,-1
 510 670 l 1,24,-1
 505 530 l 1,25,-1
 441 530 l 1,26,-1
 420 610 l 1,27,28
 380 625 380 625 315.5 625 c 128,-1,29
 251 625 251 625 220.5 598 c 128,-1,30
 190 571 190 571 190 522.5 c 128,-1,31
 190 474 190 474 228 442 c 128,-1,32
 266 410 266 410 320 410 c 2,33,-1
 630 410 l 1,34,-1
 630 350 l 1,35,-1
 550 330 l 1,0,-1
450 205 m 2,36,-1
 450 330 l 1,37,-1
 315 330 l 2,38,39
 258 330 258 330 216.5 292.5 c 128,-1,40
 175 255 175 255 175 196.5 c 128,-1,41
 175 138 175 138 212 106.5 c 128,-1,42
 249 75 249 75 314 75 c 128,-1,43
 379 75 379 75 414.5 108.5 c 128,-1,44
 450 142 450 142 450 205 c 2,36,-1
EndSplineSet
EndChar

StartChar: R
Encoding: 82 82 231
Width: 650
Flags: HMW
HStem: 0 80<125 125> 620 80<230 335 230 340>
VStem: 125 105<80 305 80 380 380 620>
LayerCount: 2
Fore
SplineSet
40 0 m 1,0,-1
 40 60 l 1,1,-1
 125 80 l 1,2,-1
 125 620 l 1,3,-1
 40 640 l 1,4,-1
 40 695 l 1,5,-1
 230 700 l 1,6,-1
 340 700 l 2,7,8
 446 700 446 700 505.5 652 c 128,-1,9
 565 604 565 604 565 520 c 0,10,11
 565 373 565 373 435 325 c 1,12,13
 459 304 459 304 495 235 c 1,14,-1
 574 76 l 1,15,-1
 645 60 l 1,16,-1
 645 0 l 1,17,-1
 495 0 l 1,18,-1
 410 185 l 2,19,20
 375 260 375 260 349.5 282.5 c 128,-1,21
 324 305 324 305 275 305 c 2,22,-1
 230 305 l 1,23,-1
 230 80 l 1,24,-1
 315 60 l 1,25,-1
 315 0 l 1,26,-1
 40 0 l 1,0,-1
230 620 m 1,27,-1
 230 380 l 1,28,-1
 305 380 l 2,29,30
 378 380 378 380 419 413 c 128,-1,31
 460 446 460 446 460 500.5 c 0,32,33
 460 555 460 555 425 587.5 c 128,-1,34
 390 620 390 620 335 620 c 2,35,-1
 230 620 l 1,27,-1
EndSplineSet
EndChar

StartChar: cedilla
Encoding: 184 184 232
Width: 436
Flags: HMW
HStem: -219 48<193 227.5 193 254.5> -43 43<184 244>
VStem: 225 110
LayerCount: 2
Fore
SplineSet
184 0 m 1,0,-1
 244 0 l 1,1,-1
 244 -43 l 1,2,3
 285 -50 285 -50 308 -73 c 128,-1,4
 331 -96 331 -96 331 -133 c 128,-1,5
 331 -170 331 -170 301 -194.5 c 128,-1,6
 271 -219 271 -219 232 -219 c 0,7,8
 164 -219 164 -219 123.5 -198 c 2,9,-1
 110 -191 l 1,10,-1
 134 -150 l 1,11,12
 175 -171 175 -171 205.5 -171 c 128,-1,13
 236 -171 236 -171 251 -159 c 128,-1,14
 266 -147 266 -147 266 -126 c 128,-1,15
 266 -105 266 -105 244 -92 c 128,-1,16
 222 -79 222 -79 184 -79 c 1,17,-1
 184 0 l 1,0,-1
EndSplineSet
EndChar

StartChar: at
Encoding: 64 64 233
Width: 820
Flags: HMW
HStem: -10 75<316 427.5 316 442> 159 56 328 54<415 421 421 469> 485 68<388.5 423.5> 635 75<331.5 496>
VStem: 65 80<260 438.5 260 455> 253 78<257 291.5 257 308.5> 469 80<270 328 328 328 382 430 430 438> 680 80<311.5 441>
LayerCount: 2
Fore
SplineSet
555 30 m 1,0,1
 485 -10 485 -10 390 -10 c 0,2,3
 233 -10 233 -10 149 81.5 c 128,-1,4
 65 173 65 173 65 341.5 c 128,-1,5
 65 510 65 510 162.5 610 c 128,-1,6
 260 710 260 710 418.5 710 c 128,-1,7
 577 710 577 710 668.5 616 c 128,-1,8
 760 522 760 522 760 360 c 0,9,10
 760 265 760 265 714.5 210 c 128,-1,11
 669 155 669 155 591 155 c 0,12,13
 528.052631579 155 528.052631579 155 494.5 197.5 c 0,14,15
 487 207 487 207 482 221 c 1,16,17
 461.547826087 197.139130435 461.547826087 197.139130435 426.773913043 178.069565217 c 128,-1,18
 392 159 392 159 364 159 c 0,19,20
 310 159 310 159 281.5 187.5 c 128,-1,21
 253 216 253 216 253 271 c 0,22,23
 253 382 253 382 415 382 c 2,24,-1
 469 382 l 1,25,-1
 469 430 l 2,26,27
 469 485 469 485 401 485 c 0,28,29
 367 485 367 485 316 470 c 2,30,-1
 299 465 l 1,31,-1
 281 522 l 1,32,33
 356 553 356 553 421 553 c 0,34,35
 549 553 549 553 549 438 c 2,36,-1
 549 259 l 2,37,38
 549 238 549 238 561.5 226.5 c 128,-1,39
 574 215 574 215 596 215 c 0,40,41
 635 215 635 215 657.5 252.5 c 128,-1,42
 680 290 680 290 680 355 c 0,43,44
 680 484 680 484 608.5 559.5 c 128,-1,45
 537 635 537 635 413.5 635 c 128,-1,46
 290 635 290 635 217.5 559 c 128,-1,47
 145 483 145 483 145 349 c 128,-1,48
 145 215 145 215 211 140 c 128,-1,49
 277 65 277 65 395 65 c 0,50,51
 450.416666667 65 450.416666667 65 499.5 84 c 2,52,-1
 515 90 l 1,53,-1
 555 30 l 1,0,1
469 328 m 1,54,-1
 421 328 l 2,55,56
 372 328 372 328 351.5 315 c 128,-1,57
 331 302 331 302 331 276 c 0,58,59
 331 225 331 225 383 225 c 0,60,61
 404 225 404 225 425.5 236 c 128,-1,62
 447 247 447 247 458 258.5 c 2,63,-1
 469 270 l 1,64,-1
 469 328 l 1,54,-1
EndSplineSet
EndChar

StartChar: section
Encoding: 167 167 234
Width: 545
Flags: HMW
HStem: -149 80 697 83
VStem: 75 96 371 116
LayerCount: 2
Fore
SplineSet
451 590 m 1,0,-1
 391 590 l 1,1,-1
 367 695 l 1,2,3
 338 700 338 700 313 700 c 0,4,5
 268 700 268 700 241.5 674.5 c 128,-1,6
 215 649 215 649 215 611.5 c 128,-1,7
 215 574 215 574 243 543 c 128,-1,8
 271 512 271 512 310.5 487 c 128,-1,9
 350 462 350 462 389.5 434.5 c 128,-1,10
 429 407 429 407 457 366 c 128,-1,11
 485 325 485 325 485 275 c 0,12,13
 485 177 485 177 413 128 c 1,14,15
 441 85 441 85 441 35 c 0,16,17
 441 -47 441 -47 388 -98.5 c 128,-1,18
 335 -150 335 -150 251 -150 c 0,19,20
 213 -150 213 -150 177 -142.5 c 128,-1,21
 141 -135 141 -135 123.5 -127.5 c 2,22,-1
 106 -120 l 1,23,-1
 111 40 l 1,24,-1
 175 40 l 1,25,-1
 196 -65 l 1,26,27
 218 -70 218 -70 256.5 -70 c 128,-1,28
 295 -70 295 -70 320.5 -44 c 128,-1,29
 346 -18 346 -18 346 18.5 c 128,-1,30
 346 55 346 55 318 86.5 c 128,-1,31
 290 118 290 118 250.5 143 c 128,-1,32
 211 168 211 168 171 195.5 c 128,-1,33
 131 223 131 223 103 264 c 128,-1,34
 75 305 75 305 75 355 c 0,35,36
 75 453 75 453 147 502 c 1,37,38
 120 543 120 543 120 595 c 0,39,40
 120 677 120 677 173.5 728.5 c 128,-1,41
 227 780 227 780 311 780 c 0,42,43
 349 780 349 780 385 772.5 c 128,-1,44
 421 765 421 765 438.5 757.5 c 2,45,-1
 456 750 l 1,46,-1
 451 590 l 1,0,-1
364 181 m 1,47,48
 390 209 390 209 390 253.5 c 128,-1,49
 390 298 390 298 362.5 327.5 c 128,-1,50
 335 357 335 357 277.5 393.5 c 128,-1,51
 220 430 220 430 197 449 c 1,52,53
 170 422 170 422 170 377 c 128,-1,54
 170 332 170 332 197.5 302.5 c 128,-1,55
 225 273 225 273 283 236.5 c 128,-1,56
 341 200 341 200 364 181 c 1,47,48
EndSplineSet
EndChar

StartChar: ogonek
Encoding: 731 731 235
Width: 310
Flags: HMW
HStem: -220 225<180 190>
VStem: 70 80<-130 -82.5 -130 -82.5>
LayerCount: 2
Fore
SplineSet
240 -153 m 1,0,-1
 250 -200 l 1,1,2
 210 -220 210 -220 168.5 -220 c 128,-1,3
 127 -220 127 -220 98.5 -194.5 c 128,-1,4
 70 -169 70 -169 70 -125 c 0,5,6
 70 -77.84375 70 -77.84375 109 -42.5 c 0,7,8
 144.273775216 -10.5331412104 144.273775216 -10.5331412104 168.5 0 c 2,9,-1
 180 5 l 1,10,-1
 270 5 l 1,11,12
 233.23943662 -9.70422535211 233.23943662 -9.70422535211 204.61971831 -33.8521126761 c 0,13,14
 150 -79.9375 150 -79.9375 150 -115 c 0,15,16
 150 -137 150 -137 162.5 -148.5 c 128,-1,17
 175 -160 175 -160 195 -160 c 1,18,-1
 240 -153 l 1,0,-1
EndSplineSet
EndChar

StartChar: aogonek
Encoding: 261 261 236
Width: 570
Flags: HMW
HStem: -220 60<447.5 455> -10 80<197.5 230> 230 65<275 285 285 355> 465 75<230 290>
VStem: 45 102<122.5 175 122.5 197.5> 355 99
LayerCount: 2
Fore
SplineSet
535 60 m 1,0,-1
 535 5 l 1,1,2
 498.23943662 -9.70422535211 498.23943662 -9.70422535211 469.61971831 -33.8521126761 c 0,3,4
 415 -79.9375 415 -79.9375 415 -115 c 0,5,6
 415 -137 415 -137 427.5 -148.5 c 128,-1,7
 440 -160 440 -160 460 -160 c 1,8,-1
 505 -153 l 1,9,-1
 515 -200 l 1,10,11
 475 -220 475 -220 433.5 -220 c 128,-1,12
 392 -220 392 -220 363.5 -194.5 c 128,-1,13
 335 -169 335 -169 335 -130 c 128,-1,14
 335 -91 335 -91 357.5 -61.5 c 128,-1,15
 380 -32 380 -32 400 -19 c 128,-1,16
 420 -6 420 -6 438 2 c 1,17,-1
 380 0 l 1,18,-1
 359 70 l 1,19,20
 279 -10 279 -10 201.5 -10 c 128,-1,21
 124 -10 124 -10 84.5 29.5 c 128,-1,22
 45 69 45 69 45 140 c 0,23,24
 45 295 45 295 275 295 c 2,25,-1
 355 295 l 1,26,-1
 355 375 l 2,27,28
 355 465 355 465 260 465 c 0,29,30
 204 465 204 465 171 454 c 2,31,-1
 159 450 l 1,32,-1
 145 375 l 1,33,-1
 80 375 l 1,34,-1
 75 500 l 1,35,36
 185 540 185 540 273 540 c 128,-1,37
 361 540 361 540 408 504 c 128,-1,38
 455 468 455 468 455 385 c 2,39,-1
 455 80 l 1,40,-1
 535 60 l 1,0,-1
178.5 210 m 128,-1,42
 147 190 147 190 147 150.5 c 128,-1,43
 147 111 147 111 166.5 90.5 c 128,-1,44
 186 70 186 70 219.5 70 c 128,-1,45
 253 70 253 70 287 90 c 128,-1,46
 321 110 321 110 338 130 c 2,47,-1
 355 150 l 1,48,-1
 355 230 l 1,49,-1
 285 230 l 2,50,41
 210 230 210 230 178.5 210 c 128,-1,42
EndSplineSet
EndChar

StartChar: circumflex
Encoding: 710 710 237
Width: 520
Flags: HMW
HStem: 650 21G<125 125 395 395> 800 20G<290 290>
LayerCount: 2
Fore
SplineSet
395 650 m 1,0,-1
 262 743 l 1,1,-1
 125 650 l 1,2,-1
 85 695 l 1,3,-1
 230 815 l 1,4,-1
 290 820 l 1,5,-1
 435 695 l 1,6,-1
 395 650 l 1,0,-1
EndSplineSet
EndChar

StartChar: Acircumflex
Encoding: 194 194 238
Width: 725
Flags: HMW
HStem: 0 80 190 80<252 458 252 485 225 458> 680 20G<415 415> 750 21G<225 225 495 495> 900 20G<390 390>
LayerCount: 2
Fore
SplineSet
5 0 m 1,0,-1
 5 60 l 1,1,-1
 87 79 l 1,2,-1
 315 695 l 1,3,-1
 415 700 l 1,4,-1
 637 79 l 1,5,-1
 720 60 l 1,6,-1
 720 0 l 1,7,-1
 430 0 l 1,8,-1
 430 60 l 1,9,-1
 523 79 l 1,10,-1
 485 190 l 1,11,-1
 225 190 l 1,12,-1
 186 79 l 1,13,-1
 280 60 l 1,14,-1
 280 0 l 1,15,-1
 5 0 l 1,0,-1
357 571 m 1,16,-1
 252 270 l 1,17,-1
 458 270 l 1,18,-1
 357 571 l 1,16,-1
495 750 m 1,19,-1
 362 843 l 1,20,-1
 225 750 l 1,21,-1
 185 795 l 1,22,-1
 330 915 l 1,23,-1
 390 920 l 1,24,-1
 535 795 l 1,25,-1
 495 750 l 1,19,-1
EndSplineSet
EndChar

StartChar: Ecircumflex
Encoding: 202 202 239
Width: 625
Flags: HMW
HStem: 0 80<145 145 250 480> 325 80<250 480 250 480> 621 79 751 20G
VStem: 145 105<80 325 405 620> 470 85
LayerCount: 2
Fore
SplineSet
455 750 m 1,0,-1
 322 843 l 1,1,-1
 185 750 l 1,2,-1
 145 795 l 1,3,-1
 290 915 l 1,4,-1
 350 920 l 1,5,-1
 495 795 l 1,6,-1
 455 750 l 1,0,-1
465 620 m 1,7,-1
 250 620 l 1,8,-1
 250 405 l 1,9,-1
 480 405 l 1,10,-1
 480 325 l 1,11,-1
 250 325 l 1,12,-1
 250 80 l 1,13,-1
 480 80 l 1,14,-1
 500 180 l 1,15,-1
 565 180 l 1,16,-1
 565 0 l 1,17,-1
 60 0 l 1,18,-1
 60 60 l 1,19,-1
 145 80 l 1,20,-1
 145 620 l 1,21,-1
 60 640 l 1,22,-1
 60 695 l 1,23,-1
 250 700 l 1,24,-1
 555 700 l 1,25,-1
 555 530 l 1,26,-1
 490 530 l 1,27,-1
 465 620 l 1,7,-1
EndSplineSet
EndChar

StartChar: Icircumflex
Encoding: 206 206 240
Width: 376
Flags: HMW
HStem: 0 80<138 138> 620 80 750 21G<60 60 316 316> 900 20G<218 218>
VStem: 138 105<80 620 80 620>
LayerCount: 2
Fore
SplineSet
316 750 m 1,0,-1
 190 843 l 1,1,-1
 60 750 l 1,2,-1
 20 795 l 1,3,-1
 158 915 l 1,4,-1
 218 920 l 1,5,-1
 356 795 l 1,6,-1
 316 750 l 1,0,-1
328 60 m 1,7,-1
 328 0 l 1,8,-1
 53 0 l 1,9,-1
 53 60 l 1,10,-1
 138 80 l 1,11,-1
 138 620 l 1,12,-1
 53 640 l 1,13,-1
 53 695 l 1,14,-1
 328 700 l 1,15,-1
 328 640 l 1,16,-1
 243 620 l 1,17,-1
 243 80 l 1,18,-1
 328 60 l 1,7,-1
EndSplineSet
EndChar

StartChar: Ocircumflex
Encoding: 212 212 241
Width: 755
Flags: HMW
HStem: -10 85<305 435 305 462.5> 625 85<315 445> 900 20G<405 405>
VStem: 60 115<260 445 260 455> 580 115<260 445>
LayerCount: 2
Fore
SplineSet
148 610.5 m 128,-1,1
 236 710 236 710 383 710 c 128,-1,2
 530 710 530 710 612.5 616 c 128,-1,3
 695 522 695 522 695 358.5 c 128,-1,4
 695 195 695 195 603 92.5 c 128,-1,5
 511 -10 511 -10 364.5 -10 c 128,-1,6
 218 -10 218 -10 139 81.5 c 128,-1,7
 60 173 60 173 60 342 c 128,-1,0
 60 511 60 511 148 610.5 c 128,-1,1
380 625 m 0,8,9
 175 625 175 625 175 350 c 128,-1,10
 175 75 175 75 370 75 c 0,11,12
 470 75 470 75 525 145.5 c 128,-1,13
 580 216 580 216 580 355 c 0,14,15
 580 625 580 625 380 625 c 0,8,9
515 735 m 1,16,-1
 377 843 l 1,17,-1
 235 735 l 1,18,-1
 195 780 l 1,19,-1
 345 915 l 1,20,-1
 405 920 l 1,21,-1
 555 780 l 1,22,-1
 515 735 l 1,16,-1
EndSplineSet
EndChar

StartChar: Ucircumflex
Encoding: 219 219 242
Width: 790
Flags: HMW
HStem: -10 85<337.5 457.5 337.5 495> 620 77 900 20G<425 425>
VStem: 125 105<270 620> 560 105<285 620>
LayerCount: 2
Fore
SplineSet
665 620 m 1,0,-1
 665 285 l 2,1,2
 665 138 665 138 603 64 c 128,-1,3
 541 -10 541 -10 394 -10 c 0,4,5
 247 -10 247 -10 186 58.5 c 128,-1,6
 125 127 125 127 125 270 c 2,7,-1
 125 620 l 1,8,-1
 40 640 l 1,9,-1
 40 695 l 1,10,-1
 325 700 l 1,11,-1
 325 640 l 1,12,-1
 230 620 l 1,13,-1
 230 270 l 2,14,15
 230 160 230 160 268 117.5 c 128,-1,16
 306 75 306 75 397 75 c 0,17,18
 488 75 488 75 524 121.5 c 128,-1,19
 560 168 560 168 560 285 c 2,20,-1
 560 620 l 1,21,-1
 465 640 l 1,22,-1
 465 695 l 1,23,-1
 750 700 l 1,24,-1
 750 640 l 1,25,-1
 665 620 l 1,0,-1
530 750 m 1,26,-1
 397 843 l 1,27,-1
 260 750 l 1,28,-1
 220 795 l 1,29,-1
 365 915 l 1,30,-1
 425 920 l 1,31,-1
 570 795 l 1,32,-1
 530 750 l 1,26,-1
EndSplineSet
EndChar

